<mxfile host="app.diagrams.net" agent="Mozilla/5.0 (Windows NT 10.0; Win64; x64) AppleWebKit/537.36 (KHTML, like Gecko) Chrome/141.0.0.0 Safari/537.36" version="28.2.7">
  <diagram name="Page-1" id="wboZmVYdcPzXi94o1YSG">
    <mxGraphModel dx="1442" dy="927" grid="0" gridSize="10" guides="1" tooltips="1" connect="1" arrows="1" fold="1" page="0" pageScale="1" pageWidth="850" pageHeight="1100" background="light-dark(#FFFFFF,#FFFFFF)" math="0" shadow="0">
      <root>
        <mxCell id="0" />
        <mxCell id="1" parent="0" />
        <mxCell id="8eMQXXNVM8QZM0LBL5MA-1" value="&lt;b&gt;Search By&lt;/b&gt;" style="rounded=1;fillColor=none;strokeColor=none;html=1;fontColor=#596780;align=left;fontSize=11;spacingLeft=10;fontSize=11;pointerEvents=0;" vertex="1" parent="1">
          <mxGeometry x="-99" y="-37" width="100" height="20" as="geometry" />
        </mxCell>
        <mxCell id="8eMQXXNVM8QZM0LBL5MA-2" value="Workflow" style="rounded=1;fillColor=#253858;strokeColor=none;html=1;fontColor=#ffffff;align=left;fontSize=12;spacingLeft=10;pointerEvents=0;" vertex="1" parent="1">
          <mxGeometry x="-99" y="-17" width="100" height="33" as="geometry" />
        </mxCell>
        <mxCell id="8eMQXXNVM8QZM0LBL5MA-3" value="" style="shape=triangle;direction=south;fillColor=#ffffff;strokeColor=none;html=1;pointerEvents=0;fontSize=20;" vertex="1" parent="8eMQXXNVM8QZM0LBL5MA-2">
          <mxGeometry x="1" y="0.5" width="12" height="6" relative="1" as="geometry">
            <mxPoint x="-20" y="-3" as="offset" />
          </mxGeometry>
        </mxCell>
        <mxCell id="8eMQXXNVM8QZM0LBL5MA-10" value="Address" style="rounded=1;fillColor=#253858;strokeColor=none;html=1;fontColor=#ffffff;align=left;fontSize=12;spacingLeft=10;pointerEvents=0;" vertex="1" parent="1">
          <mxGeometry x="-99" y="-17" width="100" height="33" as="geometry" />
        </mxCell>
        <mxCell id="8eMQXXNVM8QZM0LBL5MA-11" value="" style="shape=triangle;direction=south;fillColor=#ffffff;strokeColor=none;html=1;pointerEvents=0;fontSize=20;" vertex="1" parent="8eMQXXNVM8QZM0LBL5MA-10">
          <mxGeometry x="1" y="0.5" width="12" height="6" relative="1" as="geometry">
            <mxPoint x="-20" y="-3" as="offset" />
          </mxGeometry>
        </mxCell>
        <mxCell id="8eMQXXNVM8QZM0LBL5MA-12" value="" style="rounded=1;fillColor=#ffffff;strokeColor=#DFE1E5;shadow=1;html=1;arcSize=4;hachureGap=4;pointerEvents=0;fontFamily=Helvetica;fontSize=20;" vertex="1" parent="1">
          <mxGeometry x="-99" y="19" width="100" height="114" as="geometry" />
        </mxCell>
        <mxCell id="8eMQXXNVM8QZM0LBL5MA-13" value="UPRN" style="rounded=0;fillColor=#F4F5F7;strokeColor=none;shadow=0;html=1;align=left;fontSize=12;spacingLeft=10;fontColor=#253858;resizeWidth=1;pointerEvents=0;" vertex="1" parent="8eMQXXNVM8QZM0LBL5MA-12">
          <mxGeometry width="100" height="33" relative="1" as="geometry">
            <mxPoint y="6" as="offset" />
          </mxGeometry>
        </mxCell>
        <mxCell id="8eMQXXNVM8QZM0LBL5MA-15" value="Manual Check" style="rounded=0;fillColor=none;strokeColor=none;shadow=0;html=1;align=left;fontSize=12;spacingLeft=10;fontColor=#253858;resizeWidth=1;pointerEvents=0;" vertex="1" parent="8eMQXXNVM8QZM0LBL5MA-12">
          <mxGeometry width="100" height="33" relative="1" as="geometry">
            <mxPoint y="60" as="offset" />
          </mxGeometry>
        </mxCell>
        <mxCell id="8eMQXXNVM8QZM0LBL5MA-17" value="Task" style="rounded=0;fillColor=#F4F5F7;strokeColor=none;shadow=0;html=1;align=left;fontSize=12;spacingLeft=10;fontColor=#253858;resizeWidth=1;pointerEvents=0;" vertex="1" parent="8eMQXXNVM8QZM0LBL5MA-12">
          <mxGeometry y="35.041666666666664" width="100" height="26.125" as="geometry" />
        </mxCell>
        <mxCell id="8eMQXXNVM8QZM0LBL5MA-19" value="" style="shape=image;verticalLabelPosition=bottom;labelBackgroundColor=default;verticalAlign=top;aspect=fixed;imageAspect=0;image=data:image/png,iVBORw0KGgoAAAANSUhEUgAABTQAAABkCAYAAAC4ob9eAAAAAXNSR0IArs4c6QAAAARnQU1BAACxjwv8YQUAAAAJcEhZcwAAEnQAABJ0Ad5mH3gAACO1SURBVHhe7d1/UFX3nf/xV8sM9uv0ZtrBbr7jLVtvyxYaEwIYjBmQKGiKhsoNVdRUJdoYrPmxVnENqN/Uav1Ro6ZpNJtoNETbBLOLkDVCE8CU4rcG9tsoxgS6TC4N4my2Msl400xhQs/3j3MunHu4CCio1z4fM8zo+Xl/nM/7fs77fH58wTAMQzbvvvuu/b8AAAAAAAAAcN34QqiE5q233mpfBAAAAAAAAADXhS86FwAAAAAAAADA9YqEJgAAAAAAAICwQUITAAAAAAAAQNggoQkAAAAAAAAgbJDQBAAAAAAAABA2SGgCAAAAAAAACBskNAEAAAAAAACEDRKaAAAAAAAAAMIGCU0AAAAAAAAAYYOEJgAAAAAAAICwQUIT/TqxPlETkhK1tta5ZmBXsi9w3fmkSQ3N/t7/1xZpQlKiJqyvs28VUt+y0KX2hnq1dwVvh3DWrkPzEzUhab4OtTnXAQCAcORvrlfzJ86lAG4IbQd1f1KiJsw/qHbnOoQNEprXQrdfja8WaXFWmu5KMpMdEyalafbyEjU7twUwJO3F880yZf+blKbZqw6q8bIqpY3alj1fy+anaeMJ57qh6yh9VLPy8zVrCT+eQ9Jdr213J2rC3VvV0O1cCWAk+E+VaG1elqZMCsTTOzUlN1+HqawAYSTw0O3Sf/cXUysJcmqrvjc/X/dP36BhqP4BYSPQGMP+d1d6jpbtqFYHdXBcZ0hoXm3dPh1aOk2Lt1So8XynRo11yz3WLZf88p08rQvO7QFcnuiJ8uZ45Z0ar6hRfvmO79TiORt04jPnhgOJkudbkVJkvGL/0blu6Fw3exQVIUWN9+hrzpXoV1fNYR32S+55XiVHONcCGG6+X+XpniVbVXmmXZ2jzbqK+yuSv6Vepz+yNvqoXoc25Wt2/jV4QPOZT5XPFmhx+laSDcAAIsdYZXisW+6bXebCCJeiAsvGujVmtHOvv3NRHnkipcjb4jQusIy4g78nrigrPkRplN+nhl8V6J68g/INc1Kzo+GgNi7P0bJfXfWaBG4AJDSvsq6a3dp1qktyzdD2mrf11tGjeu3oUb11olYHlnzHuTmAyxW/UOvXPaH1O4r1Rs3L+mG0pI4yHftP54YDcSt3/9v6fyeLlRvtXDd0kSmP642Gd/RGYaoinSvRjw6VvVwtKV4LcuKcKwEMt8+qteepRnXJpcxttfp9jVlXea3mbb21/0F9J/BQoblMu0rr5bvo2P9q6KjTS3ur1fjJtTg5EE7cyv2lVYaPHtVrzy9VrCTFLNWBwLKjR/X0HLdzx79v0XN14OQ7+v3+uer5ZIg7+DsSu6TYig9Veqvml8qMkvTeTu2pGd5xs5pe26mykz5d/Ny5BhgYCc2r7M/nrScPKRlK/4ptRYRL8Y8sVIptEYBhEvFNfTNGkly66SbnSlz32o6p7JSk6Yvkvdm5EsCw6ziv9m5JSlVGutWay+JKeFgLqKwAAPD3w5WqB+d7JEkN7zQ51wLXDAnNq8ztMQOB3tynF1oGeLrxUbV2Lc/RlGRz7IopM/K07c129ezV7Vfjqxu0LLd3LM670vO07XhH7zFsg936PqrQ2uw7NSGpqKebRFebdY7A+FiT0jT72cbe/c2t5Hu1QLPvts6RXaBDZ2wTpAyg4/hW3R/Y1/76mndrVlKiJiQX6YSj6Xrzs1makJSoxa/a3gtwObq71FG7U3uOS7plqRYkWMsDE/s4B4LuM+HPYCd86VL7m1u1OP1Oc/+7c7S61KdO52Z9jm+fOCi4rE3JKVBZa9De0ieNOrQqEBfu1Kzlu9VwZhCDWttjwSd12pVnxY1JaVq8o172Et3VVq09q/J0j/U6JiRbY5D2bGT7TFo7VLNlvvl6ktN0/xZrfJ3WCq1dkGbFlSytLm4MOoe6O1SzI7/nvU64e5oWb6kOOVlS89ESNcul3NkZVqtW+/n9OrEjz4phd2pK3k419HmdzgnKQnyntu/Ff+agVmeb32NvvPOr4dl8zbJi5ZQFW1UT6HYbxK/G4oLe7XJCxMsB33vw51u5Pkt39XkPwAga65EnQpIqtK/Y11vv6GFdoysqzP827zR/z636RW9M86vx2XxNSbaNzzfg9W/ynynR2kCcSrpTU3ILdOiUWZZOrE/UhOyd1rjjFXosyVGeAVwWf0uZtuVN67n36FM+A7+V+WXqraF3qXKVuf2yUlu9/dRWTUlK1JSfNw6pDhKaX77XtmrxDKteEeq+aKDYE0pgXoOg4xaosqPvhCH9xZ3iVwrMffvUwbpUsyZRE5LStK0haAUQliIjRkmS/P5AC+XBlUt90qjD6wN1davc72/qKWOPvW5u1vwL8/7ffo80UK5iwJgV4Lh/mpK3Uw39zK1wqfoHrj8kNK+2tIe1JiFS6m7SntzJmrVqt060OUucpNaDuj+rQIf+ICVne+XNmaE4Nerwmiw9FqgsnC/T1i3HdH5MqmbmeOXNnCiXv1GHV83VtlPOA76vfSuKVGk7l792g7JyCnTopE+dN09UZo5XmUljdMHRjcL3fJ7uf6ZdnukzlHyzFVge2TKosQj95QW6p7BON6V4lX6LS12fmK9vba1fis1QZrSk7godCxqIpknVr7dLiteMtCj7CmDwXn/U/GFLvlP3rCjRX9Oe0L/tX9jbbWiYtf8qT7PWlKjxE8k9aYa8KV9T88+XautJ55b98z2fp/v3+xVrlTV/a7U2Lt2qxkDC31+ntXPytOu4T/7RcUrPmanYiyV6bGWxzjuO1S//Ma2ds0onxmRo5lSPIrv8avxVvlbbbkIani/QC//Zpdune+XN8Srd02mOQVpgv4GRJL+OrZurn551KyMtTi751fxqgRb/fKdWz/mJmm/OUGZylNTVrppfPKKttVb86fbpUN40rf7VKekO8xyZcVLjqwWa9ajjHN31KnulXYqeK2+yfYWs89+ngre/poysDHkiu+Q/c1DL+rzOIWjZrfxHSuQfn6Hk6Egz3i3ZoF1b5mvZa9JtWRnyREr+90q0eoXz5qVTp5+ar8X72xWbNUPJ0ZHyt1Zr15KHdCiQmB7Ke5f0/guPaO3rjoohMNIiUrV8VbwiJTU/k6O7swu054T9OvySPOleeSdZEdUVp/Qcr7w5EzWm9yjqenOLHttbL38ghg3y+vfXFun7eVtV+T/fsY47WWM+rNauJfdp2ylpTKJX3ulxMtuOupWc45U3J0MexgAELpu/tkjfz92gw2f8uil5hrw5GYpVh1k+s3eadZE7Jitdkv5Qr6ZAuf7sd6q2Hrg1vPN+z/Ga6+rkl5QyKb5n2WDqIH35dWL9fZr9kxI1fnyTkjO98k6Nky6Y90VZO5wNMULEnlDs8xpckGKnWnFEfl0IcY/TX9yJSZ2h9AhJzcd03P5Q5bNqVbwpyTVT6Um25UCYOm/1NI2N8wy+XHY3atucPG17vVGRt88wf/eTblKT74I02qOMHK+SrSG9XLdkmPMfJJo1iYFyFYOKWZL0WZ02Ou6fkrvLQt4/DVT/wHXIcDhz5oxzEYbb5xeN0y8+Yky/I8FISkwwkhInGt/fXGVc+DywwTnj4LwEIymt0Ki+aNvvv18xHkhMMJLufcZoMgzDuPC+cfrDTtsGhvHBC/cZSYkJxt3bTpsLPnzJmJ+YYCTdkWBM/5cjxrnA5p+fNrZOSzCSEicb+Yc/sB+iR9066/XNesZoCry2i1VGUZq5/Kd1jh1sevfdYZy2vcQPXpxnLp/3knHOMIwLhxeZ/1/3u96Nzj5jfC8xwUj6lyoj+N0BAzsXuMZmPWT8dONPjJ+uXGRMt67ZpMxHjCM+a8PfFgZdiz0Cy3uuSas8Js4zDn7YzzZ/qTIK7kgwkhLvNbbW2wrtx73lpei3/exrLy/z9hofBMra528bW9PMMrr1HXNR0557ze1WHjEu9sSLTuP0U9Zy53uxC8SCxMlGUU3va+wpgw8dMS5Yy841nrYd3zCMz6uMosQEIynxIePIBcP2mSQYdxdWGYGjXaxYZR4rMcGY/2JvXKnfPNlcvtF8z+Z3FPw6DOOCUbLY/Ax3n+1d2vmGecwHDgdendHv+XtiZIjX2fP5B+0f4jtNnGfsC1wjn79v7J5lfTfTCo26wIl6zjPPONhuP57zu7lo1K3LCPq+B/febcfLXGUcccR54Gq5+M5LxqOZ1rWYmGBMmrPFqP5v2wb9xNGemHbnImP3O73X+qCu/7/8zoyb9nhoGIZRv8W4OzHBSFp5zKwb9MS0QuMS1REAToGyYy+3PfWYDKPot7by+fkHxsEfmOXZ/B3uNCpWJgTVTcw4cK/xvVkJRlLaFsO8A7lgHHkowUi6Y5VR/Zeh1UGcAvWAoN9hwzAM30vG/DsSjKTERUaJFZf6iz2hXPj3h8xtZ20x7FW3HqE+p37iTqCeM//F3kjYadWJvrfnfduWwPUvUI56rufOi8YH5auM6YkJRtIdDxlH/nsI5TJQZubsNewZh4sf9+7U53zGIHIVg45ZtvunH71iy7d0Gh88H5yXGHT9A9cVWmheCxEuxef9Um+8+bLWz4mTK8LsZtoza9j5Gh1rluSv0OpAl6ykRE2YsVWNknS+3ZwNPSpOcTqlw89u0NrlOZo1I02zn/FJsjcFt3TH68GVXrkDs5CcOaaKDkkJD+tnc6xu8P2IzfUqNjABgGuyJt9h/vOvl3rqaUnOy1O8beYTz5xF5pPd5vfVKinq3kXmU83aOjVYx2s8WqL2oO6lwGWwTwr021o9fW+U9FGdNm7p2wruir1Tp5puSckP6sFk23hzX8nQzDT7hpeWnrfI6uYpKWKiklMkya+LFyWpXQ0n2iW5lLvQK1fPTN+Ris/26tKl2GbsXC2a2vsao5Inm/te9Ouv1jL3LR6drzmoXZsKtDgrS1NSClQpSbqoT4NaLbg0IzfDaq0gucbfbk40oAwtssWV5Emp5j86Jaldx99skuRX5areLioTkqZZTz7b1X4hsGdgMqCJyk4P1VrbrdwFvefXzROVGqMQr3MIkufKG5jONCJOt1sNS9zZi5QSOFHPeSQFxUHnd+NSyvz7zFbBLT61D+m9m+KXFMobTSTEteFKWKinj9bq1z+Zq1iX1NVSotVZ83tbHA/Alf2wlicECs4gr/93qlXpN4elmR3oQpaUqAn5JWa31PMX9OegswC4Yj31mEe0Ms1Wj4nwaMEPZ0iSGqt+pw5FKjlloiS/Tp82W2s1nqyTYudqTU6c5D+txjZJ3afU0CApLUOp9pbTg6iDODW8XS1JSv7Rqt7fYUkat1APTpekRtWcCK7ZBceeUDr0u9/Um7/b6x6Xvep2OZJzzImDmn9bZ9UxO3TsCJMZIrz1dAGflKbZP6lWR0SUvDuelPfmIZTLqLFyR0hq2avV6w/qRKvZ18P1lQEK3UC5ikHHLNv900NzFWW7f/JkzrTuWyzUP8ISCc1r6Stx8ha+rLeOPqF0l23WsMAN8tgZWrPtSW3v87dIcVaT6KzsfG0rrtb5/3W7ps4r1JrMfjrUxkxWsn0yjYsXzYLpditUmsDOE20/ZqRcQ+jSFTXGcfTRruAk5egM5ea4JP8x1fxBkhpV8bqf7hkYZrbEUkO9hn0o625rpMx/GDNgebqUyNHBiatRPT+6lm5JcsvtPEnEqMEn/1036cv2/zv37fbpUF6a7l+zU+V/8GvspBlavnGhbB3GbEK8FqlvnOjnfWT+izO2mX+LArWL5ld06JSk6bmaGfI8Lt0UVB+K7PuZDVU/3+GXXfYT9XeeEJ+H8/Me7HuXJHmUmuw8IHCVRbgUO+tx/bqmSuunuqTuJu16tnpQwyCkTJoYvGAw138gniYs7LN++7Yntf2fU/W14KMCuFKXqsfEfMe86beSjlHJqYqV1Px/G9ShJtXV+uVOSVZKcqrcalJdQ4d0pkEnJCWnTAyuYzh/E511kFCsl9bnnkJSbKyZLLzoD06H9ok9ffxVn16U+bv9v53rLkPsPHOM9lPHVP2RpI7fqbJBUsJMZTCZIcKVK0rusW7FT/XKu/QJ/frNKq0PJA8HWy5HZ+j/7F+p9GjJ9/pOPZZzp+7KLtDhgeYSGShXMYSY1e/9kxP1j7BEQvN6cLNXXqsVV/t5W97ff5M86RlKn+78i1OUmnTw5xXqkFsL9tbqwI4n9OO8GUqJ7edpR38Vhv+5MPyt1Wy6PnMEqzaffDJfT4D5VNOviqp66dQxVfgl9zyvkkMmDICR1eeaHYrP/I6b/C75L7elYL/8uugcl9p/UZ86Fl2urjd3a9d7klKe0H+UPqefrXtYudMnaqxzwyt2UTd9yxnbzL9Yq/LfUDpSrbVDfIbDIsRxfe+bEwgExbOB37tpVD+JU+AaiIiSN9tqbf3h+cG1Ugh5/Q72+nfr9hDbpE/yDHM8ANAj1H1Bi/U7NnaMeTMfnazUaPMB8enWBtWddyklNU66ZbJSXOY4mr4/1MuvuGF9KNdxoc8rU3Oz+YjafbMjzRAy9oTSrva+h70MUfLOzzAbZtR2qOO3FWqQlD7/vr7JFiBMxC4p1mtHj+rAjie0/kdexX7FucXgyqXrtoXaXv62fl/6nNbkeNTVVq1tP/zJoObjCBmT7EKtd8YsKXQdvd/7J+of4YSE5lXW/tpOHWroCE56+Ot0zJo45CbXl6To23W7S5K/RLsOmV3IA7paSlR2RpIuqP28JEX2tlDq9lnduQbhjgyzq3fDM9p53Fm6h0/NoRKzG70kya8TzxebASY9VT3ze1iTA/kra7TnjWPy0z0Dw86vEy8fMSdwSbhdcZL0j980uzm1nFbPJNTdPh0+ZHahGBKP9STw+Es6aO+K2Vqil4ZtZmq3PDGS1K7Dh6ptM4L6VXOopP/ZzYfozx9ZR3K5erpy+2uPafgm6HQrPtElya/Dv7CG2Qjo8unwa4FBxOtVU+nvZzKgwXJrrNVL5Uxjb2z0176kMuco4MOiXWUvm5MgSFZr1+fNWaDdKclyD/a9A9daW5l2FderI7iyohNv1pv/vMmlL9lXdXcOosXmIK//8RPN+sGpvdpZG1w/8Z8oU02Ists5iCFwAFyC/b7AXu66fTr0gvk71tvaMk4Z092S6lTxyzo1R6Qq9TZJildqmqTaMu152yfFztRUa7KPK5GcliFJanh2h07YQ0LrQe170xyiJyVxqGkGt5LT3GY8enKffAMHsD6ccScyxZwcqLHqFZX8pl5yzVVu+lBfFxAeBl0u23w95Sty3ETlrtuh5eMk+X3yOTKRXd22gjhQrmLQMav/+6eee8OAy6h/4NojoXm1fdygXfnTdNekNM3KytKsrGmakv6oKjsk3TxXCzOjJMVr+cYZipLU/IscTVlQoI2bNmjt8izdnbtVDR9L0nes8fV82vOjfK3dtEGr5+fppY/6aaHpNDpDy1fEK1IdqlyVpik55jHWLs/RlC11zq0vm9tfotnp87V6U5GWZU/TY693SBFx+vEj9hZXcZq7IF7yl+iFV/x0z8DwaDyojZs2aGNRvman2669/zPXfFo+LlXp0ZK6q7U2y7pGc/J0zEx3Dk30XD2cEyWpSXvmpOn+VRu0cdV8TZl3TAqMtTgMUn64UrERkr+yQPdk52utVa62fugettnb3UnJ5udTWaTZq8zP7/tbrCTGMIn/0WZlRpnDbJjxwTzPrLQcbWswx//tqjmsw34pfsG84PFthih1qlnhat+fp1nLi7Rx1Xx9b4tPY4a/yakkt77U+Kj13RTo/vQcs7VrlFdr8szrajDvHbj2/Gr4Rb7umXSnpmRlaVZWlu65O82Ko1HKXTTTjBOBhzktu5WfX6S1+bt1wnkom0Fd/1FerfnnOEkdqlwxzSy3mzZo9YI0TXm0ROd7huXxWGMOV2jt/AJtXFWkw/YZhgEM3ugMrVhl3Rf0lLve37HIhJVak93b1jA2NVUu+VVTWy9lzlSK1SIyOSVD8ler5g+BB3lXLnL6j7UmIVLqqNBj07O0rMiqY83ZqebuSMWveFzey7hviF1g7ffebs1OS9PiVRu0cVOBFs/I16H+Ysml4k5gGK2GfXqhQXJlptPbDDesQZdL317NTrPWb9qgtflLtadVUnSqkq26+LgYs47se3aplhUVadkzdQPnKoYQs1IeCn3/tMH3teAYNdj6B64rJDSvsq/dvUg/nBov9+hOtZ9vV/v5DmlMvNKXPqnXyh9XijXunCtts/59/0qlx7jU+V61ykrLVNMUqdt/8KSWT5LZtWHzc1pwm0uRH9Wr8miDdO8zenLB4KsOnh8U643AOVrrVVlappomKc4zxrnpZbttRbG2Z0oN5RVqaJNct83V9tJiLXA8se2ZHIjuGRgubfUqKy1TWWW9fJ+Nkmfqg/rXoy9rQWDCF8Vp+fNPKvcWl+RvUs3ROnWmPannHgox8PSAIpVSWKLtc+LlivCr+XiZqn1uPbj3eT08jAlNjVuo5/avVPo4l7ra6lV5tE6dkzbr5U0zg8ekuhK3rdRz6zLkcXXJd7xM1R969PiLhb0tqoeDK1U/e7VYP57qkauzSTWlZSqreV+RSQu1/aGJvZMBRWRo4b1XFg0ipz+hA/+cIXdkl9pPVqja59aKZzdr5iCf/QyNS7mbivVwTLtqSqvV/JlLnqkrdeDVJ3pi+8DvHbgORKVq0dIMxY8dpc7z7Wo/364ORSl+6oPaXnpMa1KsR5LRC/WzdRlyR0odDRWq+a/OS3fHGuT178kr1mvb5ir+5lFqP1mhstIyNXR4lFlYqOzAw4iIVD2+Z6E1WVG1yv6zYwjdTAE4uecV6439jyvztlH688kKlZVWyxcRr8zCYr2xd2HvpIWSdFuqmcTsltJTestuZGBywG6rG/qwcCt3b5UOFM5Q/Og/q6GyTGXHP5BumaE1+6t04AeXU28z49H68qPaPideUaP8ajxeprLyerX/g0ee/uYLGCDuBCYHktzKzeE3HTeyQZZLz2Rlxv5VTW+Wqay0TJVNUvy9j+vAoYd7Jh12L9is9VPdiuzuUENltZo6zZrEQLmKQces6MHfPw2q/oHryhcMwzDsC959913deuut9kXAyPNXaHV6kWpGz9W/1jzOE01gKGqLNGFFhZT8hN54zhv+DwSad2vW/H26OOc5vVXIDQEAAAgD7+3WrAX71J7wuN7Yb/UIAgCMGFpo4rrQXLxbNd1S1KyZJDOBoejy6QVrnMb4aZNviMqzORmQW7nZJDMBAEA48KvyhX1ql5TinXZD1McA4HpHC01cQ3Xak39Mvr/UqeY9vxTl1dPltq6ZAIK1HdSyh0rUeUuyvvlVSR9/oOoTjfJ3Sbplpf6t2NElDAAAACOnrURrnzqtjpZqNbR1Sbes1GuHFg7L+KEAgEujhSauqfaGCtU0yxxnrpRkJnBJoz3y/IPkO2GOQ1N2vFH6qjUG736SmQAAAFdXl3zHK9Tw0SjFz3lSbxSTzASAq4UWmgAAAAAAAADCBi00AQAAAAAAAIQNEpoAAAAAAAAAwgYJTQAAAAAAAABhg4QmAAAAAAAAgLBBQhMAAAAAAABA2Ag5y7n/b1/S5sOn9PHfvmxfBeAG8NUvfqqi3ATdFR/jXHVFzp07p5eKD+i//vhH5yoAYe6fvv1tLcpbrK9//evOVVeEuAHcuIgbAIaKuAGEr5Eqv5cSMqFZ+EoTyUzgBvbVL36q/9g027n4imz+2UZNmnSX0jOmOVcBCHM11VU6efL3Klq73rnqihA3gBsXcQPAUBE3gPA1UuX3UkImNJf9+pwkqW5zpn0VgBtAalGlNALle3HeQh0oPuhcDOAGMRJlfCSOCeD6MRJlfCSOCeD6MRJlfCSOCaCvq13WGEMTAAAAAAAAQNggoQkAAAAAAAAgbJDQBAAAAAAAABA2SGgCAAAAAAAACBskNAEAAAAAAACEDRKaAAAAAAAAAMIGCU0AAAAAAAAAYYOEJgAAAAAAAICwQUITAAAAAAAAQNggoQkAAAAAAAAgbJDQDANtz2XIM+4xHXeucKp6TJ5xGdrb6lwBAAAAAAAA3BhIaF5Fx1d+Q55x39CKKucaAAAAAAAAAINBQvOqOa7y0hiNj5XKjw3Y1hIAAAAAAABACCQ0r5aqIyqPnadnV2dLpUcG7j4OAAAAAAAAoA8SmldFm/ZuL9f4nExFT7tP2SpXOd3OAQAAAAAAgCEjoXk1tFaqvDlG2d+NljRV2TlS+fa9anNuJ0mte5U1zhxr0zPuG/J8d69anNtIko5rhX27kJMGmdusqOodv9Ozsncrc7Kh3mNkPed8Rc5z2Mf/bNPe7wav67s/AAAAAAAAMLxIaF4Fbb95RWdj5ylznPn/qTOzpeZXVOmcjbzqMXmmbFLMvj/J12r+1ea8oiVbHCnN1r3KGveAWgrrerbz7ZOWPFgevJ2lZXuGymda2+2cKlkTFKVtGa/9gf3fWidtSbUlJY9rRZ9zZFvr2rT3u6naPP7F3nVvrVNMzxkBAAAAAACAkUFCc8S1qbK0xexuHlg07T5lq0Xlv7G3aLS6pRfW6alpvUuj86u1P8e2maTjT2/S2ZwXdTS/54jStKdVWxg6pXh2/LqgY6p1r3aUStn7npaZ3pQ0bqmeLYzR2S3bzZaerS1qUaBVqWXa09ZxWnS2Wcqe2bO3NG6pnrK/HgAAAAAAAGAEkNAcaVXbtbmnu3mA2e38bGllb7fzoG7pwWJi7YnK4yovdSQTLdHfGu9cJEkaH7R/oMXoOq2yJzl79j+rllZJ42IUoxZtnhKqK7s1W/uDGdrrbGUKAAAAAAAAjCASmiPs+LFySS3aPCV4vMklpZKaN2lHYEzKljM669g3pNaWfsbU7F/Mt4KTpC3NLVLzJqU5xsf0BHVZn6qnWutUFFuuJX3Gz4zW0t/8Sftzet8X42cCAAAAAADgaiChOaLM1pTj7eNQ9vy9qGxJ5ces9o8xtyl0+0qHcTFXPFZlTGyMFLtOtX1e05/ka63WUmusz0Di0tf6J9UWxqj8weDE5dSdvWNrnt2SGjThEAAAAAAAADASSGiOpKojKneOQ9ljqlYVxkilR8wu3VYX7+BxNdUzBmcvq7t3IBFqY7YGHVj0t8aHnpToEgJjeZ5tDtE+NDB+59mW0DO3AwAAAAAAAMOEhOaIMSf5kW12c6fo787TeJWrvEo9Cc6zW1JtXbultuce0OZm206K1tLV2VLpA8HdvKseM7uxD8a01SqKDTE+ZuterQgc0/5vqbe1aWyMOQN6UGtMK+k6PqZ34iMAAAAAAABgBJDQHCmtlSpvVvDs5k7jMpUdK5Vv36s2qxVkoGt3YFzLH+nFvrOXT3u6t5t3YPzLY/fJty87eLt+BcbA7B0f0zPuG/JMOaNs20zlLfbjj3tALYV1vTOrlz5gW5eqzeNflG9n34mKAAAAAAAAgOH0BcMwDPuCd999V8t+fU6SVLc5074KwA0gtahSGoHyvThvoQ4UH3QuBnCDGIkyPhLHBHD9GIkyPhLHBHD9GIkyPhLHBNDX1S5rtNAEAAAAAAAAEDZIaAIAAAAAAAAIGyQ0AQAAAAAAAIQNEpoAAAAAAAAAwgYJTQAAAAAAAABhg4QmAAAAAAAAgLBBQhMAAAAAAABA2CChCQAAAAAAACBskNAEAAAAAAAAEDZIaAIAAAAAAAAIG18wDMOwL3j33XdV+EqTPv7bl+2LAdxAvvrFT/Ufm2Y7F1+RzT/bqEmT7lJ6xjTnKgBhrqa6SidP/l5Fa9c7V10R4gZw4yJuABgq4gYQvkaq/F5KyISm/29f0ubDp0hqAjegr37xUxXlJuiu+Bjnqity7tw5vVR8QP/1xz86VwEIc//07W9rUd5iff3rX3euuiLEDeDGRdwAMFTEDSB8jVT5vZSQCc1bb73VvggAAAAAAAAArguMoQkAAAAAAAAgbJDQBAAAAAAAABA2SGgCAAAAAAAACBskNAEAAAAAAACEDRKaAAAAAAAAAMIGCU0AAAAAAAAAYYOEJgAAAAAAAICwQUITAAAAAAAAQNggoQkAAAAAAAAgbJDQBAAAAAAAABA2SGgCAAAAAAAACBskNAEAAAAAAACEDRKaAAAAAAAAAMIGCU0AAAAAAAAAYYOEJgAAAAAAAICwQUITAAAAAAAAQNggoQkAAAAAAAAgbJDQBAAAAAAAABA2SGgCAAAAAAAACBskNAEAAAAAAACEDRKaAAAAAAAAAMIGCU0AAAAAAAAAYYOEJgAAAAAAAICw8f8BN89Yb8eXZ6AAAAAASUVORK5CYII=;" vertex="1" parent="1">
          <mxGeometry x="21" y="-17" width="495" height="37.16" as="geometry" />
        </mxCell>
        <mxCell id="8eMQXXNVM8QZM0LBL5MA-20" value="" style="shape=image;verticalLabelPosition=bottom;labelBackgroundColor=default;verticalAlign=top;aspect=fixed;imageAspect=0;image=data:image/png,iVBORw0KGgoAAAANSUhEUgAAAM8AAAA8CAYAAADBh+7oAAAAAXNSR0IArs4c6QAAAARnQU1BAACxjwv8YQUAAAAJcEhZcwAAEnQAABJ0Ad5mH3gAAAhNSURBVHhe7d1/TBvnHcfxdzwwIzH55VnEadV4IFymJfUiGqmongip4jGV/pGgKJaKkgotWSYhIRqhVXRKAG1UE2omS0zq8gfrUKaB0BJtaVXLdEnY3BitcjN31UrIoG7XxrE8CAlOHX6U7I8zcD5CEy6Ohsn3Jd0ffp6vcwfnzz33POckq+7cuXMHIcSSGbQNQoj7I+ERQicJjxA6SXiE0EnCI4ROEh4hdJLwCKGThEcInSQ8Qugk4RFCJwmPEDpJeITQScIjhE6r0vWt6uHoOE1dHzIcHdd2if+zgvw8mtxPUZCfp+0SDyBtI09T14cMSXCWpaHkhU2kV9rCMxwdZ5W2USwLq5LnR6RX2sIjxKNGwiOEThIeIXSS8Aihk4RHCJ0kPELoJOERQicJjxA6SXiE0EnCI4ROEp6H6dkdeFsr8B/bgVvbt6IN0dzopcYX03YsMwuPM9Dpxfl6iEhK3d1lbHjspQ46fvoc535egb81ubU8R8ceq7ZUpF2Mrte9OBs1231+6FaKjAxPaZWTN16wYl+XjZEZJidnmJwGsrLZbM7Rlos0ivjO42wM4ttWMn/Raq3A31rEbm3xCpeB4Snk4DYTRiAevkLNz3zsavKx65iXmrNRwgltvUibUD/7LkBtXQUdLoums5DjRx08SuN+BoYnF5MRYIrLHw8xqOoZDFziyO/DqhaRPkM0d49h37kVd76279GUtr9J6mz0apseEhueY8WUfBMmYxFe6wzRO6KtmWWh9qUnqSwwYcoCZmaI37jOW76PaA8pQ5S91MHLzm8pt4DJS0n8+ghvnX2f9gFU+5si+M4V4k8XU2YxEA56qf4jYLZS+0Lh/D4AphP0nenj1dU78D5vxnR7hPY/3cJV+Tj2NcpO4tEIJ0+FOL3osaefv7VC23T/Qv04u6Gt9RlKtX0LDNHceIVPd5akjlDREDWeyPwFz2ylJ2W0Ut7XO/caKC7Cf6Bw7mWg00sDRfgdMZzdY8D6xY8p1J+smbd7fwXHHbOvFh5noNNLQ0x7XHeXgSNPmM5/xpkEjBYrx+uf49SLRew2a+ssvFK/HbfdhDERJxyNE77xFaYNZtxV26lN1u99xsrWdTASU2oit1Fq9pRQqfkTzU8XUWZR/crMNjyHHbjtSnDi1+OEowniGDCtVr3RsJaXqp7ANv0l4etTAJjyrRzeY1MVLW+B0BiYc9F9xKF+nJ4IW/bPzpFKqCXCPtUiQ8T3Gcz1V+Cvs2IfuLJw1S72GTUhS7JukeAQo+tdaFPNy3p25tDbfZ6uqLZWnwwMDwTP+DlyNkL4NmDIxvbdQo7XleH54fxVrqTqSSotBuLDA7z4mp9qj5/qtoucjgBZaylzKekJD4Rp/tVf2OdRavb9OqKczLy1lG2f3ydkY9swTd/ZizgblVGn8vlvU5IHTN7kdKeXijY/1Z4+Ko6dp+491VuN2Yx/HGTXL5VjaB+eDZCFvaqylStG17tjUFykuupbcFdbsY9EOBlSWqyuclU/kO/gUDEMXrupagRGcjmkGo3uzoL7aGqwrK4n2M0El6+pGh9ARoYHYDAQorrlIifeHyMyCWTlUvL97ZyqUgK0+3ETAKaCYnrmrj5l7E2OxXlrlH8Mo+vvN7Dt2kFHXRneJhfn6q3J4dqAUT16AKPDQ7wamD2RVsoeU1b2BoOXODGQUqoRJ/iH2atngq7wLSYBvgHG1MKVKXoV30gOtT/QfODzTWwBPo2qR5bUZfCGASAWT10CX8oIGA1RM7ecrtwSpu5Pv4wNj+Imp8/0s68pSNcXU4AB27ZCDjL/k43+J0LvpYWb7/K4ctt1xMHB7Wbs6wz89/pNgqExRjV7UUzxydDnqtc5GLOV9vHReyzx3Z4gZRkj8ZUSngxi25QDI4nUn+N+XUswyATtHu2zodT5TaDTu2AZvK1YVTDLYrrnfGT2AajTM4qr7uEsp2d4eGbFaP/HTeIAxqzUX2xihOae0ILtxN9GKHFtoWQNcCNKQ8t5qj39NPTE0dwkzJvRNgBkk7de27byWB0bsTOGL3mLtSSbcrGTQ+3chzh163BZINRPw4BSs3AZfOkCnVfoNVvpaS1/aKuDGRierbxR58BdkKtqy8X9nbWYSK6oAcGRCQA2Fth4RX31Mlt5+YCDvUDRmuTy2PTM3BW1tGo9m1XliwvzwTUlTfbv7eDgY9r+FSY5/+jt7ieg7buXfBNbmMAXWurt0hC+r70dXqJQLHUl7wFlYHiUlaraH5Xhb3FxrsnFuZYyaguyARj991Xagd63PyF4C8gyUVnt4s/1Tk7VleGtd7DXZsQIdH2RUG6fzFZ+2+DkVH05v3BoJjpf43d/vUp4Glhj5tBPXHgbkvtoKcfzrLY685UeKKHWPEZD411WrKIhahb9ek4hh3fmMHghSHPKyBWjqzP5nk252DUBC3Rqlq2XQLnNHKVv7jiV51TplIHhGeOD4Tijt2cgy4DRaMBomCF+I07gvRA/fjM5hoyEqXvzX/RGp5jEwEaLCVt+LsZEnEDwc/oA3rnEyYEE8RkwbTBhWz1F39tRrmr2uKiBj6j+zfw+TBuS+5iYIPKltnglsOA+WoF/f+7C+YsnAts2LzoXsbrK8e9fT2+3+n1BLjuSz1PyHXTsX8/gheBcv8+xyJznPlhd5bQVq+dZMVxpnvNk4ENSodcDPSQVC2TgyCPE8iDhEUInCY8QOkl4hNBJwiOEThIeIXSS8Aihk4RHCJ0kPELoJOERQqe0hacgP4+0fM9HpN2d5PkR6ZW28DS5n6JQTtCyVJj8r+RFeqXti6FCPGrSNvII8aiR8Aihk4RHCJ0kPELoJOERQqf/AReUFr2279UKAAAAAElFTkSuQmCC;" vertex="1" parent="1">
          <mxGeometry x="533" y="-15.420000000000002" width="102.92" height="29.84" as="geometry" />
        </mxCell>
        <mxCell id="8eMQXXNVM8QZM0LBL5MA-21" value="" style="shape=image;verticalLabelPosition=bottom;labelBackgroundColor=default;verticalAlign=top;aspect=fixed;imageAspect=0;image=data:image/png,iVBORw0KGgoAAAANSUhEUgAAAj0AAABTCAYAAAB08LYCAAAAAXNSR0IArs4c6QAAAARnQU1BAACxjwv8YQUAAAAJcEhZcwAAEnQAABJ0Ad5mH3gAAA3lSURBVHhe7d1/TNR3nsfxZ4+E9kjGmIx7Jo5eSmJl2lhaoLgakOqgG1Cis8RqsSix214rWn+7KshRzwparLZVae0vl8qdVXdZNQgTldGwknrl/LHUtI41wUSHxNtOtuk3aa4khPtjBpn5Qv2FwDLf1yOZZOb7/nxnhj/45PX9/PjOI52dnZ2EXL58mfHjx3e9FBEREYka/2Q+ICIiIhKNFHpERETEEhR6RERExBIUekRERMQSFHqkV00lSaQkJ1HcaK7cXV/OFRER6S8KPQOtw6DlcBGLcjKYlBwMBykTM5hTeBCfua2ISJ+cpTg5iZTkIprMJYDGomAflLcff+hQ10VL+GOSK5fX32kg0NF9qr8qr0e7lNQM5hTuwHujvbthRNsMik8bEbVQC6rzdLEk/U+hZyB1tFL96jQWldfT0vYzj45y4BjlwIZB67m/8r25vYjIYLHZcYxy4Bhl51Gjleb/XMNvCvbTGhZ8AIi1hdo5sMcZtJ7bz9rcAqqvm9oBYOAp20HTT+bjIgNDoWcAtXv3sPNSO9iyqfD+N2dqazlWW8uZpkb2vfykubmIyKBJeLmKY7W1HKs9xRnvLrLswDc7qPRGjuIwvSzUrpYT3hpWPgV0XGHnp2cj2wE2mw0CR9i0u8VcEhkQCj0D6G9toQHktExcw8MKMTYSly4gLeyQiMg/DFs6r+TFA9B88Yq52i0mnrn5mcHn11pvT5l1MZ7LxG2HwBflfNrrSJBI/1LoGUCO+GCnwclP+PSa6WrJ7FYDOwtzmZIanOeekl3AtpN+bp/VYdByeBOvz+1eGzTJVcC204Hu97ixn/mh+frWW/UUz/51xNx++43QZ0wMW1v0gfkKrJ3Ww2uY83zoM2avofrr3ubkexc4vZX5XeeGfz/fHmYlJ5GSWkSTabjc90EOKclJLDoc9reIyKCKjXkUAMP40VyKYPwU6h9GjeBX5mJcJiuKsrFxhcqN3euIRAaKQs9AyljCumdjoeMKlXMnM2v1HppMC/4AuL6f+TlrqL4AqbPduHOzcdLCoXU5LKsJBYG2I2wtr6NtRDozct24syZgM1o4tHoe2y6Z3/BbPllRhCfss4zGTeTkrqH6XCs/j5xAVq6brOQRfP9DZIfW+lEB83f7iZ+eTerIUFBaWn5Pc/LG0TX8ZsNZhqW5cT1lo/2H4PcrbjQgIZOsMUBHPXURKyyv0HDcDySSnWEPL4jIIGoLjVQnOEMXb71pb+Hzqq8AcGVlEmuuA7apG1g/NThVtrmrPxMZIAo9A8rB3I9PsW95OvaYdvynP2HZ7MnMKQ/fFeGnesMOfHHZVJysoWJjKSUby/jwD+tJBJo/+yK4yysulfVH/8KxyjJKNpZSUraXvYvjgQD1J0yjNdfqaf7XUo6du8j5C2WkdbRQufkIgQ4bqRtq+PLoXrZsLGVLZQ1nNqRHnOoz0vmD9wAVG8v48NB2smyAUY/3YkSzXjVdG8W+xlo+LCulorqRPy53AgE8HxzBj5N5+YkAeE6Gzf1/04CnDZi+EPfI7sMiMkjaDVqPraH4sAExE5g7zRFZP1nErJwcZuXkMCWjgOobscS/tJd/n95b5AGwkfX7UlJjoLm8HM+9DxyL9JlCz0CLsZFYsIsTJw9Q8oITW0xw+uj2rog2L3W+YLBYG5oWSklOIiV7Ky0Abf7gLi+7EyeXOPTBJooLc5mVncGc3a3Q2/BzRyKvrHLj6OqDvq6jPgA8u4QtL9zhqg1ImOsmISb0wjaZyc8Fn/6feQdHL1ILCkgM6/fiX1iIC8D3LdcB+8yFuGKAxrM0h96vpfYgfmzMndP7VaKI9INhNh4zHfK9F5xmTpmYwZw3GwjE2HG/s73nxUi7gb/Nj7/Nj9FuJ2tbHX9cPQGbqVmEkW5KVjiho4Gt5Q0o98hAUegZLMOduDcc4ExtKS5b2K6IrjAxKpt127ZT0eOxECdgNBaRM/s1tlU10PbPzzD1xQ2syzJdgXUZO5nU8I7qxx+DnYzDwd0mkOLHhL9nLLa4sJd3YR9hevc4W2SQictkbq4NjDq8FwBaqD9ugG0GruTwhiLSN+0YvU1Jd/U3/zKiZ18Q2rKeONWN+9VS/uvkKUoyeokyM3dx/sJFvqwpxWUP4FkXmsK+C8eLZRQmgOEp592mxxgxytxC5OFT6BlsI924M4JP/W1/6z5uDCPelYlruvnhxM4V9r9dTwAH+R83su+dUlYWZJOW0EuHBBDzaO+jJv/7Pf05o97+k2m90o1WWgl+ny6pufNwYFB/6iu4VEe9AY4X3aR2jS6JSB+MwDEKoIG//I+5Bs3nglPLjpEjzKXbW9b3vVNKyWI3CeE7TnsR+7ibiop52AngKSnHe7fcExPP70pewUGAI29+zF+7uwWRfqPQM4D8x3ZQ3Rzo3oEFYJyl7lzw6TDbYzDmGZ6xAcZBdlYHp6u6tF87yJGvAb7H3wYQy7CunNPRyumTd9hKGu65zOC0UvNudvR6d9SHw1t9MOxGZgZNH1UF1yO50kntOhxa0Gx4vFSeqMMgkfxcZ1dVRPrESWpasJPwbC7C+0N3xbi0h501BuAga/pD+p97dhWluXYw6vmPe5m2emoJb71oh8BBDnnMRZGHT6FnIP29mZ2vTWPSxIzQwr9pTHG9gScAjJzHgiw7kEjh5mzsgO+9XKbkr2HzW5soLszh+blbaf47wJOkpgG0Urn4NYrf2sTavAI+v/ULIz1mcZkUrkgklgCe1RlMyQ2+R3FhLlPKe95Q7EE5jIPMceWx9q0iXp89jWXHAxDjZOXS8PU6oQXNxkE+/cKAZ2eQaV4zICIPLHVpWfDGgoF61rqSmJKdwyzXr5ny8if4OsCeu54FCeazHlQsactX44oBw7OJrfdwUZW49E3cPebWRPqHQs8A+tXzC/nd1EQccT+HFv4FYEQirle3c+zoetJC62VsGWX86bNVuMba+PmbBo7UHMF7JZZnXtpO4UQAO+6yveQ/bSP21ld4apth5m625//Cmp5exL9UxYmuz7j+FZ6aI3ivgDO+5zD3g3p6RRUVWdB8tJ7mG2B7eh4VNVXkj4lsd3tBM+DK+23PtQUi8uBs6Ww5XMW6mYnYbWDc8uP/AWxjJ5C/rZbajel3XnR8v2zZrN8w4d5/ciIuPXTvHpH+90hnZ2dn14vLly8zfvz4yBYi/c2oZ62rCG/cPD70rtd6HhER6Rca6ZFB56vag7cD7LNmKPCIiEi/UeiRQXKWyteKWJufwfzP/GB3U7o4eLNCERGR/qDQI4PG31yP1wfxU1exr6b09pomERGR/qA1PSIiImIJGukRERERS1DoEREREUtQ6BERERFLUOgRERERS1DoEREREUvosXtr+PDhfF61j++uXo1sKSJD3hPjxrGwYBGjR482l/rk5s2b6jdEolR/9RuDoUfoOXb0z0ycOAlX5rTIliIy5HkbTnHu3JcUFZeYS31StmWz+g2RKNVf/cZg6DG99d3Vq+q4RKKUK3Nav4zGqN8QiV791W8Mhh6hR0RERCQaKfSIiIiIJSj0iIiIiCUo9IiIiIglKPSIiIiIJSj0iIiIiCUo9IiIiIglKPSIiIiIJSj0iIiIiCUo9IiIiIglKPSIiIiIJSj0DKKmkiRS8vbjNxdCmkqSSCk5e/u1vyqPlOSkHo/ixvCz/FTn9WyTkpxH9Y3wdkBjUbB2t+9wh7qIiMhQodAz5GTz/oWLnO96vJuNZ0US86tMsWTmru42Fy5ybDnsnG0OSCG+Haw1ny8iIhJlFHqGuowy3p8JPo/3jqMxjoLtrEwAz8nukaMgJ1kznfjeW9NzJEhERCSKKPREgbTp2eD7luvmQgQH8WPNx4Ke/LclZHGFnR+ZA5GIiEj0UOixDD+t1yBhbLy5AKSz5d1sOP5G79NfIiIiUUChJwo0nayHhCd53FwI01SSw05fNksKHOZSUGiazLOiiCZzTUREJAoo9Axx/qo8lh13svLtBUTEmeNvROzeqpt+kfMXykgLb2OStnkXWdSzLGzHmIiISLRQ6Bly6lkWFmZmvRfP+xcOkD/G1Oz27q3a4ALmexrBSadwuROO79GiZhERiToKPUOOacv6XUZvwEH+gXsfwQnu8rrCzt/r3jwiIhJdFHoG0eNjnXfYdXWnhcf3635GcBzkv72KBN27R0REooxCzyByuGaQQD11ve2YuuGlzudkhusXFh7fp/sawRmzgIrlwXv37LlmLoqIiAxNCj2DacwClswEzwrzT0ScpXj2Dnwzl/Rcq/PAHOQvzgbfDip7C1kmXSHJ5zNXREREhiaFnkGWtrn7JyK6d1u9Ae9e5PzmdHPzvslYch+LmkMhSUREJEo80tnZ2dn14vLly7xTsY19VfsjW4lI1FhUsOCh/4/3x3uKyD+OaPkf10iPiIiIWIJCj4iIiFiCQo+IiIhYgkKPiIiIWIJCj4iIiFiCQo+IiIhYgkKPiIiIWIJCj4iIiFiCQo+IiIhYgkKPiIiIWEKP0PPEuHF4G06ZD4tIFPA2nOKJcePMh/tM/YZI9OqvfmMw9PjtreHDh/N51T6+u3o1sqWIDHlPjBvHwoJFjB492lzqk5s3b6rfEIlS/dVvDIYeoWf8+PGRLURERESiQI/pLREREZFopNAjIiIilqDQIyIiIpag0CMiIiKWoNAjIiIilqDQIyIiIpag0CMiIiKWoNAjIiIilqDQIyIiIpag0CMiIiKWoNAjIiIilqDQIyIiIpag0CMiIiKW8P8x8Z5UBKXZegAAAABJRU5ErkJggg==;" vertex="1" parent="1">
          <mxGeometry x="21" y="35" width="227.8" height="33" as="geometry" />
        </mxCell>
        <mxCell id="8eMQXXNVM8QZM0LBL5MA-22" value="" style="shape=image;verticalLabelPosition=bottom;labelBackgroundColor=default;verticalAlign=top;aspect=fixed;imageAspect=0;image=data:image/png,iVBORw0KGgoAAAANSUhEUgAAAQkAAABQCAYAAAAKnoDvAAAAAXNSR0IArs4c6QAAAARnQU1BAACxjwv8YQUAAAAJcEhZcwAAEnQAABJ0Ad5mH3gAAAxnSURBVHhe7d1/bNN3fsfx5w2J2yG5QgoTUk2ks0SxmWgaO01HlZCCAyfnx0Iuo0ByAY9td1xDCSGF9ppcVDEKhUFJKQS27npcSNQcVMcRlNhWAVN5icYalZbQXW2K6upSR+uO6E5YOg3U6Ls/vnb89dfONwnQOND3Q/pK9vfz+f6wle/Lnx9f+H5HURSFND755BOWLFmiXy2E+Jb5C/0KIYTQkpAQQhiSkBBCGJKQEEIYkpAQQhiSkBAT6m+xk+ew0xzQl0zsXrYVM4OERCaNRhl8t4lN5UU87VAvprylRaypO0VIX1eIDJGQyJTRMJ0/Xsmm17wMDt/mu4+aMT9qxkSU8OWr3NTXFyJDJCQy5I6/jdaP74CphAP+/+L9nh7O9fTwfn+AE/+wWF9diIyRkMiQPwxH1BcFxTjnagpmmch5fgMFmlVCZJKERIaYLRb1xflf8PaNO/riZF9dpLWuiuX56rjF8hI3+89HGNtqNMrgu7v46drE2MbTTjf7L40k9jHUQY3DTl51B+GvvDSv/hvyHE30x4rvDMWOsVQzNnJ8MLG9WovwuztY80zsGKt30HktqqszvpFL+6iJb6s9v1AbFQ47eflN9I8mbxM6Xk6ew86mdzWfRUwrCYlMKdrCS7mzYTTIsbXLqHihjf6hNGHxRQc15TvovAL5qyuprCrBxiCnXyqn/kzswhk+y77XPAzPK6S0qpJK11OYooOcfmEd+z/W7/BTftHQhE9zrGhgF+VVO+i8HOb2/KdwVVXicszj5p9uJW0ZfstNzdEIllUl5M+PBcvzr9H/56RqaUW7d/CDl/t4pKAS51+buPMn9fyaA1GwFuPKBka9eOKpBUCQi70RIIeSoixtgZhOyjiuXbumXyXut69vKVd/9byy6slcxWHPVRz2p5S/23tBufl1vMKXSsf6XMVR9LJy8ZZmu//5tfL39lzFUXZUCSqKotz8VLn6+9uaCory+ds/VBz2XOWZ/VfVFb8/qVTbcxXHk7nKqhd/q3wZr/71VWXfylzFYV+mbD79uXYXY/p+Hju/iqNKMH5uty4oTUXq+n/u022gkdj2deWq5hQ//9V6df36k8qXiqLcPL1Rff/z/0hU+u+jyt/acxXHixeU5E8nppO0JDJplokc9xHeO99Fy7M2TLPU5vwP3B2ER4FhP54QEPWyM9ZMz3PYySvZxyDAcESdBcmyYeNjTh/fRXNdFRUlRaw5GgYgGk1uDTCawz81VmKeHXt/zYN3BMjdwp5nY12gcVjXVmKdFXtjWsayJ9WX/6frIqST73aTEz8mYHl2I06A0Kd8AWSVbcQ5Cwj0MRDb32DPKSKYWLumGM2mYppJSMwEc21UvtzF+z2v4DQBvzvEMf8diF98j5bw0v6DHEhZNmIDooEmyldvZn/7RYa/9wQr1r/MSy6z7iAxC5eRP1/z/tYtogBmMxM16C3Z2n3OxjRH83YCWfN0e59jSr7w5xSztsoEUQ/+KwCDeHujYCrF6dBWFNNNQmImmV9JZZH6MjL8h8T66CNYnMU4V+kXG1kE6fgXLyOYqf33ACdef4Xt7hIKrKbE9lqzvpv+V/l/b/JNDg3e+bNuvGUoTBj1fOLyq9ZhJor3wgfwsQdvFMzrK8mPt15ERkhIZEjk3CE6B0YSMxQA0T48l9WXj5j+ErKf4AkTED1Fa6fafYi7c+MUZ68B3CQyDDCbR+K5MBrm0vlgUv1xPVmsNvMHjnLo0uRnKqbK33lK7UIBEKX/rXb1rlJnIfnx1bEBzKjPz7H3PETJobbKFi8VGSIhkSl/HKB180qeXlpERXk5FeUrWe7cim8EmL+ODa4sIIe63SVkAaHDVSyv3cHuV3fRXFfOM2v3MfBHgMXkFwCEOfbcZppf3cXOajcnvxqnJaE3p5i6hhxmM4LvhSKWV6n7aK6rYvlrffrad80cPcUaZzU7X23ip6tXUt87ArNsbH9eO95gY11tDkRP8favo5BbSrG2ayQyQkIiQ/7qmY3844oczHNuExmOEBkegXk5OH98kHPdP6Mg1t83Fe3lN79sxLnQxO3fXeTsmbP4g7N54kcHqVsKkEXl3n+j9nETs7/6AF/PAJQd5WDtOGMSaVh+1M578WN88QG+M2fxB8Fmmaevetceb2jngAsGur0MDIHp8XUcONNObXZyvbEBTMBZ/cMJx0nEN+87ivwfl2ImiXrZ6WzCP2cd/+r/mYxHzADSkhAzSqi9Df8oZFWUSkDMEBISYgbo49jmJnbWFlHzywhkVfLKczn6SiJDJCTEjBAZ8OIPgWVFIyfOvDI2JiMyT8YkhBCGpCUhhDAkISGEMCQhIYQwJCEhhDAkISGEMGQ4uzF37lxOtp/gs+vX9cVCiAfcY4sWsdG9iQULFuiLkhiGxLnu37J06dM4i1fqi4UQDzj/xQtcvvyfNDW36IuSGHY3Prt+XQJCiIeUs3jlpHoJhiEhhBASEkIIQxISQghDEhJCCEMSEkIIQxISQghDEhJCCEMSEkIIQxISQghDEhJCCEMSEg+zoQ5qHHaaA/qCuzTUQY2jms4hfcE3YDqPJQxJSMQFmtQndld3ENGX6UTaq8lz2Klpn6jmg6aP5viTy7VLy/17kpd48EhI6IUOcczwl7ePY4cn+ZzNB0h/i508x1Z44yM+vKJZuhux6iuLbxUJiSQ2rFbwnTf45Qx48MXqPSwi7dXU95bw5pWP2BN7qvmY7A28s7tQt1J8m0hI6JS6SqC3bZy+cITO416s20qxhPRlD6ihDnYeDuJ6Yy8F+jIhJCTScJbiIojHn2a8IdBGa8hGqdOiL0nfn0/qy6vlzYHEmIa66AbnAk2p6xhnEDI+jqJZpjpIGfF7CFkbqdO3ICagdk/iSxP9+gop30e6OvrvYvx6MLVxI3H/SEikKKRum43Q4baUP9b+814o25LyJGyASHtbcn++uxFr79aUwU1fg52dHByr92ZZkNbVBhfGuCJ0Hoc3NeMH57bZ8DWkCZhxRbjkC8JCC5N/BnmQ1tV2PKvix+1hu9VLvfbCHeqgxrGV8LYezef0Uq8LgP4WOxWHYXt34jO8WaapoBVoIq/Bi3VbDx92bZjC+Yp7JSGRhtm9BRde2rQX+FAHbb3gWpW+f252dyX357M3sKUMQjfCmpVA2RHecSf+xAt+0ogVL54ptgDATG1XchdBPe8gn+oOeb9Zt/VoPquZ2udKIOThUiyc+t86RMjayAHt59x9JPk7DTRR32tje3dXUugW7E7T7dEEhPa7E9NDQiKtQkrLIOTzj/06Tq5ZHqGzOtF0ru8FboSTmsYpIZNtwQKEw3fZgI51Q9RjbsV3L/uaFBulTt2FalmMdSyc+vD0gus5/a+9hcXWRGj2n/eCtZQVaVplScId1EhAZJSExDgKftKIdWw6VJ32TP3DT1D76OV4XNomtr7W/RTr86/2UDrWXD+CS1/NkBnLwtQguydDYcKxblXyWEM5rWODvRHCN5hENydIa0Nqq0RMLwmJ8WQ7KY1Nh0ba2/BRQul4rYixpvNH9/5rZ1k8qfsS+lu24rM2cu5KcnN9qgpWJXcV7lmsZeTS328RX3YXJsJpQja2dx/BFTpEhQxWZoyExLhife3eNnb6gli3bUntKxtSm913J3VcIeL3MOGsa8CDT79uIkVb2G4N0vri/boI1W6F4b0mwPcX2qDXM4kB20L2XJGgyCQJCSOxCygUStMP14r1ybXTpv0t6vjAlMVbMA2amYDYvQxa319o07UA+mhu8CbVmRwztV2xizDd9GOgaYq3ZcfDNXVmp78lsX+z+6A6K5Iy45HmHChkT7fa/ZOgmH4SEobMrHDZxp32HJO9gXfeKCF0uHysD+5ZdbdjErGLFi/18f78i3BAd3u02d0Vmz6N9/k9lE55TCKukD1XPuLctnDimPGlwZs62DqRor182N0Imu8jz2GnbaG2NWamtis+NZqoU09p+hZb9gbeiQdFuvtIxDfG8Alerx/Yz4n2Dn2REOIhscm9YcJrXFoSQghDEhJCCEMSEkIIQxISQghDEhJCCEMSEkIIQxISQghDEhJCCEMSEkIIQxISQghDhiHx2KJF+C9e0K8WQjwE/Bcv8NiiRfrVKQz/7cbcuXM52X6Cz65f1xcLIR5wjy1axEb3JhYsWKAvSmIYEkuWLNGvFkJ8yxh2N4QQQkJCCGFIQkIIYUhCQghhSEJCCGFIQkIIYUhCQghhSEJCCGFIQkIIYej/AaINMWslccWeAAAAAElFTkSuQmCC;" vertex="1" parent="1">
          <mxGeometry x="21" y="83" width="135.8" height="41" as="geometry" />
        </mxCell>
        <mxCell id="8eMQXXNVM8QZM0LBL5MA-23" value="&lt;font style=&quot;color: light-dark(rgb(0, 0, 0), rgb(0, 0, 0));&quot;&gt;Yes&lt;/font&gt;" style="dashed=0;labelPosition=right;align=left;shape=mxgraph.gmdl.checkbox;strokeColor=#666666;fillColor=none;strokeWidth=2;aspect=fixed;sketch=0;html=1;" vertex="1" parent="1">
          <mxGeometry x="171" y="100" width="16" height="16" as="geometry" />
        </mxCell>
        <mxCell id="8eMQXXNVM8QZM0LBL5MA-24" value="&lt;font style=&quot;color: light-dark(rgb(0, 0, 0), rgb(0, 0, 0));&quot;&gt;No&lt;/font&gt;" style="dashed=0;labelPosition=right;align=left;shape=mxgraph.gmdl.checkbox;strokeColor=#666666;fillColor=none;strokeWidth=2;aspect=fixed;sketch=0;html=1;" vertex="1" parent="1">
          <mxGeometry x="224" y="100" width="16" height="16" as="geometry" />
        </mxCell>
        <mxCell id="8eMQXXNVM8QZM0LBL5MA-25" value="" style="shape=image;verticalLabelPosition=bottom;labelBackgroundColor=default;verticalAlign=top;aspect=fixed;imageAspect=0;image=data:image/png,iVBORw0KGgoAAAANSUhEUgAAAkEAAABNCAYAAAChWbD/AAAAAXNSR0IArs4c6QAAAARnQU1BAACxjwv8YQUAAAAJcEhZcwAAEnQAABJ0Ad5mH3gAAA6tSURBVHhe7d1/TNR3nsfxZ8+E3pmMMcGLiaNJJ2mF7llkhtJq0KkdtAHllKX+gqJz7K5ri9X6A2sd6lnPqvVsdduqXbWtRUhd7Z0FDoFUwR4LWVuu3YpeC9Z0TGHIeZW0cTbNSkq+98cMMHwP0eXHMjKvRzLJzOfz+X7nyx/zyWs+n/d3uMcwDINeXLp0iSlTppibRUREREaEvzE3iIiIiEQChSARERGJSApBIiIiEpEUguS26rbYSXDYya8x99zeQI4VkTDWXEiWw05CZiE+c5/IXUIhaDh1+Gn4wENOmpPpjkBYSJjmZGHuCZrMY0VE7oiPoszgfNLHI6tguKJLLfkOOwmOTIqazW09H9NdaeRsOEDxl2209zyJyKBQCBouHV6KVswmZ1cFDa03uXeCFesEKxb8eM9f4Lp5vIjIHYoaF5hPrBOsWMdbAo2jLER3tk2wMm60+ajwYBnffY33/uij4dzbbM+ezWO/KMSrJCSDTCFomLRXH2DfF+1gSWVP9Sd8XFZGaVkZH9fVcPQXD5qHi4jcISuL3wzMJ6VlZZQeXkEMwP0rONrZVlbGG4us5gPDQCy/Otx9jR+f/4SPDq0nKRrav9hLzktV+M2HiAyAQtAw+a41uBSdlIxrbEjHKAtxzy4jKaRJRCQyRRGduIw3jqwiBvBX7qNQtQIyiBSChonVZgs8OfM271y5zRrvtSr25WYwKzGwTz4r1c3uM77uPfIOPw0fbOPpxd21RdNdbnafa+s+R0gRo/daBfkLHiXB4aEu2N3eHHyPaSG1SW81dB8fGIX3gzwWPhZ8jwV5FF288+9lbedeIavz2NDrazrAfIedhEQPdR09j2l6K40Eh52cD0L+FhEZsPbmKg5ucPNE8DOZkOhk4YZCGkI/0j80cHKLu8e8kPNuY8gAk6uFZCXaSUiczfaaO58bbuu+5Sx/HMBHdZ3X3CvSbwpBw8W5ik3xUdDRyMHFM5m/4QB1zb2EoauFZKXlUfQ5JC5IJz0jlVgaOLkpjTWngsGgtZhXdpXTOm4GczPSSU95BIu/gZMblrD7C/MJv+LttR4qQ97LX7ONtIw8is57uTn+EVIy0klxjOP6Dzd6HOk97CZrvw/bnFQSxweD07O7qPuxx7Be+UvyeGJzLWOS0nH9zEL7D4Hry6/xQ0wyKZOAjgrKO1MZAI1UnfYBcaQ6o0M7RGSA6g/n8c5/tTN1TjrpGem4bDfxnttLTl4xbQAdDexe5Gb36QaipqaSnpFOimMMjd5bVCz6a8lfsZemjmhSXvuQLc5gLdKgiCLmHwJfHL3e4SrolhHJuIWLFy+am2Sw/XTDuPDes8ach+MNhz3ecNgfMZ7ceda4/lPngBajcGm84XBuNqpuhBz3P78z/skebzjm7TcaDcMwrn9lXPj2ZsgAw/jmnZ8bDnu88djuC4GGb48ZmfZ4w/FwvDHn+Q+Nls7hP10wXpkdbzjsM42VJ78JPUWX2heD1zd/v9HYeW03zhoeZ6D9X2pNB4ToPvY140LIJX7z3tJA+9JjRothGNdPLg+8fvH33YP+e7/xj/Z4w/H8WaPnXycid6zzsx/8rHVqabhg3OiaawzD+Oms4bHHGw77r40Pr4cct+iIEToz3Pg+OBmFnvenb4zCpwKf9cz3ep9Huv0++D5LjcJv+2rrqaVzzgidI0QGSCtBw2mUhTj3m3x05jhbFsViGRXYbnrCXYi3A2itprwJ8FewsXPJ2mEnIfUVGgBafYG7yKJjieULTr61jfzcDOanOlm4P7Bk7Pf3XM2hI45frU/HGhV8fbGcijYgfhU7FgW36G4hZnE6MaOCLywzmflw4OmfTVtYvUl0u4nrfE/Atmg5LoCmr7gKRM9bjmsUUFNLffB8DWUn8GFh8cJkQg4VkUFg/ZmN1upC9r2cR05aGrOS8qgE4AZ/+hGInoB1FHDlCBu3FFJ3NbB6bBlrXuG5wbldK9j3JUTPe5ND7r7nkf76kz+wvWaxjDF3ifSbQlA4GBtL+ubjfFy2FZcF+HIvB6vboTNcTEhl0+5X2fP/HsuJBfw1HtIWrGR3QRWtfzeVx5duZlPKLe78uH8mieNDXt+4EbjbwmrldhtOtkmh54zC8hfcYhs9znT20ZaewWZ0MoszLOAvp/pzgAYqTvvBMheXI3SgiAxYh5cit5OsTXsp+dzPhGmp5G5fRlzomNHJ/PO763FNAu/pvazJeJTpC/I4aa5hvP4hx0raABtL3DMwR6TB4aO+LrANlhgXa+4U6TeFoHAyPp10Z+Cpr/W77nb/GGyuZFxzzI9Yommk8F8raMNK9pEajr62lXXuVJJibjEVjbq391WV/70eqAMYIu0/mibOZi9eAtfTKTFjCVb8VJz9FL4op8IP1qXpJHauPonIoGg/c4B9XwJJW/mPU4fY8eIqFs95hAmmcZaHlrGn5BP+cOoQmzJstDdXsfuXL/WsAxznZuvaWMDLwWc81A1iPXQn/7kDvN0EWFJJd/Y6g4n0i0LQMPGV7qWo3vQrqP5ays8Hno6x/C1MmspUC+A/wb6inndEtF85QfFFgOv4WgGiGNOZezq8nDvTxx0coR5ODmxD1e9n77khmL2CqotOBLb4APBTd7gg8KvYrhkkdjYHC6T9ldUc/KgcP3FkZ+hbn8hg++5asLjYYulaufHXlFMfOqjZ2/XjhFH3PcLiF18j9z7A78Vr+sZ031OHeWNeNLRVsOaZ4Hb+YOhox1vq4cnnK/ATTcr2zST9BSvQIrejEDRcvq9n38rZTJ/mZH5aGvPTZjPLtZrKNmD8EpalRANx5G5PJRpoej2DWdl5bH95G/m5aTy2+BXqvwd4kMQkgt/CVpL/8jY2Zro5du0WK0Fmo5PJXRtHFG1UbnAyKyNwjvzcDGbtqjWP7jer/wQLXZlsfNnD0wtms+Z0G4yKZd2zofU+sSzJjgP/Cd75nR/i55IcunUnIoPC6kgMbH9Xeli4YRvbPSt5ctenPQd5j7DQmcbTnm2BeWflCg5eBSbNING8ZISFpJeOsO5nge38lS/V9vNHDRt5+9dp3XPitEdZ+FIFbUSTsvMEOwb1jjMRhaBh8/ePLeeXj8dhHX0TX6sPX2sbjIvDteJVSkte6Pq2Y3Hu5N/fXY/rfgs3v6yi+FQx1Y1RTH3qVXKnAUSTvvMQ2Q9ZiLr2KZVl9TBvP69m36ImqBe2pwr4qPM9rn5K5aliqhsh1jbOPLTfHlpbwJ4UqC+poL4ZLA8tYc+pArIn9RzXVSANuDJ/fts6JRHph4fWc+jFZGyWdrzniqn61sYL723uXpUFsM0kJebPNJ4ppvhUMZWNEDfvBY4Wreq+QSLUKBvZb71JSjS0nV7NyoL+/Z6P/5ovOCf6YXxgTvy3/zzLjhTNBjL47jEMwzA3Aly6dIkpU6aYm0WGlr+CjS4P1aOX8NvqF1QPJCIiQ0YrQRJWmgoOUN0B0fPnKgCJiMiQUgiSMFDLwZUeNmY7yXrXB9HpbH2mx826IiIig04hSMKCr76C6iawPb6eo6e26g4QEREZcqoJEhERkYiklSARERGJSApBIiIiEpEUgkRERCQiKQSJiIhIRFIIEhERkYjU591hY8eO5VjBUb6+fNncLSJ3uQcmT2a5O4eJEyeauwakpaVF84bICDVU88Zw6TMElZZ8yLRp03ElzzZ3i8hdrrrqLOfP/wFP/hZz14Ds3LFd84bICDVU88Zw6XM77OvLlzWRiYxQruTZQ7Jao3lDZOQaqnljuPQZgkRERERGKoUgERERiUgKQSIiIhKRFIJEREQkIikEiYiISERSCBIREZGIpBAkIiIiEUkhSERERCKSQpCIiIhEJIUgERERiUgKQSOQryCThMxCfOYOERER6aIQ9NfWXEiWw05CH4+sguGILz6KMu0kbKkNaaslv5frS3CYx4mIiNx9FIL+2iYt4/3P/8hnwUfpc7FAKm+EtL3vtpqPGlYxz5V1XVvgUca6K6tJcNjJrzGPFhERuTsoBEk/WMk+HghwlWszKWo294uIiIQ/hSDpN6t7FSk0Ul49HNt3IiIiA6MQFJZ6qcUx1+DUeEx1Oh7qeo7ooW7LUNQbzWDuPGiqrFYRtoiI3HUUgsKQr+AA/CakBqdkPTGnV3cHmBoPCWu9rCvpHvPGPPNZutVtsbPmdCzrSga/3ui++2Oh6SuumjtERETCnEJQGLK6j7PDGdIwaRmr5kHTFS8APq8XYuby+KTuIUnbd5LU/bJLdwA6TnbIeBERkUinEBS2gresB7e71pwGrnjxAVabDZr2Mt+8RWZytSBTAUhEROQWFILCUKB+J43ylO5b03tsdzl3dm2R3bIeqGkva15vJOa5V4c0AF290gjz5va6CiUiIhLOFILCTY3nzup3un5vqIx1MRWscZhuVY9ZT+lvUml6PW2Qi6FD1VJ+GlLmzDB3iIiIhD2FoLtCIGz0zkr28TdJoZGvAiVD3Zw7+WzIgpCPoszVVMasJze0fklEROQuoRAUbmwPEmP67Z26LaupDBniK/D0XPWpKaeSWB60hbR1cu6k9LnYwQ1CzYVkOdLYx3pKjy+jj/UqERGRsKUQFG4mLeP94OpNZ1F0+RzzLfBe9i0I+Y2gtd4+i5+t7uNdQag//1g19FoSHHYSFpQzt+SPfKYAJCIid7F7DMMwzI0Aly5d4rU9uzlaUGjuEpERIse9bNA/40NxThEJHyPpM66VIBEREYlICkEiIiISkRSCREREJCIpBImIiEhEUggSERGRiKQQJCIiIhFJIUhEREQikkKQiIiIRCSFIBEREYlICkEiIiISkfoMQQ9Mnkx11Vlzs4iMANVVZ3lg8mRz84Bp3hAZuYZq3hguff7vsLFjx3Ks4ChfX75s7haRu9wDkyez3J3DxIkTzV0D0tLSonlDZIQaqnljuPQZgqZMmWJuFhERERkR+twOExERERmpFIJEREQkIikEiYiISERSCBIREZGIpBAkIiIiEUkhSERERCKSQpCIiIhEJIUgERERiUj/B7cLOm5ZFF+sAAAAAElFTkSuQmCC;" vertex="1" parent="1">
          <mxGeometry x="24" y="133" width="248.8" height="33.2" as="geometry" />
        </mxCell>
        <mxCell id="8eMQXXNVM8QZM0LBL5MA-26" value="" style="shape=image;verticalLabelPosition=bottom;labelBackgroundColor=default;verticalAlign=top;aspect=fixed;imageAspect=0;image=data:image/png,iVBORw0KGgoAAAANSUhEUgAAAM8AAAA8CAYAAADBh+7oAAAAAXNSR0IArs4c6QAAAARnQU1BAACxjwv8YQUAAAAJcEhZcwAAEnQAABJ0Ad5mH3gAAAhNSURBVHhe7d1/TBvnHcfxdzwwIzH55VnEadV4IFymJfUiGqmongip4jGV/pGgKJaKkgotWSYhIRqhVXRKAG1UE2omS0zq8gfrUKaB0BJtaVXLdEnY3BitcjN31UrIoG7XxrE8CAlOHX6U7I8zcD5CEy6Ohsn3Jd0ffp6vcwfnzz33POckq+7cuXMHIcSSGbQNQoj7I+ERQicJjxA6SXiE0EnCI4ROEh4hdJLwCKGThEcInSQ8Qugk4RFCJwmPEDpJeITQScIjhE6r0vWt6uHoOE1dHzIcHdd2if+zgvw8mtxPUZCfp+0SDyBtI09T14cMSXCWpaHkhU2kV9rCMxwdZ5W2USwLq5LnR6RX2sIjxKNGwiOEThIeIXSS8Aihk4RHCJ0kPELoJOERQicJjxA6SXiE0EnCI4ROEp6H6dkdeFsr8B/bgVvbt6IN0dzopcYX03YsMwuPM9Dpxfl6iEhK3d1lbHjspQ46fvoc535egb81ubU8R8ceq7ZUpF2Mrte9OBs1231+6FaKjAxPaZWTN16wYl+XjZEZJidnmJwGsrLZbM7Rlos0ivjO42wM4ttWMn/Raq3A31rEbm3xCpeB4Snk4DYTRiAevkLNz3zsavKx65iXmrNRwgltvUibUD/7LkBtXQUdLoums5DjRx08SuN+BoYnF5MRYIrLHw8xqOoZDFziyO/DqhaRPkM0d49h37kVd76279GUtr9J6mz0apseEhueY8WUfBMmYxFe6wzRO6KtmWWh9qUnqSwwYcoCZmaI37jOW76PaA8pQ5S91MHLzm8pt4DJS0n8+ghvnX2f9gFU+5si+M4V4k8XU2YxEA56qf4jYLZS+0Lh/D4AphP0nenj1dU78D5vxnR7hPY/3cJV+Tj2NcpO4tEIJ0+FOL3osaefv7VC23T/Qv04u6Gt9RlKtX0LDNHceIVPd5akjlDREDWeyPwFz2ylJ2W0Ut7XO/caKC7Cf6Bw7mWg00sDRfgdMZzdY8D6xY8p1J+smbd7fwXHHbOvFh5noNNLQ0x7XHeXgSNPmM5/xpkEjBYrx+uf49SLRew2a+ssvFK/HbfdhDERJxyNE77xFaYNZtxV26lN1u99xsrWdTASU2oit1Fq9pRQqfkTzU8XUWZR/crMNjyHHbjtSnDi1+OEowniGDCtVr3RsJaXqp7ANv0l4etTAJjyrRzeY1MVLW+B0BiYc9F9xKF+nJ4IW/bPzpFKqCXCPtUiQ8T3Gcz1V+Cvs2IfuLJw1S72GTUhS7JukeAQo+tdaFPNy3p25tDbfZ6uqLZWnwwMDwTP+DlyNkL4NmDIxvbdQo7XleH54fxVrqTqSSotBuLDA7z4mp9qj5/qtoucjgBZaylzKekJD4Rp/tVf2OdRavb9OqKczLy1lG2f3ydkY9swTd/ZizgblVGn8vlvU5IHTN7kdKeXijY/1Z4+Ko6dp+491VuN2Yx/HGTXL5VjaB+eDZCFvaqylStG17tjUFykuupbcFdbsY9EOBlSWqyuclU/kO/gUDEMXrupagRGcjmkGo3uzoL7aGqwrK4n2M0El6+pGh9ARoYHYDAQorrlIifeHyMyCWTlUvL97ZyqUgK0+3ETAKaCYnrmrj5l7E2OxXlrlH8Mo+vvN7Dt2kFHXRneJhfn6q3J4dqAUT16AKPDQ7wamD2RVsoeU1b2BoOXODGQUqoRJ/iH2atngq7wLSYBvgHG1MKVKXoV30gOtT/QfODzTWwBPo2qR5bUZfCGASAWT10CX8oIGA1RM7ecrtwSpu5Pv4wNj+Imp8/0s68pSNcXU4AB27ZCDjL/k43+J0LvpYWb7/K4ctt1xMHB7Wbs6wz89/pNgqExRjV7UUzxydDnqtc5GLOV9vHReyzx3Z4gZRkj8ZUSngxi25QDI4nUn+N+XUswyATtHu2zodT5TaDTu2AZvK1YVTDLYrrnfGT2AajTM4qr7uEsp2d4eGbFaP/HTeIAxqzUX2xihOae0ILtxN9GKHFtoWQNcCNKQ8t5qj39NPTE0dwkzJvRNgBkk7de27byWB0bsTOGL3mLtSSbcrGTQ+3chzh163BZINRPw4BSs3AZfOkCnVfoNVvpaS1/aKuDGRierbxR58BdkKtqy8X9nbWYSK6oAcGRCQA2Fth4RX31Mlt5+YCDvUDRmuTy2PTM3BW1tGo9m1XliwvzwTUlTfbv7eDgY9r+FSY5/+jt7ieg7buXfBNbmMAXWurt0hC+r70dXqJQLHUl7wFlYHiUlaraH5Xhb3FxrsnFuZYyaguyARj991Xagd63PyF4C8gyUVnt4s/1Tk7VleGtd7DXZsQIdH2RUG6fzFZ+2+DkVH05v3BoJjpf43d/vUp4Glhj5tBPXHgbkvtoKcfzrLY685UeKKHWPEZD411WrKIhahb9ek4hh3fmMHghSHPKyBWjqzP5nk252DUBC3Rqlq2XQLnNHKVv7jiV51TplIHhGeOD4Tijt2cgy4DRaMBomCF+I07gvRA/fjM5hoyEqXvzX/RGp5jEwEaLCVt+LsZEnEDwc/oA3rnEyYEE8RkwbTBhWz1F39tRrmr2uKiBj6j+zfw+TBuS+5iYIPKltnglsOA+WoF/f+7C+YsnAts2LzoXsbrK8e9fT2+3+n1BLjuSz1PyHXTsX8/gheBcv8+xyJznPlhd5bQVq+dZMVxpnvNk4ENSodcDPSQVC2TgyCPE8iDhEUInCY8QOkl4hNBJwiOEThIeIXSS8Aihk4RHCJ0kPELoJOERQqe0hacgP4+0fM9HpN2d5PkR6ZW28DS5n6JQTtCyVJj8r+RFeqXti6FCPGrSNvII8aiR8Aihk4RHCJ0kPELoJOERQqf/AReUFr2279UKAAAAAElFTkSuQmCC;" vertex="1" parent="1">
          <mxGeometry x="534" y="35" width="102.92" height="29.84" as="geometry" />
        </mxCell>
        <mxCell id="8eMQXXNVM8QZM0LBL5MA-27" value="" style="shape=image;verticalLabelPosition=bottom;labelBackgroundColor=default;verticalAlign=top;aspect=fixed;imageAspect=0;image=data:image/png,iVBORw0KGgoAAAANSUhEUgAAAM8AAAA8CAYAAADBh+7oAAAAAXNSR0IArs4c6QAAAARnQU1BAACxjwv8YQUAAAAJcEhZcwAAEnQAABJ0Ad5mH3gAAAhNSURBVHhe7d1/TBvnHcfxdzwwIzH55VnEadV4IFymJfUiGqmongip4jGV/pGgKJaKkgotWSYhIRqhVXRKAG1UE2omS0zq8gfrUKaB0BJtaVXLdEnY3BitcjN31UrIoG7XxrE8CAlOHX6U7I8zcD5CEy6Ohsn3Jd0ffp6vcwfnzz33POckq+7cuXMHIcSSGbQNQoj7I+ERQicJjxA6SXiE0EnCI4ROEh4hdJLwCKGThEcInSQ8Qugk4RFCJwmPEDpJeITQScIjhE6r0vWt6uHoOE1dHzIcHdd2if+zgvw8mtxPUZCfp+0SDyBtI09T14cMSXCWpaHkhU2kV9rCMxwdZ5W2USwLq5LnR6RX2sIjxKNGwiOEThIeIXSS8Aihk4RHCJ0kPELoJOERQicJjxA6SXiE0EnCI4ROEp6H6dkdeFsr8B/bgVvbt6IN0dzopcYX03YsMwuPM9Dpxfl6iEhK3d1lbHjspQ46fvoc535egb81ubU8R8ceq7ZUpF2Mrte9OBs1231+6FaKjAxPaZWTN16wYl+XjZEZJidnmJwGsrLZbM7Rlos0ivjO42wM4ttWMn/Raq3A31rEbm3xCpeB4Snk4DYTRiAevkLNz3zsavKx65iXmrNRwgltvUibUD/7LkBtXQUdLoums5DjRx08SuN+BoYnF5MRYIrLHw8xqOoZDFziyO/DqhaRPkM0d49h37kVd76279GUtr9J6mz0apseEhueY8WUfBMmYxFe6wzRO6KtmWWh9qUnqSwwYcoCZmaI37jOW76PaA8pQ5S91MHLzm8pt4DJS0n8+ghvnX2f9gFU+5si+M4V4k8XU2YxEA56qf4jYLZS+0Lh/D4AphP0nenj1dU78D5vxnR7hPY/3cJV+Tj2NcpO4tEIJ0+FOL3osaefv7VC23T/Qv04u6Gt9RlKtX0LDNHceIVPd5akjlDREDWeyPwFz2ylJ2W0Ut7XO/caKC7Cf6Bw7mWg00sDRfgdMZzdY8D6xY8p1J+smbd7fwXHHbOvFh5noNNLQ0x7XHeXgSNPmM5/xpkEjBYrx+uf49SLRew2a+ssvFK/HbfdhDERJxyNE77xFaYNZtxV26lN1u99xsrWdTASU2oit1Fq9pRQqfkTzU8XUWZR/crMNjyHHbjtSnDi1+OEowniGDCtVr3RsJaXqp7ANv0l4etTAJjyrRzeY1MVLW+B0BiYc9F9xKF+nJ4IW/bPzpFKqCXCPtUiQ8T3Gcz1V+Cvs2IfuLJw1S72GTUhS7JukeAQo+tdaFPNy3p25tDbfZ6uqLZWnwwMDwTP+DlyNkL4NmDIxvbdQo7XleH54fxVrqTqSSotBuLDA7z4mp9qj5/qtoucjgBZaylzKekJD4Rp/tVf2OdRavb9OqKczLy1lG2f3ydkY9swTd/ZizgblVGn8vlvU5IHTN7kdKeXijY/1Z4+Ko6dp+491VuN2Yx/HGTXL5VjaB+eDZCFvaqylStG17tjUFykuupbcFdbsY9EOBlSWqyuclU/kO/gUDEMXrupagRGcjmkGo3uzoL7aGqwrK4n2M0El6+pGh9ARoYHYDAQorrlIifeHyMyCWTlUvL97ZyqUgK0+3ETAKaCYnrmrj5l7E2OxXlrlH8Mo+vvN7Dt2kFHXRneJhfn6q3J4dqAUT16AKPDQ7wamD2RVsoeU1b2BoOXODGQUqoRJ/iH2atngq7wLSYBvgHG1MKVKXoV30gOtT/QfODzTWwBPo2qR5bUZfCGASAWT10CX8oIGA1RM7ecrtwSpu5Pv4wNj+Imp8/0s68pSNcXU4AB27ZCDjL/k43+J0LvpYWb7/K4ctt1xMHB7Wbs6wz89/pNgqExRjV7UUzxydDnqtc5GLOV9vHReyzx3Z4gZRkj8ZUSngxi25QDI4nUn+N+XUswyATtHu2zodT5TaDTu2AZvK1YVTDLYrrnfGT2AajTM4qr7uEsp2d4eGbFaP/HTeIAxqzUX2xihOae0ILtxN9GKHFtoWQNcCNKQ8t5qj39NPTE0dwkzJvRNgBkk7de27byWB0bsTOGL3mLtSSbcrGTQ+3chzh163BZINRPw4BSs3AZfOkCnVfoNVvpaS1/aKuDGRierbxR58BdkKtqy8X9nbWYSK6oAcGRCQA2Fth4RX31Mlt5+YCDvUDRmuTy2PTM3BW1tGo9m1XliwvzwTUlTfbv7eDgY9r+FSY5/+jt7ieg7buXfBNbmMAXWurt0hC+r70dXqJQLHUl7wFlYHiUlaraH5Xhb3FxrsnFuZYyaguyARj991Xagd63PyF4C8gyUVnt4s/1Tk7VleGtd7DXZsQIdH2RUG6fzFZ+2+DkVH05v3BoJjpf43d/vUp4Glhj5tBPXHgbkvtoKcfzrLY685UeKKHWPEZD411WrKIhahb9ek4hh3fmMHghSHPKyBWjqzP5nk252DUBC3Rqlq2XQLnNHKVv7jiV51TplIHhGeOD4Tijt2cgy4DRaMBomCF+I07gvRA/fjM5hoyEqXvzX/RGp5jEwEaLCVt+LsZEnEDwc/oA3rnEyYEE8RkwbTBhWz1F39tRrmr2uKiBj6j+zfw+TBuS+5iYIPKltnglsOA+WoF/f+7C+YsnAts2LzoXsbrK8e9fT2+3+n1BLjuSz1PyHXTsX8/gheBcv8+xyJznPlhd5bQVq+dZMVxpnvNk4ENSodcDPSQVC2TgyCPE8iDhEUInCY8QOkl4hNBJwiOEThIeIXSS8Aihk4RHCJ0kPELoJOERQqe0hacgP4+0fM9HpN2d5PkR6ZW28DS5n6JQTtCyVJj8r+RFeqXti6FCPGrSNvII8aiR8Aihk4RHCJ0kPELoJOERQqf/AReUFr2279UKAAAAAElFTkSuQmCC;" vertex="1" parent="1">
          <mxGeometry x="536" y="73" width="102.92" height="29.84" as="geometry" />
        </mxCell>
        <mxCell id="8eMQXXNVM8QZM0LBL5MA-28" value="" style="shape=image;verticalLabelPosition=bottom;labelBackgroundColor=default;verticalAlign=top;aspect=fixed;imageAspect=0;image=data:image/png,iVBORw0KGgoAAAANSUhEUgAAAM8AAAA8CAYAAADBh+7oAAAAAXNSR0IArs4c6QAAAARnQU1BAACxjwv8YQUAAAAJcEhZcwAAEnQAABJ0Ad5mH3gAAAhNSURBVHhe7d1/TBvnHcfxdzwwIzH55VnEadV4IFymJfUiGqmongip4jGV/pGgKJaKkgotWSYhIRqhVXRKAG1UE2omS0zq8gfrUKaB0BJtaVXLdEnY3BitcjN31UrIoG7XxrE8CAlOHX6U7I8zcD5CEy6Ohsn3Jd0ffp6vcwfnzz33POckq+7cuXMHIcSSGbQNQoj7I+ERQicJjxA6SXiE0EnCI4ROEh4hdJLwCKGThEcInSQ8Qugk4RFCJwmPEDpJeITQScIjhE6r0vWt6uHoOE1dHzIcHdd2if+zgvw8mtxPUZCfp+0SDyBtI09T14cMSXCWpaHkhU2kV9rCMxwdZ5W2USwLq5LnR6RX2sIjxKNGwiOEThIeIXSS8Aihk4RHCJ0kPELoJOERQicJjxA6SXiE0EnCI4ROEp6H6dkdeFsr8B/bgVvbt6IN0dzopcYX03YsMwuPM9Dpxfl6iEhK3d1lbHjspQ46fvoc535egb81ubU8R8ceq7ZUpF2Mrte9OBs1231+6FaKjAxPaZWTN16wYl+XjZEZJidnmJwGsrLZbM7Rlos0ivjO42wM4ttWMn/Raq3A31rEbm3xCpeB4Snk4DYTRiAevkLNz3zsavKx65iXmrNRwgltvUibUD/7LkBtXQUdLoums5DjRx08SuN+BoYnF5MRYIrLHw8xqOoZDFziyO/DqhaRPkM0d49h37kVd76279GUtr9J6mz0apseEhueY8WUfBMmYxFe6wzRO6KtmWWh9qUnqSwwYcoCZmaI37jOW76PaA8pQ5S91MHLzm8pt4DJS0n8+ghvnX2f9gFU+5si+M4V4k8XU2YxEA56qf4jYLZS+0Lh/D4AphP0nenj1dU78D5vxnR7hPY/3cJV+Tj2NcpO4tEIJ0+FOL3osaefv7VC23T/Qv04u6Gt9RlKtX0LDNHceIVPd5akjlDREDWeyPwFz2ylJ2W0Ut7XO/caKC7Cf6Bw7mWg00sDRfgdMZzdY8D6xY8p1J+smbd7fwXHHbOvFh5noNNLQ0x7XHeXgSNPmM5/xpkEjBYrx+uf49SLRew2a+ssvFK/HbfdhDERJxyNE77xFaYNZtxV26lN1u99xsrWdTASU2oit1Fq9pRQqfkTzU8XUWZR/crMNjyHHbjtSnDi1+OEowniGDCtVr3RsJaXqp7ANv0l4etTAJjyrRzeY1MVLW+B0BiYc9F9xKF+nJ4IW/bPzpFKqCXCPtUiQ8T3Gcz1V+Cvs2IfuLJw1S72GTUhS7JukeAQo+tdaFPNy3p25tDbfZ6uqLZWnwwMDwTP+DlyNkL4NmDIxvbdQo7XleH54fxVrqTqSSotBuLDA7z4mp9qj5/qtoucjgBZaylzKekJD4Rp/tVf2OdRavb9OqKczLy1lG2f3ydkY9swTd/ZizgblVGn8vlvU5IHTN7kdKeXijY/1Z4+Ko6dp+491VuN2Yx/HGTXL5VjaB+eDZCFvaqylStG17tjUFykuupbcFdbsY9EOBlSWqyuclU/kO/gUDEMXrupagRGcjmkGo3uzoL7aGqwrK4n2M0El6+pGh9ARoYHYDAQorrlIifeHyMyCWTlUvL97ZyqUgK0+3ETAKaCYnrmrj5l7E2OxXlrlH8Mo+vvN7Dt2kFHXRneJhfn6q3J4dqAUT16AKPDQ7wamD2RVsoeU1b2BoOXODGQUqoRJ/iH2atngq7wLSYBvgHG1MKVKXoV30gOtT/QfODzTWwBPo2qR5bUZfCGASAWT10CX8oIGA1RM7ecrtwSpu5Pv4wNj+Imp8/0s68pSNcXU4AB27ZCDjL/k43+J0LvpYWb7/K4ctt1xMHB7Wbs6wz89/pNgqExRjV7UUzxydDnqtc5GLOV9vHReyzx3Z4gZRkj8ZUSngxi25QDI4nUn+N+XUswyATtHu2zodT5TaDTu2AZvK1YVTDLYrrnfGT2AajTM4qr7uEsp2d4eGbFaP/HTeIAxqzUX2xihOae0ILtxN9GKHFtoWQNcCNKQ8t5qj39NPTE0dwkzJvRNgBkk7de27byWB0bsTOGL3mLtSSbcrGTQ+3chzh163BZINRPw4BSs3AZfOkCnVfoNVvpaS1/aKuDGRierbxR58BdkKtqy8X9nbWYSK6oAcGRCQA2Fth4RX31Mlt5+YCDvUDRmuTy2PTM3BW1tGo9m1XliwvzwTUlTfbv7eDgY9r+FSY5/+jt7ieg7buXfBNbmMAXWurt0hC+r70dXqJQLHUl7wFlYHiUlaraH5Xhb3FxrsnFuZYyaguyARj991Xagd63PyF4C8gyUVnt4s/1Tk7VleGtd7DXZsQIdH2RUG6fzFZ+2+DkVH05v3BoJjpf43d/vUp4Glhj5tBPXHgbkvtoKcfzrLY685UeKKHWPEZD411WrKIhahb9ek4hh3fmMHghSHPKyBWjqzP5nk252DUBC3Rqlq2XQLnNHKVv7jiV51TplIHhGeOD4Tijt2cgy4DRaMBomCF+I07gvRA/fjM5hoyEqXvzX/RGp5jEwEaLCVt+LsZEnEDwc/oA3rnEyYEE8RkwbTBhWz1F39tRrmr2uKiBj6j+zfw+TBuS+5iYIPKltnglsOA+WoF/f+7C+YsnAts2LzoXsbrK8e9fT2+3+n1BLjuSz1PyHXTsX8/gheBcv8+xyJznPlhd5bQVq+dZMVxpnvNk4ENSodcDPSQVC2TgyCPE8iDhEUInCY8QOkl4hNBJwiOEThIeIXSS8Aihk4RHCJ0kPELoJOERQqe0hacgP4+0fM9HpN2d5PkR6ZW28DS5n6JQTtCyVJj8r+RFeqXti6FCPGrSNvII8aiR8Aihk4RHCJ0kPELoJOERQqf/AReUFr2279UKAAAAAElFTkSuQmCC;" vertex="1" parent="1">
          <mxGeometry x="533" y="116" width="102.92" height="29.84" as="geometry" />
        </mxCell>
        <mxCell id="8eMQXXNVM8QZM0LBL5MA-34" value="" style="edgeStyle=orthogonalEdgeStyle;rounded=0;orthogonalLoop=1;jettySize=auto;html=1;" edge="1" parent="1" source="8eMQXXNVM8QZM0LBL5MA-30" target="8eMQXXNVM8QZM0LBL5MA-31">
          <mxGeometry relative="1" as="geometry" />
        </mxCell>
        <mxCell id="8eMQXXNVM8QZM0LBL5MA-30" value="&lt;font style=&quot;color: light-dark(rgb(0, 0, 0), rgb(0, 0, 0)); font-size: 18px;&quot;&gt;Search&lt;/font&gt;" style="html=1;shadow=0;dashed=0;shape=mxgraph.bootstrap.radioButton2;labelPosition=right;verticalLabelPosition=middle;align=left;verticalAlign=middle;fillColor=#60a917;checked=0;spacing=5;checkedFill=#0085FC;checkedStroke=#ffffff;fontStyle=1;fontColor=#ffffff;strokeColor=#2D7600;" vertex="1" parent="1">
          <mxGeometry x="181" y="-51" width="10" height="10" as="geometry" />
        </mxCell>
        <mxCell id="8eMQXXNVM8QZM0LBL5MA-31" value="&lt;font style=&quot;color: light-dark(rgb(0, 0, 0), rgb(0, 0, 0));&quot;&gt;Filter&lt;/font&gt;" style="html=1;shadow=0;shape=mxgraph.bootstrap.radioButton2;labelPosition=right;verticalLabelPosition=middle;align=left;verticalAlign=middle;gradientColor=#DEDEDE;fillColor=light-dark(#FFFFFF,#999999);checked=0;spacing=5;checkedFill=#0085FC;checkedStroke=#ffffff;fontSize=18;fontStyle=1;perimeterSpacing=2;strokeWidth=3;" vertex="1" parent="1">
          <mxGeometry x="262" y="-51" width="10.5" height="10" as="geometry" />
        </mxCell>
        <mxCell id="8eMQXXNVM8QZM0LBL5MA-37" value="Filter" style="strokeWidth=1;shadow=0;dashed=0;align=center;html=1;shape=mxgraph.mockup.forms.searchBox;strokeColor=#999999;mainText=;strokeColor2=#008cff;fontColor=#666666;fontSize=17;align=left;spacingLeft=3;whiteSpace=wrap;fillStyle=solid;fillColor=light-dark(#FFFFFF,#FFFFFF);" vertex="1" parent="1">
          <mxGeometry x="7" y="494" width="500" height="35" as="geometry" />
        </mxCell>
        <mxCell id="8eMQXXNVM8QZM0LBL5MA-38" value="&lt;b&gt;Filter&lt;/b&gt;" style="rounded=1;fillColor=#0057D8;strokeColor=none;html=1;whiteSpace=wrap;fontColor=#ffffff;align=center;verticalAlign=middle;fontStyle=0;fontSize=12;sketch=0;" vertex="1" parent="1">
          <mxGeometry x="535" y="490" width="113" height="41" as="geometry" />
        </mxCell>
        <mxCell id="8eMQXXNVM8QZM0LBL5MA-39" value="" style="edgeStyle=orthogonalEdgeStyle;rounded=0;orthogonalLoop=1;jettySize=auto;html=1;" edge="1" parent="1" source="8eMQXXNVM8QZM0LBL5MA-40" target="8eMQXXNVM8QZM0LBL5MA-41">
          <mxGeometry relative="1" as="geometry" />
        </mxCell>
        <mxCell id="8eMQXXNVM8QZM0LBL5MA-40" value="&lt;font style=&quot;color: light-dark(rgb(0, 0, 0), rgb(0, 0, 0)); font-size: 18px;&quot;&gt;Search&lt;/font&gt;" style="html=1;shadow=0;dashed=0;shape=mxgraph.bootstrap.radioButton2;labelPosition=right;verticalLabelPosition=middle;align=left;verticalAlign=middle;checked=0;spacing=5;checkedFill=#0085FC;checkedStroke=#ffffff;fontStyle=1;" vertex="1" parent="1">
          <mxGeometry x="184" y="472" width="10" height="10" as="geometry" />
        </mxCell>
        <mxCell id="8eMQXXNVM8QZM0LBL5MA-41" value="&lt;font style=&quot;color: light-dark(rgb(0, 0, 0), rgb(0, 0, 0));&quot;&gt;Filter&lt;/font&gt;" style="html=1;shadow=0;shape=mxgraph.bootstrap.radioButton2;labelPosition=right;verticalLabelPosition=middle;align=left;verticalAlign=middle;fillColor=#60a917;checked=0;spacing=5;checkedFill=#0085FC;checkedStroke=#ffffff;fontSize=18;fontStyle=1;perimeterSpacing=2;strokeWidth=3;fontColor=#ffffff;strokeColor=#2D7600;" vertex="1" parent="1">
          <mxGeometry x="265" y="472" width="10.5" height="10" as="geometry" />
        </mxCell>
        <mxCell id="8eMQXXNVM8QZM0LBL5MA-42" value="&lt;b&gt;Filter By&lt;/b&gt;" style="rounded=1;fillColor=none;strokeColor=none;html=1;fontColor=#596780;align=left;fontSize=11;spacingLeft=10;fontSize=11;pointerEvents=0;" vertex="1" parent="1">
          <mxGeometry x="-95" y="476" width="100" height="20" as="geometry" />
        </mxCell>
        <mxCell id="8eMQXXNVM8QZM0LBL5MA-43" value="Workflow" style="rounded=1;fillColor=#253858;strokeColor=none;html=1;fontColor=#ffffff;align=left;fontSize=12;spacingLeft=10;pointerEvents=0;" vertex="1" parent="1">
          <mxGeometry x="-95" y="496" width="100" height="33" as="geometry" />
        </mxCell>
        <mxCell id="8eMQXXNVM8QZM0LBL5MA-44" value="" style="shape=triangle;direction=south;fillColor=#ffffff;strokeColor=none;html=1;pointerEvents=0;fontSize=20;" vertex="1" parent="8eMQXXNVM8QZM0LBL5MA-43">
          <mxGeometry x="1" y="0.5" width="12" height="6" relative="1" as="geometry">
            <mxPoint x="-20" y="-3" as="offset" />
          </mxGeometry>
        </mxCell>
        <mxCell id="8eMQXXNVM8QZM0LBL5MA-45" value="ALL" style="rounded=1;fillColor=#253858;strokeColor=none;html=1;fontColor=#ffffff;align=left;fontSize=12;spacingLeft=10;pointerEvents=0;" vertex="1" parent="1">
          <mxGeometry x="-95" y="496" width="100" height="33" as="geometry" />
        </mxCell>
        <mxCell id="8eMQXXNVM8QZM0LBL5MA-46" value="" style="shape=triangle;direction=south;fillColor=#ffffff;strokeColor=none;html=1;pointerEvents=0;fontSize=20;" vertex="1" parent="8eMQXXNVM8QZM0LBL5MA-45">
          <mxGeometry x="1" y="0.5" width="12" height="6" relative="1" as="geometry">
            <mxPoint x="-20" y="-3" as="offset" />
          </mxGeometry>
        </mxCell>
        <mxCell id="8eMQXXNVM8QZM0LBL5MA-47" value="" style="rounded=1;fillColor=#ffffff;strokeColor=#DFE1E5;shadow=1;html=1;arcSize=4;hachureGap=4;pointerEvents=0;fontFamily=Helvetica;fontSize=20;" vertex="1" parent="1">
          <mxGeometry x="-95" y="532" width="100" height="114" as="geometry" />
        </mxCell>
        <mxCell id="8eMQXXNVM8QZM0LBL5MA-48" value="UPRN" style="rounded=0;fillColor=#F4F5F7;strokeColor=none;shadow=0;html=1;align=left;fontSize=12;spacingLeft=10;fontColor=#253858;resizeWidth=1;pointerEvents=0;" vertex="1" parent="8eMQXXNVM8QZM0LBL5MA-47">
          <mxGeometry width="100" height="33" relative="1" as="geometry">
            <mxPoint y="6" as="offset" />
          </mxGeometry>
        </mxCell>
        <mxCell id="8eMQXXNVM8QZM0LBL5MA-49" value="Post Code" style="rounded=0;fillColor=none;strokeColor=none;shadow=0;html=1;align=left;fontSize=12;spacingLeft=10;fontColor=#253858;resizeWidth=1;pointerEvents=0;" vertex="1" parent="8eMQXXNVM8QZM0LBL5MA-47">
          <mxGeometry width="100" height="33" relative="1" as="geometry">
            <mxPoint y="60" as="offset" />
          </mxGeometry>
        </mxCell>
        <mxCell id="8eMQXXNVM8QZM0LBL5MA-50" value="Task" style="rounded=0;fillColor=#F4F5F7;strokeColor=none;shadow=0;html=1;align=left;fontSize=12;spacingLeft=10;fontColor=#253858;resizeWidth=1;pointerEvents=0;" vertex="1" parent="8eMQXXNVM8QZM0LBL5MA-47">
          <mxGeometry y="35.041666666666664" width="100" height="26.125" as="geometry" />
        </mxCell>
        <mxCell id="8eMQXXNVM8QZM0LBL5MA-51" value="" style="shape=image;verticalLabelPosition=bottom;labelBackgroundColor=default;verticalAlign=top;aspect=fixed;imageAspect=0;image=data:image/png,iVBORw0KGgoAAAANSUhEUgAABYQAAADUCAYAAAAsnScSAAAAAXNSR0IArs4c6QAAAARnQU1BAACxjwv8YQUAAAAJcEhZcwAAEnQAABJ0Ad5mH3gAAF2HSURBVHhe7d1/dFT1ve//V7+uRe/X9U1X10KuN5OocG6/S45nnVQISYdgUaH2CxVMzpygtQVjWtsYa0EUCBK9rV9FiVYQjiWX2sqJ2HOK0GlGUPhWwVMrMM2P2zZdt4V1XQVtsnO9wPf0knP7Layy5vvH3ntm/5rZM5MEAvN8rMXSzN4ze8/sz/78eH9+7I+lUqmUAAAAAAAAAACXvf/N+wIAAAAAAAAA4PJEQBgAAAAAAAAASgQBYQAAAAAAAAAoEQSEAQAAAAAAAKBEEBAGAAAAAAAAgBJBQBgAAAAAAAAASgQBYQAAAAAAAAAoEQSEAQAAAAAAAKBEEBAGAAAAAAAAgBJBQBgAAAAAAAAASgQBYQAAAAAAAAAoEQSEgTE1pFfvnqHqmXfr1T94twETGWkXuFBGjvXo2B+9r04cQ113q3rmDH2pa8i7CSXs0OMzVD1zhtrf9W7x+MMOfWnmDFXfvUOkIAC4WN5T+8wZqp65Toe8m4CJ4o9H1XtsxPsqLpCiAsK5Gwp2UMFRYbQrhs5/NXP1+aZ1eu03zotvZ1ruf7PnNal914BGzjt2de579/d13LXN8u46azsVUmQaMjn/Pf6e920XjH1+zvsq8Jyjc3VH0yptff2oTp9zfQQuU4HpwPvvIqZdSRr51U61Ny3SLVH7nD6jW+5s0WvHvHuiZJ0f0bHXN+r+O+dqtis/W6f9E6wT4vSuJisdL9LW33q3jtKvNmjx3S360m1PXLoNtKB6ne8fnUsTUu8G3WJdo9X7qUQAKD12LMP17+bPqfnxnRogLoULhHqUJA2oo/5u3X/3XD15gSvFge3rEoyzFBUQLt4klUUqVBGpUEXZWZ3+zT51NP2d2t/157xlV1v7RcqkPw5o/zNN+vtvvyf/npKOfVftPyLki9wmfdJOU2a6mmS+mkmTkQpVfNJ8dcIpm5w5xyvPaug3B/SDb9+tz89t0qvvl0huVcImeto9/sMmff4rG7T/N0M6e6V9PtLI+z369UfWTh/16NWnWtTYUkQH3Z+Oa3/nKjXP23DpBtBK3R/fU8eSufrSt3eo9/0RnZtUporIZJWdH9HQb/bp58e9b7iYhrQvPpD+/9f22v8/RiZP07RJ0qS/na6p3m2Xiism6SpH/jO5zHrdWVZFrtKkKzzvw0V36PWd6br0wZ+8qdOe7QBQMiaVpcussrOnNfDGBjXH1ulQYMBhFEZTB8Zlq9TqUad7d+jJB2K6/4fOu2Cypv3HSdKkKl1/rePlC2mM4yzB33PiusAB4flav3evXt+7V68f/IV2r5gu6bT2P/+K3IPIpuu+71n77X1XP31hoSZLOv3Gd5Xw9ZKUqaxMOvbC/61uO/AABKh5xE5Te/X63qc1T3Knyb179fojtd63TQjXf6Urc44Hf6Ejb23TyjmTpXMD2vTVb+vgWFdcMKFM6LT7pwPa+sKAzqlMCzre1ZGDmXT6Ly/fp7+2KzLHurUp3qPjZzzvz8fp9/TKSwc08Mdi3oyL7k/v6ckl39RrJ6RJn7pLz8V/of7ku3p979v6l95f6PWOu/RXF68/w+9Ytzmy/cYqVUkaeeNN9QbNQirWNXdpe/KXOvLyXarwbrtURO7SFkf+s/0r0yVvWbX3H3RnxPtGXFR/OqDu/ZIiVaqKSOr9iQ5QdwZQqm57Ol1m/cuhuFbeIOn0PnW8etS75+iMpg6My1ap1aOOvr5R3cnjOvMX56sVuvPlX6g/2aU7r3G+fuGMdZwl+HtOXBc4IOw2bel9WiBJfxjQ73IMUSibe48aIpJ0VL/zjSKq0Jzbpkvne/TC5gPBI4iBy8ykybVa+sJLeuB6SSP79MJYV1yAfJ02NHRekm7S/Hl297ap7MZvaOkc10soQce6Nqj7tKQbHtY//fNazZvqjP5OUsVta/XVqOOli+zYwX0akjTvzo2661ZJI2/q4H/x7gVces4d2qeD56WKBY9q7YIKSQPa926OCjgAlIorpmnpVxdKkoZ+dZTZE0CJKrU4y0UNCOuKj1v/c0b/9ifPNpdzGhmRpApVXOXdJv310qf1wPXSyP5n9MKhwod1A2l/HNBrT7Wocd5nrLVkPqNbmjbooHMEzR8H9NrjTZm1UqNz1fxyjozi/HG9utTc9/NPZVn2pBhXTNOypvmSpKF3Lu76sZgALlbajUzTtCskaZ++33Vc/hzYWlf+oX3mn8c26o6ZMzIPuAg570OPz1B1/UZrFsk+LXeuqZVtnXj7dce6yuf+cECbHojplhrru98c05NvUd0ffwPq/tGQpAp99fFlVlrJ7twfDmjrI036/M3WdaqZq8ZHdrjX9AtNxyMa2LVOzXaailqfkddD3I7qwBtDkuZr/tzJmnfbfEkjeu11bx57TkNvbdT9sbnpdcduiT2hg3aSynWOWR64NfKrHVptf150ke7v7NGA95kNjvce/+N72tRkrcccnavm53t89+jIb3aq3d5n5md0y52r9Oqv3Hu5j2t+ztjdGSM6/voGNS90/E4Lm9Tx1lBAXoHxdU4H9x+QVKEF86br+nkLVSFpIP5mwBTmcxp6a0PmHro5ptXx4zrr3U1mWn/1ETtv/YxuadqoXt+95nho6YnT2v/4Is12Pmvk/GkdfL5FjfZ9f/Pn1PzMAQ2lE8ko7jcAyJddRzkzoj9b/zvyfrc6mj7nqD9686dceVBIHdhZP3W8t7HTsVTVRz3a+ohne1Cd5tyQDj6TOYdbYqvUfSIw15Y+cteJKZcnqhxl5/kRDex6wvVcjtnzmtTxjqMG52gPnXt/Z6auZ5XpGXmUsTnaamnnrfq3q863Svt/Y9Zdl79h7nZs86L0eWV9qPn50+rtXOU+pq8O6/x9RnToeTv9W3URb6W4EJ44i/lrndPQW9/Vald+ENPqrgGz/m3V0YO/pymfevmFdnEDwh8NyZCkK6ZrWo4h4iOvv6LXRiRds1Dzb/BuNS/YVx+/TxU6re5vb9TAWE7tREkZSjyjjr1Duir6BTXEGrSgpkwjv9mp1Us3mOnq/IA6ljSp440BTfr0QnOfmZ/Q0eOnvB9lGdGhb39Nm34rTb79H/Tjx26Sewzl6EyaPl3TJOn933s3ocRctLR7xU164JEqTZJ07MWYbq5fpa2HnJXKf6dp8xrUELUmx5dN17xYgxpitboqj/O+akaDGm6bbh27QjWxBjXE5mvalekDhPuoW8tjq/RqckhXzW1QQ6xB8645pd8ZdnUf4+YPv9avRyRFFmr+9d6Nfr3fW6Uf9J3Tp2+zrtO0szr+zkY1r+o2g5Sh6XhEhx7/OzU/s09D/+d8NcQa1DDnKg29s1HNS6x7IZfebr1mSLp1vuZdKU2aO99comV/tw46Oq5Px7+pO9p2qNe4ykrP8xU5fVTGn/I5R7+Rd9fp77+yUQdPjKjshvlqWDRdZ370Ta161R+qk8xRy+1LHtGhq+brC7dO06RzIxr4YYtWxzMNgZF31+nvmzZo///4a+scP6urPjygTV/5O3X8ytzn3KEnPMet1dnXcxy3IOa1aPz2Tg386ydUs6BBDbdOl04N6LW2RVr0/BivzYzcPvqJdr5j3Ys3SLphvhZEJB3bqYTn4Z9DP2zSHW07NfBHqSK6UA1zpujYs1/ThqR7P3M5mCZteue4Rq6crnmxL6jmfLeWP9xl1u8D/O4HD6r9DUcZcf64Xm36nFb/8FfSLPO+XzBdGti1Snd807zvx/p+A4Agpz+yyr6/maYKuxy98wm99psRfaJmoRpi83W9Tpv5U70Vc8iZB+WuA4+8+4QWxVbp1eRxnb26VgtiDVow8yqdspdIO7FDX1rUoh+8c1z61Hw1xBaq5mqrXrTgm47lMof06lcWafWuAY2oQjULGjTnPxxVx9eeUa+9i+3EDn1p0Sq9+l+kmvoGNcQWarrMcnm5ow6BicVXdhrd2vDMmzKuuklfiDWoYUGtykYG9Nojd6XreGnvf1f3Ln1JI9Pna0HNZGnkuA4+9bX0fjnL2DzaapJVln/tc2p+Zp8GTknX32q11zSiU5qm+bEG1VjxvrIbrPr5jICRnsrUC+5/6YCOn/8rzYs1aEF0is6+f0CbvvI5LX/dm05H9OZjf6dVv5ii+Yvma9qkcxr5zQ7db7cdiuSMs5h1mh5tbfu+es/fqPn11vc7e1wHNzeZ9e8rc3/PfOrlF0WqCIP/+MXUzBk3pu7+x0HvplQqNZja8cUbUzNn3Jha9zPrpQ9fSd0948bUzBmPpt6zXjr733+R+u6Xzf1u6/i19erPU+tmmK/dvOD21OLbb08tXvDZ1MwZN6ZmLngw9ZPj1m6ufb+Y2vGh+cqvO+anZs64MbX4H35nvvCzR833fvGVVNCZopTZ6SeTJlOpVOrUf/11avCs44XU71PfX3JjauaMz6Y2/NKRlpe8lPq9Y68z/3rG+j87/Zvp8vfWvTLzy6+kfv8XxxsCvPeYmfad91XQay6OewulYuKl3VQqlTrzy1dS31xgpteZM25MRZc8kzrw3x07ZMmPQ887FVyGpFLZPzP9+mM/d//96NuOnc6mzvyr68AYD/a1816jLAYHfp0640xvf3nbSu9fT/3kVHg6PvuzR1M3z7gxdfcPnFtTqZ6nzbrEqn25r7l/v7OpfQ+baXrVTzPvtfPmdQfTL6VSZ8+kzvyv8HP0/ya/S333DusYCft+TKVSZ3+d2mi9ni4D0vfCZ1PrDmb2PfXaPWYa//pPUqdSqVTqf/08tW7ujamZX3zJff/2PJO6ecaNqZkPv5k66zhuy2unMvuc/X3q+1Y9LmvZ4xFULzz700fMc/rco6n3HF8rdfyV1N2zbkzNnHFPaqczj8C4stNIuo6cSqWO/sPt5mtbM6+l/tfbqVWzbkzNnHF7akOP48L969tmmnLU749uNd8/s/VHqVPpdHY29fvvWeVHOo1n2gYzFzyS+smHmXvJTDvu9JxKnUrtbDbP4bv/dZT3GwB42GVWup74l7OpUz0vWmXTfLP+mc4L56fW/cyRn/zl96kdVgzj3tdO5ZcHBdVX//Lr1IbPmeV5y2vuOospU0bf/Y+uT06995gZ87j56V+kUs7y9o5nUs5s+8xPzTpRpv5s5cVzH00dcGaR//1HqXtn3JiaefuLjhdxIQXVo3KVnalTv0v92vl3KpX6/Q/+zkwXdmzNTnczvpj6viOOZtd17f1ylrF5ttVO/fjrgWnQKTiu4W5/ppx1C08b9MzPHk3dNuPG1My5z6R6/uJ8742pmx99O5U+rJ2e7bZDFsHn4+Brfw6mfv1Lz5c7aP3Gdv072+fmUS+/WMZxhHCZPvEJ72v2dN8Zmr2wRT/4rTTpxoe17ZEq744a+WhIQ8aQhj4akW74hnYn/kENIY/jrnrw22qYLA29/IR+cMK7FQg3+Ybp0q93autT63T/nYv0+Ztj2vq+JI3ozBlJkyOquELS+y9p9eM7dOiE2U9X9kn/2Mkz7z6hls1HpckLtaUzfKp0UUbO6N8kqcx3s6HEXOy0W3bjMm3Z+67+6dt36foymVOTFt2tV0Py4tDzHgtXV5gP73rrGd3/fLeOnT4naZLKPjmRnmR2mTt/Nq+piBU3TJNxcIc2PbVKzYsW6ZY5q7RfyiwtFZKOe9/dpxFrtLo9Xa165gzdv8ucjjX00UnH0TzOv6fu+Ii1XISdNiZZy0ZIB/cfSH+HqyLmaJ/9z7Zo0+tHZSapMpVdGX6OPkav3vuDpLK7tOwOxz6TqtRQP825Z0bkLt1za2bfyTWfNUcx2NNcf3lA+0ckHfuuGu1pbTNnqLplpzmtzTilk47jPrBkcuazJ03TggXmw01Go/cXByRJNa2PaI7zq09dpvtuk6QBHTw0mrEbyN+Q9sUH0stF2OxlI4beOJB5uPMv39PB85Jq7tN9NY4L98n5+sLczJ/SkHoPDUkq051fv0uT0+XEJE1b8AVlmxBQ9ZVH1XCNfX8N6Z23jkoa0f5HMlNMq2d+zhotM6ShU2N8vwGA7Y1vmnlOzWf0+Zbv69j5Sap65CW13ejMCx/Uw3Md+YljreGBt3+u08XmQb95U/tOS7rxG1q/JKCsd5TRa5uc28s056tf1DRJI/sPasBZ3jZ9Tc5su+y2L8j1KA/joN48Jmlkn1bbS/TMnKHqhRs0IEnGWMwOwnhwl52SJk/XdP1Kr3U+ofYHYrpj4Vw1vmgubDAy4mlA3XqPljniaDXRmyTHfjnL2Lzaaqf18/+nx6wPPLbWlQYL56hbrHK3Qcvmfk13fUrmsz1+43xPhe5cOj8zk/XqWt30KeWxLG0IR5zFnqlaNXVIB7s26slHmnTHorma/Yi1HIxjmZlAedTLL5ZRBYT/zVzY1+Oczp6Xud6vo31hmqSySIUqPlWrBbFlWvkPe/Wzl4OCDdO1MvFL9Sff1n/+ynTpt99V41d26HjYVM8rb9JD6xaqTEe19bEdGrrKCgIAeRnRoce/oDtaNmjHwSGVVc3TPWvWmlMqbVfO1396+WHNu0Y6/sZGLY99RrPrV+m1972hjpPqftWcpjDtzq+5G8NjaKj3PXPtv1mf9m5CSZkgafeKMl1/x1r908G39fitZdL5o9rUmQmi+eVx3mPh+m9o+/N36forT6v3h0/oS7d9Rrcs3ahD3vXXMPYmX2WWw+//XL3etca8zh/Xq01z9aW2jUr8lxFFogv1wJPL5OoyDkvH1nJ5VU3f0XMd/n8rb57i/DSXcwe7tf+8JB1Q+02ZytrsdWZDS+90600rfnn917v03JLpKjvVo1e/fbc+P2euvvT8exo5n8c5etl1m0iFvNWmSelnLXiUfUL/h/PvKz4uV/fGeeuHuHGZ7zd4ruM7em7FTZqS47hjwjqFyVf5P/36682g5JmRnNVnjJVj3XrtmCQN6QfWuvDVM2eoeun3zTqEsVPd9nRFO+38+6vC00XW+n4203RTjWdn6zMWrAlIpx3f0T3Xj/H9BgC2SWWqiFRoWnShGr78sLYkfq7tX7aCr7nywk/9tdnpdWZEfy42DzpzxgwEVWQpg3OV0VOnm8cfsT4jR3nrkv7MhWoLyG+f67jH8wZMDP6yc+TddVpU36KOrgMy/vdP69YvPqq2BVkiX1eWueuInthbzjI2r7ban/VvZ2TWB/6D8/UiZa1bTNN0M+F7Bg2V6ROu9uokfdwXXyycM84yXdZyK7fdrdUvduvX/1+Fam7/htY3+Qe2BsqjXn6xFBUQnnK1mdiGDvX6H0TxUY/ee1+SKuTPk+Zr/d69ev21bVr/2MNaOqfCnTi9Jk1WzYMv6vEaSb/dqPYu5+LXwcpufVRrbzX3f3LviLvBBOTy21fU8cZpKbJM297q0nOPPaylt9+kv/YExMr+dpmeS/xCR+Lb1BabpnN/OKCOr35bh1w9UFN0z6MP6/orpOOdX1P7u0GdJ6M0ckBbXz4qqUwL6s0RbChREy3tXjFZDfVWwfahoaxjMvM870Kd+5O/Ej751rX6p5/9Qj999Tv66pzJGvntDi1v3eHdDWPtyvlaaI0G/f6LWR5MaDn31ne16beS5nxLe+LbtP6xb+jO22rl7R/IKx1HbtS82+b7/tVMzVbrOKf33jYDv5M+WaGKiPtf2SRJ6lHCfsLGFZM179F/1r8celv/1HGf5nxyRMd++E21WGvv5nWOXvZIBIfgjvdCVOjTAb/DvOi0TP1rXI6bcfqUfxTwsWPmA78qrs4eoMfYOXZwn1lfL5vsS9uTyyRpRPv29bjf9KcRT2feOY0Ept8RnfEml4A0Zfp4lkbaGX3iPwak09vm6/qrx+l+A4Dbntbre/dq99an9fgjyzTHOQLT9j9O+dchff935qyKyFWaMto8KOjznYwh//YTR63jV8i5Cquv/uvLxy0jn9C0ef78dt5to58dhPHgLTuPasez+3RaFVr60rva/vy3tLJpoeZcX2QDKlcZW1BbbUhDvsRarKDPOq6jx2QGi7MsPzxmPHGWSTqn/f+wUcfOS3Mef8PMM1rv0rwZWYLwWWWvl18sRQWEJ82oMUfsHNuo1S87nip/bkjdG18ypxzctlDzCnnoT1aT1fCYGZw49uK6PJaCKNOCNd9SzRVS7492ZqbAAWFODZkNpis/oTI70z1xUG++79jnD8d13Erwk6bW6s7HntcDUyWNHNdxb6Y1bZm2Pb9Qk3Va+x/5eujU+UKcO9Gt9jtXaf+INPn2p7U2Pb0ZJelipt0/dGtTV485vShtRIfesoILnyjTv3Nuci4dkM95e5gzUCzX/pW12P+v9Rs7IHH+uF571RrRaTl94rjVyz1Jk2+Yrweef9R8UNix37n2w3iYpHmt39D1kk6/8U39/bpuHXc2kM6f0/G3NugHSemk/TCXsrL0tK+Rd990PxAlJB1Pn1ErSRr43vM65AxSnR/RofgBfye27U8HtO8tSapV2669en2v+99Pv212ug3se1undVrH37c+fNJkXX/bN/SdNeb2Y+8fDz1Hn8g0c6aUsVOvvOM46ZEDemVX1jPO7W9qVSNJv3pJGz2dOiOHunXQyHXc9/RKosjjOtTMNX+T3k7PtTixQ99/S9IVtZozg7Jr/B3VgTes6Zeb3/an7c77zIcn7T+o3vOSplkj3955RTucef+JnXrlXcffqtC0T0nSkF579YCjs2dEh/75J9nvNZcKVc0okzSi1zZ7ZgKeO67XXh+Qxvp+A4B8zJqveVdI6n3RXY6eP65Xf2BOE6+ZU6tJheRBzjqw8/OdZbDtmhrddI2kkZ3a4BoUN6JDP/iRjkuaPPezul7S1E+ZgdyDXa+48tHju17Rwcyf0jWf1qfLzM/c9Kp7oN2593eq2zUNHxPXKQ0ZkjQpMzL2/HFrCaZChZSxebXVKlQzt8Isy7/z/fT9kM2587l2cH6Wu14w8u5L2vm+pMk36aZs61KNgeA4y0mdsp6WW1aWbqVk2rsBXN8zn3r5RVJUQFhX36X/tMLMeI69GNPs6FzdsehzumXOIj351mlpUpVWts7PPfq3ENcs07eaKiQd1dZHvx++dMTVDXr8IXq4UKC/qdWcK8wncba0rNOTT61SY1OXTjk7No6/pMa5i3T/uif05FNPqL3la9p6QtI1N6nGO4xNUtncp7VtxXRz6vzX1rkbxQU49nKT7li0SHcsWqTP3zxDs2NPaP9H0uQFT+ufv31TZs0clKaLmnZH1Lu5RZ+Pfka3pNPoXC1/47R0xWTdec8XzKludpDBOsf2lu/qUD7nLUfgSvvUfvcqPfnIOr32B0lTb9K8aySdP6D2RXdr9VPrdH+sSW+aE3vS/vyzdbpl3t1a/ZT53VcvXWdWkG/9rGs/jJOp92nb8w2afIV0ev8TarxphmbPW2TWG6KfUWPbTv3+nFQxs8ZMK/vXqfGRJ/Tkuhb9/TOeilZIOp5cv1Yrb5B0ep+W32bvt0pfmjdXy3dlr22d3t9tpomahfqsb3aTNGnufLMT4Vfd2veHP+vQ43N1y9JVevIp6/MfNzsh5s35dOg5+lxxk+57cLqkEe1/5HO644F1enJdi+647Rkdv6bQkQeWyQ1qWzFd0mntf8j6zKee0Oqlc3XLN3fKOG8e94GHgo77bR23ZoKNxqTbVqrtxknua/HI3bplyUZzncaH1qrhau+7MOZ+1a3XDEllX9DCG70bJd0w35z6ObJT3YckXXOXvhGbbNa5l8zVlx6xrtsX35Q+5X7rnK+bAzZG9q/S5+tb1P7UOt1f/zk9cXxK3ku2VbU+rQWTzZl9jXY+va5Fd8yNqaP3jKQxvt8AIB9XztdDj1RpkqscXaUvzYtpk/UcpLb6yfnlQUF14Cvn64GHrM9/ZK5uibWo/SlzPdhbnnlP0nTdt8Zcn/3Y5piVB5p57PI3TktXN+hbreZ09Yol31DDZGt9UisfXb10rr70ljzruVfpgScXarKcn/mE2h9YpJvv3KDef3XtjAnrr1UzR5KOa2urmW5W392kVz4qJiIQUsbm2Va7fqlVp/vtd9U4d66aHzE/q3lhi179g7mP3XFxvPNrun/dOt3/4nvuD7Fc37RWd17trhe0P7BIn39on05fMVkNj39DVYGzjYqTX5ylQlWzzAbC/kdj5jm1/J2eSHo+LNv3zKdefpEUFxCWNK2pS693LFPNp8o06dyIhozTGrlysqpuX6vt+7u0NOQBcIW6vvVp3WlldO0/Ch93UPHFp/XAOPYc4DI0uUHrty5T1Scn6XTvPr3ZKzW8uFH3OBsU0z6rBdf/WUff6lZ3vFv7j8pM869+Q9dnyZimNX1PW26fbDaKW/NYCzvIyGnzIYvGkEauqFDVrffpufgv9NOnFzoe5IKSdTHT7uSbdM/X5qsq8nGdtdLoaU220uibaptjdQ1es0zrH5uviknS6d59OvjfzmpSPuctM3C1dusy62F1B9Tdd9pa/2q6Hvjed3TnDWXSyFEd3Puezs79jrZ93T3tZsqn56vm6iG9Fze/+3unKlTz5e/op8+aDwXB+Cu79Vvau3+b2m6v0uQy6dwfhzRknJaumqaaL39L982Q9LcPa9tj8zWt7JyOv9OtAx9O09p/fNTsUbeFpeMrpmnpy3v13JIqTf74kHr3d6s70aNTUxeqra0hS5DqtA7sNQPPNf/XZ/1r9cm59MVRvbb3/1XVvFpdZfxc3fFudcd/rlPX1mrp82/ruQVl4ecYYFrT97R9hfndh5L79Gbyz5rzzE6tv62Yyr3JrKfdpaqrP66h5D51x7vVe3qaFjz6qOqte6ziy2N/3IwK3fnS29r+6EJVXXnSvBbv/F66YaHaXn47s04jxlXvvjc1Iqns9i+41+NOm675t1sPlHnjgM5pkuY8ulPPLalS2RUjOvZOtw4cr9B9L31P3/AEhHXNMm17+WHNm1qmc3/o0f697+ls9Gn981NfyH/JtrKbtH5Xl1beOk1lZ4/qYLxb3Qd/p0kzl+m5r9dKmjLm9xsA5KPii1366ctrteBvP66TyX3qjh/Q8SuqtODRLv30Jes5SPnkQUF1YEnTvtyln778sOZ9qkxnT/Rof7xbB49K06eZ8+EnzVmrvfHvaGl0mnTsgLrj+9T7R7MO+3riW5nnfFx5kx5/9Tu682/LNGnkqA4mDuj41V/Tts5vmDPpHMrmPq0f28f87QF1x7t18OgkffrL39EDUc/OmKAmq+HpbVr6t2Wa9FGP9u/tlW5/Ud9ZGlzLzS2kjM23rVZ2kx5P2PXvEQ28Y9a/h/79NE2zgscVS5/W47dWaNL50+rdf0BHz2YZPnrlTWpL7NVzX67VNJn1gv29Z1QRXabn4m/qcedDHsdCnnGWqode0uO3TlPZ+ePmPTb1Uf3zOnNmolO275lPvfxi+FgqlUp5XwQAAMDFdejxGVr+hlTz2Nv6z7HAUDUAAAAAFKzoEcIAAAAYH+fe/76+u1+SqjRvDsFgAAAAAGOHEcIAAAAX0dAPW9T8z3/Wp6N/pU9IOvPfDui935hPB79+RVz/1OSd9AkAAAAAxSMgDAAAcBGdPrRBq555U0cNMwisK8o0+YZaNSxdqftuqxi7h/QCAAAAAAFhAAAAAAAAACgdrCEMAAAAAAAAACWCgDAAAAAAAAAAlAgCwgAAAAAAAABQIggIAwAAAAAAAECJICAMAAAAAAAAACWCgDAAAAAAAAAAlAgCwgAAAAAAAABQIggIAwAAAAAAAECJICAMAAAAAAAAACWCgDAAAAAAAAAAlAgCwgAAAAAAAABQIggIAwAAAAAAAECJICAMAAAAAAAAACWCgDAAAAAAAAAAlAgCwgAAAAAAAABQIggIAwAAAAAAAECJ+Njpkx+lvC8CAAAAAAAAAC4/H0ulUgSEAQAAAAAAAKAEsGQEAAAAAAAAAJQIAsIAAAAAAAAAUCIICAMAAAAAAABAiSAgDAAAAAAAAAAlgoAwAAAAAAAAAJQIAsIAAAAAAAAAUCIICAMAAAAAAABAiSAgDAAAAAAAAAAlgoAwAAAAAAAAAJQIAsIAAAAAAAAAUCIICAMAAAAAAABAiSAgDAAAAAAAAAAlgoAwAAAAAAAAAJQIAsIAAAAAAAAAUCIICAMAAAAAAABAiSAgDAAAAAAAAAAlgoAwAAAAAAAAAJQIAsIAAAAAAAAAUCI+lkqlUt4X82co3t6mD2I7tLLavSXZuUzbktYflY1av75eEecO/Z1q3nLY+iOixRs6FCvPd7t53D2D9t91aulqVdT+06m/U83xiO/4rvMbzedLMhJtao/L9Rnma4Zrv6rl3t+pT5uaNmvA/jO6QttbZ3m+u5v/M5Av9zV3mxLr0LP1rhTq4UkT9rVyCEvzo91uMxJtajeW+I6P0uBPx7nzJ2BCGE5ozVpDsXFLq1Z5GpA352U4oTVrd+uk68UC7i3r/cpVloz7bwCEyV5vd7HqoTnrRtY+o6qX9neqeYvyv8+K5Cs3i80nLiDfOfvaKgHyyYdG4wJdL2C85XV/+eoFAfsoe6whuz5tatql64I+S/nfx0HxB1zCfOnIG49yyBEnSMszHY1W7pia/N/DW/564l656h2jSfNZ4yee+zxXncYb3/PvG/JdJ6pUkYa616TuvWdp6t57lqY29gVsW9edGrL+PrJ1aererb2ZHYzu1Op71qR+bFh/921N3XvP1tSRPLcPda9xHdN7PFNvaqN1fr5tfVtTq7sdrwQcf6Nje/Dn2+zjOM7Xeo/rGD7m+7y/XVZ9W3OcAwp1ZOvSkOvj5k7DQ6kfr3O/35tGvGl+tNtTKfu+sNK0dxtKgJXXePIBMy925z/AhGN0p1Y7y9mJJuD8zHtrDM854BjAhZKr3u7Tt9XaN1t6NetBeX1WLt76d4GGuteE1Ies83TtM5T68Va7HDW3j+o75KXw4/jqqaP8rbzCf7sAY3wOwMUSen/1bfXXrfu2eu7hHLGGLI5stfb3frbDUPea1Op1uWIPKStPWZNa7WmP4lJUSDrKvyzJLx2NUlhMzRfT8MZQelMbXeeXKz4WHHMLlTN+4jmeNwbp4qw7BO+b+7tOXMUtGdHfqfb4VLV0dWhxpXdjn3bGpcUPZnotog2NmpLcpfiw+Xeye7cUW5GJ7FfXa3HlYcUTZsQ9bHukvsMVjY/UL1HV4GElrc83o/ObNRzr0PbldZkdbdWt7p4H6/OP9Ft/l9drpWN7pLZOU1yfn5Hs3KzhaJ2meF7/0HCPDvZKdprnl60Hws1QPH5YVbGQniCMj+GE4sk6taR7eCKKxep0Mp6Q2SEWluZHu93cZ9Pa3SpfvkPrY6SCUpTstEY/enqEI/UdWh+T9ryYUO5cB0AhIvVLVKUTMgLKfuCSkrPenkVlnaqcdWOn4V4lByOaku9nXSzWeS5ucI7QiSjWegnWp6trVKUs1wPA6Hjur2TPYSm6xD0KsbrV0W4PiTUEMBJt2jbYqPVdK1Tl3ZhmKNkjRR/0xjY8hnuVVJ0eitXpZE8v9f9LVoHpqD+hPWrUXaHxozzT0WiFxdRCYyiztNLVrp2lu2IRDfT0pV+xZYu55ZY7fmIkdmkguiJzX5fXKxY1tKfbf3xf3aG8RtFKQ8ke6+4L/a4TV3EB4epWbc82XWh4SMOaqogzA7V+sA8MSTJkDErlla6QhqK1EZ00jDy25yOi2PodWYebF8fznWRWsLcNNuqhhkKP06cjyTrF8j2/vG9+jAvD0MnKiK51vlZdkwkUhKX50W6XzAyzyzstAaWjT0eS3kZthtkptls7rQLYSLSpuT0ho79TzU3LrH+d/gLJtX2ZNqUbmobi7cu0JmEo2ZnZvsbqlANGz0xjwenTTn99jn3azA4yZ5ptd3aCZNJs2nBCaxzpeyzSr/N+cJ9znza57iHv8dvkWUUKuHBy1duzimh2bUQDcX9nozlwY4n/8zxlivOes8ulZKLNty3Ner9zW/A9Z97v7XFDSm72vSetvELlctalHIYTWtNkTu0c2OLNYzqVtL9Lp90w9ORZrvwnx/ZsxylKRNfZTYfA8/TmQ+bf6XPq7Av97dy/tydPAy5rmfvr2khEGhzy5X0ZhccaIvUdvkEdPlagN1o+S7OzBqYko+ewVFujSHWNq/6PS00h6aiAAYJh6cguP7z1VEfZlFeZHSYshpKvomNuueMnHxqGpkTcnxmtrUvf+8nOoLLeLR2zHKvvehEUFxDOJejHcDH0waCjQuMTtj1Af68GvAG1QlgjCLId06z41nsqvn3atOWEa1Sn18m4eQP5bqLhIQ1XRnRtWLDGkuw5rCm1NVmPg/FlDJ6QKiuy//5haX6024GgTgOXWZodlYYHHfnM4G6199Roe9cObe/aofWxE9rmzGfSawGa27dvaNTwFndl4GS8TUdqre3L63QyvnkUDVnAYbhXH9R2pNNnS/SwtqUDL6aT8V3Sg/Z2Q3vWLjPXV+vaoe1dK1Q1uFsvZKugDie0Zu1hRTdY6bdrhcrjbQUFN8xR+ZkRQsnOZdqmFe57KltF0VqTrHx55viKe9coBia2a30z8JTuoIzW+mtFyR53mSJvmTG4W3HrHvI1gIcTWmOtSWxvy37PmY3o9bGIuUZf0OdJmdFGWwIas+X1etYaMV21fIe2dznXJDysbXb52TrLCqK2KenMsyp3q90VLM6yPedx8ufNj0ze83RyjDzrMo+7OKJ0AML/25mBYufvbdYLCArj8ue9v+yBFu052ufjIdm92wz02oGpZG/A8c2ZpWYebNb/g0ZU4jIz3KvkYJ1mZwluOuWXjg5r24vSQ3Z+v3yq9qz1dFjmKrODeGJqoTEUH3PErTtIGx5zK07QIFS3az3BYhfPgM3Cv+vEMfYB4RxcwYogOXvismxPVyALHflgM4eSu5aokNUrYgVrj9T6bwJzyQf3e5yirXYj0K4Ut2Uqo4ahk0HBmqCGpTX8PO/RxLiAsow6cQhL86PdjhJRVKeBc9qKPf3dnsZj9TI7801rmkx66ovMxfDTvarV9VrsGrUOjIJnaSZnj7xtiqOMjTY0aooijgqhGejJNnPIt/RUjmloGYe1zTEy7kitI8jimwoWtFxVRrJ7t0467x9FFHuwscCpbsDFNkt3xeQaXWROsfQGJk3RVmeZ4p3pJEnZ6rN2XdyxlFqB91w2kfqOdD08/xGvnhk5VsPvIWee1dCoKXYjO2x7kZwDS7Z5fgtT9plDtkxjN6JYfY59+xPaM+g5Rnm9HgrNN4FLU+77yxxZ2BK16gVBbfQx5+lsy7ZMTH+vBirrFLXrR1kDfricBA9QDJJnOnLVqTPtPFc7MGuZHSQ4phbMWzcwJTvbfGVpWMxtXAwa+jBoVL9zRHVPTfiIfynrd51ILmhAOFcEXlJ4VN27vb9TzdYInGxDwXMaTmhNk9l77g34Ruozvfyze9wjeI1Em7Zphe89WVkVKvcaP0GVXP+UD6PnsE5Ga/K4+TFqnunF4YV/9lHltrA0P9rtKCFW4ZQ3XwA5ouvS6z0a+iA9fTXzb1tSrgCbdxqN6KTAWHLOknE8YTi7XKPkncxef2djr7nJmiId1LGcVpce3dgSlXuqvGHopCdg3Ny0WQOBFT3z+EH3D3CpidTWOQKbZmOxqjZbYNG5bELA09F95ZIknUiPZHXVqwu650KU1+vZLnOmy8AW5zIQ2bjzGmPwhDnrxnkua3frpDUVNGx7saakR/fu0PauGh3xBbRz5YlmQGBgSz71WXt0k//6RCqnhuSbwKUp/P6yB3h1aLF2q31Uy73kwRPozTb61zdzOGvAD5eP7DNzfPJMR/7yI6KI97kAAWVCoBwxtWDeGIo1Q2WwUesdQdaCY25jJdv3tusSXTu0vbZXzQF5hp/3u048Yx8QjkQ0JWfgIqLrfCMGnMK2m4xEW3q6c1HB4P5ONVvTScMSWbTV7CE0H2rXp52OdbcylT5zOqtvSpolUjnV/YIvoTmDNbawijfGlPMm79qR7vUJrQyHpfnRbgdC1yAqoKLgYE5f9fzzjUACxl6yc5l7yZJ8HqZRIHdjz52vh4m2mg1A95IUmYCx81+2OggdergslNcrZteBcz3TwlorN7NsQgEPsJOyPBipsHsuVHWrtm/wPrQ3T5WN1nI1zn+O5R/Cto9aPrMc3OzBLS2VZrA6WxslzTvwBigZue4vc5mVlqC1WMdQsuewr2NpW1Ke0b99OpL0dnhv1oCCAn64bPiCvNnll47GUI6YWmgMRbLWurfqDq46enExt/yZAfCiBzpVt5qdzNbgkfy+68Q09gHh8gqVewMXrjVPgn58Z+AzbLuZ8Np76rS+4AdkWIYTWrNFaimqomZOIXFV+DZYU1kDbgSbMXgi80d1TcCUt4C1kwtYKwbjKChg68yYw9L8aLcDyvJQAIuR2JVHRcGZx5gdUEUXgkChDMOxfq71kMQNRZbhocx6RLblJPLjeTpwJKIp3nw6K/P4vsaZ6zcALh3RWvNJ9nHvyDQHc0ZbMSN5piq23hqB5xy5W9A9V4DyCuUsKgOYDb3sHfdh2y+2aKu9fF32p51HKqcGBgwu5XURgbGUcz3RUbPrRf5OpcWV9qA0u/0Z0PlUbEcXLgm+UeFZ5ZmOAoWvqesTFlMLi6FYa93L8eyAjOJiboW4NuJfei7/39oj9LtOXGMfELYDFy9mpid51zyJ1noeTuQZcZB7ewFPWMzCez5eRqLTnaH2d2pbQev49mmTs1I7nNALccNxzgG/UcDDIoyew0WsG4oxV16jaKXzgUfeNBhwPV1pbLTbASnaukJVyc2+qa5Gok3tcfkX2/c8cMudx9jBLvcDf3x5HzBGkj2HNSWdp5kzgTLrlPVpU15LRuTPXL9zs3sqV39nHlO7HKrrtdjO+601tp35tGQo3hk8Fdtc08/ZOBv77whcMNX1Wqzd2pOjLuwNKBqJzf4lI7KKKLbeU8ble8/lGpEznNAaX5np70AN7Rx15gVpjrp+2HaL8zhGos1XnudktyXynjXoOX5Qh5Tztwv6DsMJvRBX6DrFwCXPc38lO73LQ5ijFfO//woTlC+ZzNl/5gwKs/0ZGKyy1mx3r/+Ky4M5KjyfQG1+6cjmzu+NxObsM4CyCI1XhMVQcs06yos5urjYtqu5JJajreB5dpeRaMssuTSc0CZXQN2s16e/S9h3ncDGISBsLbFgTU9qbjKfWOuK4le3Wk8ytIZ/b5FanEPEw7bLv/Zlc1M+a4JleNcWbG7KrLEVqVTm2PbxCx2N7Brebg6jd05x8/1Gg41a75mq/aFhBGf6uMAi5uiVQfuamtMacl5PT5of7XYg/YALOfKWpmXWbImAntnKRsUc+/rymOpWrY+587p2o8b/OUDRMuuJuvM08wFr9kOempt6NXusl4wor9ez9nqh9v0SjxRY6TQ7TmRVFu1lJDLT8Nr0QW2Wip63HtPUq9kbeKgcLlVmYzLTqROgujXzAKamZXpBSwpaMkKapZUbzI4cuz4eds/Zz9/IuhxCeYXKnfVxu8xMtynsztE2NedsVDoC1unP2qXr0oHSPLZ7jvOh4X2Sup+rrVLwM1Miui5db/W3Zfy/nbeua7dfAuoXwGUg1/11bcQTC2gyRzHmf/8VwgzkZmvzR2rrNGXwsJIDvUoOZlseLijgh8vC8JCGlc+s4TzTUbqcq1OLtQ5uc9Mytcen+uJt+cgVU/OXK/4Yind5C3u/7OWxw/CQhn1rIRegvF7PbmjUsN1WWHtY0WyzF8srHO2WoDwhj+86QX0slUqlvC8CAC5dRqLN0+gFAAATgzVN9kGCrQCAC6y/09dJeEnq71RzTw3PvxmlcRkhDAAAAADwMvSBgqb1AgCAfBiDJ8ZtGZdSQkAYAAAAAC6IWVrJDB4AAIoWqb80lmSY6FgyAgAAAAAAAABKBCOEAQAAAAAAAKBEEBAGAAAAAAAAgBJBQBgAAAAAAAAASgQBYQAAAAAAAAAoEQSEAQAAAAAAAKBEEBAGAAAAAAAAgBJBQBgAAAAAAAAASgQBYQAAAAAAAAAoEQSEAQAAAAAAAKBEEBAGAAAAAAAAgBJBQBgAAAAAAAAASgQBYQAAAAAAAAAoEQSEAQAAAAAAAKBEEBAGAAAAAAAAgBJBQBgAAAAAAAAASgQBYQAAAAAAAAAoEQSEAQAAAAAAAKBEEBAGAAAAAAAAgBJBQBgAAAAAAAAASgQBYQAAAAAAAAAoEQSEAQAAAAAAAKBEEBAGAAAAAAAAgBJBQBgAAAAAAAAASgQBYQAAAAAAAAAoEQSEAQAAAAAAAKBEEBAGAAAAAAAAgBLxsZEz/zPlfREAAAAAAAAAcPn5WCqVIiAMAAAAAAAAACWAJSMAAAAAAAAAoEQQEAYAAAAAAACAEkFAGAAAAAAAAABKBAFhAAAAAAAAACgRBIQBAAAAAAAAoEQQEAYAAAAAAACAEkFAGAAAAAAAAABKBAFhAAAAAAAAACgRBIQBAAAAAAAAoEQQEAYAAAAAAACAEkFAGAAAAAAAAABKBAFhAAAAAAAAACgRBIQBAAAAAAAAoEQQEAYAAAAAAACAEkFAGAAAAAAAAABKBAFhAAAAAAAAACgRBIQBAAAAAAAAoEQQEAYAAAAAAACAEvGxVCqV8r6YP0Px9jZ9ENuhldXuLcnOZdqWtP6obNT69fWKOHfo71TzlsPWHxEt3tChWHm+283j7hm0/65TS1erovafTv2dao5HfMd3nd9oPl+SkWhTe1yuzzBfM1z7VS33/k592tS0WQP2n9EV2t46K7019DdEQdzX3G1KrEPP1uf6dT1pwnOt5P38gOs1uu2FpUlcfoLSrz9PGWOu/NPKrwLS/lgK+p7h92eehhNas3a3NFafh7wEXdOwtBtUro4pVx1DrjzVPN+xzWONRJvae+p8+T5wQVh530n771z5uHVv5LxHs9StZd8/sj+/iHKjv1PNW1TQ/ReUx4xZuZFDsnOZ4pE8j5PjNxs3wwmtWWsoVsBvCZQCM8/wtv8tOe5VI9GmdmOJPz/LGbfwyxmH8ObXtoB81J/3hR8bE1S2dOdJDznLZqcL1ObJmZYlfwzDm4499fFcZfdo2gZZ7135zyGf3zjwXAr4LhNKqkhD3WtS996zNHXvPUtTG/sCtq3rTg1Zfx/ZujR179bezA5Gd2r1PWtSPzasv/u2pu69Z2vqSJ7bh7rXuI7pPZ6pN7XROj/ftr6tqdXdjlcCjr/RsT348232cRzna73HdQwf833e387mPuZQ6sfrPL8hRuXI1qUh18fNnYbN6+F8vzeNeNP8WGwPT/O4nPnSrNGdWp0jDxkTfVsveDrzfU8rryzkfsXE4rumFyLt5mDWXxxlfiqVGure6irDxxp5Ni6eodSP1znTu78Ok2HVN8Puzxxlg7f+UjBvnTwPvjzmApUb/uPmkOM3GzdGd2p1gb8lUAqObM0SI0hluVetesu99wTkbyFxC5884hD++9bOm92v+/Ig72fhEpAjZuWNF/Vt9cWcshnqXpNavW6c655hadlXJ/DWP3pTG13nlys+FhxzC5Xr3k0Fn3O4oHMp5LtMLMUtGdHfqfb4VLV0dWhxpXdjn3bGpcUPZno3og2NmpLcpfiw+Xeye7cUW5GJplfXa3HlYcUT5ojasO2R+g5X1D5Sv0RVg4eVtD7f7InYrOFYh7Yvr8vsaKtudUfrrc8/0m/9XV6vlY7tkdo6TXF9fkayc7OGo3Wa4nn9Q8M9Otgr2WmeX3Dvg6Fkj6GqmP0bRhR7sFFTkr3KMsAV42k4oXiyTi3pHqWIYrE6nYwnrOsRluZHuz2fNI+SU16vh2IRDfT0ebdcZmbprlhEJ0PyVFxCLmraNcvXKbF614i5SH1rwaMNgEtDRLH1zhGiVh2mp1feXNVIbNaeyjpVeV6/9FBuAMhtSqxRVYO79YIVX8iuT5vW7lb58h1aH/OP9guLW/iExSECRRRbv0Mt0cPa1pmj7lRdoyqFfRYmjpCYVX+vBiobdZcdA6huVUvUrMfmZijZI0UfHOd4QVhaDo2hzNJK14hos+wOah9ki7nllvvelfq0acsJLd5Q2Cya4HPJ/7tMNMUFhKtbtT3b9KPhIQ1rqiLOhlV5jaKVhj4wJMmQMSiVVzovSkTRWrviFrY9H2amObZDtD3fSWZgfNtgox5qKPQ4fTqSrFNsTM8P48YwdLIyomudr1XXqEonZAznkeZHux3IZXDIatQbircvU3OT9a894Wjs92lT0zJt6nfvs8lbYezvzLy/qdPTAWW+d026glvkZ/Z3es6tCMMJrUl/puOchhNa09SW7kgxOc/bPmfHZtf5ZbYlO53fNXNM53t9+6Awdtrt78ykjaZlau7sy7zm3O56s3ldndcrcx29acApokilctYnjESbI42OcTp37he0HbhYhhN6IT5VLa013i2j4C03vPl3m+L9Ca3x3d/e/QK2F8y8l133qWu7pwz1bffkM7mCMsXwlGvu/CHzOzrPwVf+eH/boAxmLI4DXBZqtHJ5nU7GN+eoM8gM9HRlm0I+FnGL/JkDhsIGiEV0HSGGS8R4xKwkDfcqqTpFy2dpdtTQnm5PeWXXq71lhuM+sOvCyURb8eVAWAwlX0XH3HLdu1bAPbok64CQZKe3jBzNuUxcxQWEcwm68C6GPhjMlVGFbQ/Q36sBb0CtEMO9SuY4ptnz5x5NlO5RcIzq9DoZN28g3000PKThyoiu9TYg0zuYvScDcTsBGoq/GHQOuBCMwRNSZUXW6xya5ke7Pcho0zwuCx8ahpU2zfWZkrUd2t61Q9u7dqilcrfaPQ3WgS2bpQfN7etjEQ1sceQ7/Z1q3nJCizeY27d31eiIa43VYOPxmS7DCb0QlxY3WL3LwwmtWXtY0fRnrlB5vM0M0FkdKa6e8+FeJQezdMD122tVWp+1oVHDW8wKUbTWM4LOMHRS0vCg/UpQIwD5yqRd22Ft66kxr4N3fa+gES/WdZ1dLbOTVSvSaX99TNrzYvZgq9mg2uyv5OUwJul8cLfa7e/YtSLPkUnA2Ev2HPbcf2Y9s3x5lsEeY8Va07B8eSb/VjxgrUwd1rYXpYe6dmh7V4cWV4aMivMKKjeaNkvp4+7Q+tgJbXPWvYd79YGzDPWMxEt2LtO2wUatt8uL2l7fusVF6+9Us6tcs8pwTx51Mt6mI7XWPt5AVj6/7VgcB7icWCMufQGzvBURt/AKiUO4lFeoPEcwLdm5OWeAC5eY6not1m7ttOu//Z3alsegwmT3bqm2RhGZ7RkFdiI4y9kd2r58qvas9QyoGNytuFW/zito7UnLoTEUH2sWX8T5jvCYW7GMwROaEolk7ey91nUeKvBcgr7LxDT2AeEcMg3pLNIj3bII2j6c0Joth1VVdCXWHErumuohq1fEShhHav03gbnkg/s9TtHWTGVr+4ZGKd6WCQobhk66GoZWxdRZIatu1fraw2q3emz2VK7wnQMutvARvGFpvqjto07zuCz0d5oPxGiYJfUntEeNesiRRwSNIpjiyLMi9UscPbSG4vHDru3SLK0Mmr7kMR6f6exMa35Reqgrs2C/b2qea0qONSrDEcg1eg7rZLQm4F4xz891H5XXK2ZPxYpEXEsFJXsOqyrqCBK7ApIoiDPtpnn/dpql2VG5pl25r+ssrXQEkc1lngx9mH7Fo7xez3Z1aLF2m2VsHoGmsUnnzmlz1pT2gGn7wHgyEm3mQxMd94y5VMSK7KNoggxa94/nX64gabJ7t05GncexlkRz72bmB+kGlzlIIrhBmxFWbriPK0XqV+RcLi5aW5dpdwwnFE86z8kOJKV3H4WgPESKtq7wT/V1fofqei12zCTzf0fvbzs2xwEuN9HWFapKbvbP/BmtoLiFT3AcIjf3/ejM+7x5Oy51EcXWr5C2WGVbXssb9OlI0mwPSVkGVUiecjaT17uXowgPPmcUkpaDy5RkZ5uvPRsWcxuNDw3D3QHa1aHFg5vTMbtIfYe2O5aBKORcgr7LRHVBA8KhI6nCehC82/s71Wz1hhdUibVZIwaGA54AGKnPjBKY3eMewWsk2rRNBQRorfUS3Q0/d4Ztrglr9wCZU7ZecI54iuwqaDQTipBzGl2Q8N7csDRf8PbRpnlc0lwN3i1Si9XgNQZP+Bvna3frpGcUgS89pQtkQx8UOdrV/57Rf+aUmJX/bmjUlHS+KMkalev6HZqWqT1upCve7jXfrfXYa4Mqx+b5DdiVLEcw46RheJZtMZf5md1aoyo70GgYWQLNCJIt7WbknvHgHuFgrbvuDCA78++gp3P7mNP0tneZDcGg6eFO/nRcRDovdCYIMMaSncusZ4A4GpT9nWrvqdP6QoMIlY7Rso5/2YOkZv6d32iZ3PlBkLByw39cc/kYV8e7c+aec5S/YehkEeeUn2x5SETXeQKx/u9gn3+27+g0FscBLkfWwALnzJ+x4I1beOWIQ+Tmbn+m876uHeYMpaBlrXBp6u9Uc1OvZqev7xJ9sDbk+vb3aqCyTlHHIAXvoAqTt0wzy0SXfOutBadlbwzFjH1tG2zUekcAtuCYWzG8HamuNY4z8j+X4O8ykY19QDgSyT0yJ6Di4Ra23WQk2tJTfYsKjDmmTYVd2GirOXXMXBy+TzvjhpTc7Am8GNqzNvv6KpHKqe4XfDdYRNfZN2HAFOdI/Qr3lAGMvfJ6Pets2Fg3caRyau5e3rA0P9rtllGneVzy3JU+Tw9xYOPcG3TLxVs4j4VRfmZ5vZ5dXuerpLt/B/f96l6fO3wUb5VjCnH6X+ssyRptPNDTZ60xVaOoIrrOGlGW7Dkc2GhGsJxpNx/V9VpcaXVweCq7RqLNPQ16Q9CIw2xmaaU1JT3rA2BCjTKdA+POaqBohef+M0eNujsUN2tAVmdZHqPnC+UPSI6xLOVG2HGTnXZnlZWPeEf5++rtY2ls8pCw7zhWxwEuN/aMgcLrAfnFLXwKiEO4hC4ZeOk8yArhkj2HPQ9BNmegZZYV9Uv2eMt0a+ZOyCybouVIy6ExFMla399a9tAVQC0u5lYoX1suEgloQ+R7Ltm+y8Q29gHhoLVtXI3ygB551yiusO2O0QzFNCplT7kPGqGUD3NxalfwYEOjpiiixQE3gs0YPJH5o7rGPz3LuQaRtVYlJoiggK0zIBGW5ke7XWOQ5nFZMwvc8E6F7MwKrfepta58q2Bj9JmupzWHPxDMGcg1eg7nWHvd7ITLNerJrsgkB0+ky6dobUTDg30yBh3TsXABRBStlZI9hllBttZGS9cPlhdTntsCRkXkbYzSOTCOkp1WA8U3CtgeKe/8t0JVdmeZb//RMO8zX6BiPOq8AeWG77iudeDNKbZZp+J6lhAyme8fveA8xNUuCJXlO7p+27E4DnC5MpdYUXyz4gXd13nELbyKjkPYy75kq9fi8lJMGWOXZd5yPZ+BD0U8GyUsLYfFUGQo3m6u7++PoRUXcyuE73kxsspNXwdwPueS67tMbGMfEJb1NEPHA128D2WL1noeUGCtf3mXFfzKvd1a9zFWfNTdez5eRqLTvaB2ngt4Z/Rpk3NUxXBCL8QNxzkH/EbOReCttV6cN62R2Kw9ISPdME7KaxR1PdDEmwYDrqcrjY12u/d4gIfV+HU/dMeTD+Vkrb3rnCJj5VvFG6vPtKfvmGWC/UAw13Sp/k7X35H6JapK7tILPcoRtHV/rs2V/1fXqGpwt7bFlW4sR2rrpPhm7ZFzOhYuhEhtndSzWXHn2mi+QIj5cKzsASZD8XbPtFBrfdDsaSWXsUrnwDgZTiheUB12/JhLv+xy5Ll92hT0AMZRCy83jMRmR9vCGyz1nJc188T54CmzXp7ZxZwyW8yU8+CyqNCHQ4X/tmNzHOCyZT1HYk+8sDwpd9zCLywOEcwceRj6TCE75pAtGI1LSED90srXM4Mi3IzELs9yETb/M1Ykd7vRXSbmJzQth8VQQu6VcOZ9UfRDT612XuYBz+bva5+fkWjLYwlRy6i/y8UzDgFha4mFysxQdd96G9Wt1pMMHesJOodVh223p7I5hsI3NxU2tc27BmVzU2bN2EilMse2j1/oyEzXkHJzGL1zmr/vNxpsdKzfNksru1ao3HGOvjXfcAFFFFtvLjJuXg9zpE3O6+lJ86PdrjFI87icmQ8dMNdCtdPHLl2X9SFdfpH6Duup69b7X5Qe8k6ZLdCYfab1oIM9LyZkpKcDO+6DeMRTAJudLCfDgrbVrVofc+f37UaNo2FsrrslZ+WqvELlUtbKGMZReY2iMnTSE7ywHwhjXsPNUizXkhERRSoPZ9Jkk11GZxndkIcxS+fAuPGkeetfznUIx4O3ft/Uq9kFLfFSAG+5saFRw45yo72nzrG+nz060K5392q26x721gPN53y41ksOHFXk4V3r327I+n4Xa3mPQkZo+z4j4Lf17VPEcYDLWLTVnCFREO99FRC38MoVhzB58+xdum5D8KwN12fxnJnLiq9+mXOdXrNTM1v7xP2MFZnPs6rtTaed9vjU0HQbJHda9pad/hiKv1w098sryDs8pOGcS6iE8cbczN+36PtnNN/lIvpYKpVKeV8EAGA8GIk2tRtLAiu1QG6G4u1t+iA28Rs7pHMgT/2dao5HLpmHr2RjJNr0QkBnPgAAE0p/Z3EDHiea/k4199RQ1x6lcRkhDACAD1PZMAqXzNJJpHMgT7mnv15KPjRyLVEEAADGkpF+xgtGgxHCAIBxYSTa1O5aSzWixaOYmo8S1d+p5i2HzeltE3A0A+kcyFP6Xs6oYnozAAAXzuUyQhhjgoAwAAAAAAAAAJQIlowAAAAAAAAAgBJBQBgAAAAAAAAASgQBYQAAAAAAAAAoEQSEAQAAAAAAAKBEEBAGAAAAAAAAgBJBQBgAAAAAAAAASgQBYQAAAAAAAAAoEQSEAQAAAAAAAKBEEBAGAAAAAAAAgBJBQBgAAAAAAAAASgQBYQAAAAAAAAAoEQSEAQAAAAAAAKBEEBAGAAAAAAAAgBJBQBgAAAAAAAAASgQBYQAAAAAAAAAoEQSEAQAAAAAAAKBEEBAGAAAAAAAAgBJBQBgAAAAAAAAASgQBYQAAAAAAAAAoEQSEAQAAAAAAAKBEEBAGAAAAAAAAgBJBQBgAAAAAAAAASgQBYQAAAAAAAAAoEQSEAQAAAAAAAKBEEBAGAAAAAAAAgBJBQBgAAAAAAAAASsTHRs78z5T3RQAAAAAAAADA5edjqVSKgDAAAAAAAAAAlACWjAAAAAAAAACAEkFAGAAAAAAAAABKBAFhAAAAAAAAACgRBIQBAAAAAAAAoEQQEAYAAAAAAACAEkFAGAAAAAAAAABKBAFhAAAAAAAAACgRBIQBAAAAAAAAoEQQEAYAAAAAAACAEkFAGAAAAAAAAABKBAFhAAAAAAAAACgRBIQBAAAAAAAAoEQQEAYAAAAAAACAEkFAGAAAAAAAAABKBAFhAAAAAAAAACgRBIQBAAAAAAAAoEQQEAYAAAAAAACAEkFAGAAAAAAAAABKxMdSqVTK+2L+DMXb2/RBbIdWVru3JDuXaVvS+qOyUevX1yvi3KG/U81bDlt/RLR4Q4di5fluN4+7Z9D+u04tXa2K2n869XeqOR7xHd91fqP5fElGok3tcbk+w3zNcO1Xtdz7O/VpU9NmDdh/Rldoe+ss6w/PObi2oRjua+42JdahZ+tdKdQj/HqEpfnRbfekFd92lAxX3mjy5y0Xmpk+daHPI0v+jokl2blM8UhYHju2/GWwt5wHSkdg/ceqxxiJNrX31I1pPuq9/woto9zvz10Hdwqqj1tbFG9vU7LWzocuUpmV5m1n5FMPneCsuknO72HtU2h6KM7FvsaYyMw8MXe9wNwnS/4TWP/039ejy7+CPs/RBh1OaM3a3Trp2pj7O2ECC0xT3vK7gOtrpQ/lypPHQPj5hcRQPO3aXGWI/x7Jn5FoU7uxJHf8JvD8nXJ/F2/dR0XUfy6KVJGGutek7r1naeree5amNvYFbFvXnRqy/j6ydWnq3q29mR2M7tTqe9akfmxYf/dtTd17z9bUkTy3D3WvcR3TezxTb2qjdX6+bX1bU6u7Ha8EHH+jY3vw59vs4zjO13qP6xg+5vu8v53N/ZsNpX68zvMbYlSObF0acn3cgq6H8/3eNOJN86Pdnurb6korvu0oCUe2LnXnVSl/fnVx5M7P/HpTGz15ZlH6tubImzFRFJrfjo5VXnrThScPLRhpDZewXPegt/6Rm3l/5b6XhlI/3ur4PG+dPkxAnd9X7gUaSv143ZrUak/9LLPN+XqhZVa+8vl9zGO7z7E3tfFSr9P1bbXahdmulZU3j8vvHmS8rnFq7OowuGjM+nSOtpTRnVodmJ5zxBesPKi4dBEUTwjJT4zu1Grf+eHSkyNNhcWschjqXpNava6Q8r0IeZxf7hhKb2qj6/xy5dtB90ge0vdywP2ex/k75f4u+cT/Jqbilozo71R7fKpaujq0uNK7sU8749LiBzO9G9GGRk1J7lJ82Pw72b1biq3IRN+r67W48rDiCTOiHrY9Ut/hirRH6peoavCwktbnm9H7zRqOdWj78rrMjrbqVnfPg/X5R/qtv8vrtdKxPVJbpymuz89Idm7WcLROUzyvf2i4ewe8kp3m+QX2GAwnFE/WqSXd4xBR7MFGTUn2yjvAAxdA0PWI1elkPGFdj7A0P9rtZpp1ppVobZ1EeigpRqJN2wYbtd470sCTXwGlLNnZpj2VK7TdO9rRk4cCGC8RxVod9195jaKVhpI9uevFJkPx+GFVLc+Uc5H6Fe46ejbDvUqqTg/F6nSyp1f5HO2i6O/VgOoUc5Xbs7TycpgFWFmnqmzXarhXycGIpvjajcDFMSVal7VtbfQc1snKiKd9HxJfkKEPvKN585QtnoDLXUiaCotZZWUo2SNFH/TGyMZY2PmFxlBmaaWrvj5Ld8UiGujpS79iK+4e6dOmtbtVvnyH1scC2sph5+8U+l3C438TVXEB4epWbfcGJWzDQxrWVEWcQ62tyuAHhiQZMgal8krnRYkoWhvRScPIY3s+Ioqt35F1uHlxPN9JZmB822CjHmoo9Dh9OpL0VgYdDEMnKyO61vlaeYXKdULGeN3QyC7oelTXqMq+HmFpfrTbs/GeEy5jfdoZN1QVy2NK73BCa5qWqdn+155wNIwNxduXaU2iT/F2e582s+OhvzPkPYaSnY7P7fQX1i6e81hjdeiZx9msARnas3aZmps6M5Vx5zk0LdMmb4Hs2u54Hy5prnQVcF3DtqcNJxRPRrS4ISywYqbp4M/s06amZdrUb/63ualTr3YuM6ezDe5WuyftZz83771m3WfAROctQ+z0PpzQmiZzquTAlsLTtLten42hDwYjus61a0SRSml4MFeFyAzgqLZGkeoaVQ3u1k5v+RHInRekyylbtnJMdnnUqaRdLm3cmt/vE4loSmh93nteZj5il4lGos1TTlvn43wt23WUAvM5O+/KnqflI6LZtRENxD3nlh7ss8TXdnQfz/2bpb9n1vqJKddneH/L3PUKz/agbbnqMDnSi/1dkok23zZcJJEaRR0DzjKsgToxb4BuPOILo4kn4NI3TmnK6iCNls/S7KihPd2eNptdfrnyrOD8d1R5VlgMJV9F3yOztLKr+CUbkp2OMmesvssEVFxAOJegH8slqLLnFLY9QH+vBrwBtUJYvdbZjmlWYuo9lZg+bdpywjWq0+tk3LyBfDfR8JCGKyO6NltwIxLRlEFDH2beYQkJEGJcGIMnpMqKrNc5NM2PdruPNYImn+AgLg/DQxpWnWaHFWj9nWpee1jRDTu0vcv811K5W+2eBtTJ+C7pQWt71GrUxCNa37VD27tWqGpwt17wFPwn4206Umt/bocWD27OHhQeTmiN6zxWqDzeZjamqlvNYyiixRt2ZDoX+zvVvEVqsc57+4ZGDW9xVE76O9W85YT1nh3a3lWjI561lHHpSXYu0zatSKfX9bET2uZIr2HbXQxDJyvrFA2rCwz36oPajsw9Ej2sbZ60PLClV7O7zPS5tHWHOXKjstG8R6zRAfmcW+Zey7UmGTBxGD2GK++uSm428+7yej1rzQysWl5Amu5PaI8adVdY+SVJiui6LJ3huQeFmAGcaG1E0izNjipwhJHXwJbN6bLQLqfS9fVc5VjaYW3rqTG3P/xAfr9Peb1iVrnrC05KVgDTmulg5S0PaZd/HdEQWa+jgzOfi+aZp4W51jdrU9ZAGHNwj1ufjriOJ+150XO8wd1qt3/jgPpJsnOZNXvK+q6eUXbOa7w+FtHAFk8ndLZ6x3BCa5x1jg2Nuk456jD5pJfB3Ypb33fMA0AogjXCzzujoL9XA5V1ihZ1ieyOAn+ALVh4PAFIC4lZ2ZLdu80O0pyzig9r24vSQ+m8c6r2rPWk2ULzLM/5hcZQfMzZRFMizndcwHvEc/7XOs4j3++SNf43gY19QDiHsN59DQ7lrnQEbR9OaM0W9/SywphDyV1LVMjqFbEu5pFa/01gLvngfo9TtNWuEJiVCDkrmYahk64KjqfSVW72WDobqMlOxwPFMEEEN1qcwtJ8IdszIyDMym2xvV24BOXVaWB2FEzx5EvR1hW+xplzn2hDo6Yo4ihozek6vsZ3dIUjzZmV6OAKRsCyPzmmAJn804TtRrM5zTjou83SyqDpVbh0+KZfeZaACtvukW9lzbvMSrS2zle/mOLrBPbI99yiS7LWE4ALydlIafaOhHSI1Le68tnZ0fC6io9z1FFPjX8Jl6zMoKE3aOd7IJ6XHcCxy7WsDWA3b5lyVyySDg7lV47lMyPBL2p1MgWOJO5PaM+gN29ZEbBEX275XEdXPpdvnhZqlu6KyTUizUjs0kBgXuheKsNcos87IMZ5Tp76iX3OzvRVXe86jvMaR+qXqEr2dOCweofcs0PL6xXLUe/OL73kmB2Ki6O6XovlnFEwmkE35mhEVweHN8DmERZPkOwZB9ny7sPa5tgWNIIel4vgmJWfpwOuusaR7zk52372cgne5Z0KybPyPT9ljaEkO9u0R416yHHMfO6RseE//0h9Rx71l8x3yRn/m8AuaEA4dLpYWEPOu72/U83WuiBFBceGE1rTZK7b4g34Ruozo4dm97hH8BqJNm3TCt97siqv10OOSqYpqNJlF0gRxdabvfl2Bh+PrNDiyvAeIYyCd3pdaKEafj3C0nwh2zOZzArpxXzOD5cVXyPJy1y7zJ+mso+4ygifYeHurZU17TWIueyPN/jQHjd8QbcM89y9ld5tSXtUWLbvhkuaYeiktzFjTcX9wMhje5CsaczDOUMnYKR5aFrL89x89w1wkUyJZeq120OmUDqn4IcGY4OU1+tZ+1i1vWr2BTGyi9R3mKP27fsqHlFLLJLzXkr2HNYUazSUlKsB7Oa9zyOVU63/y7ccCy87s6pudQSNMiOJzI6tsA7g/IRdR9f3zzNPy0ek1rk2qxlgqKrNEjh31r3X7tZJ7/ag38K6BvY6r77tDt5rnBFS77AH5+Q1yivP9BJyrrgYrE4oO3A/3KvkYB4z8vJgduR4A2wZ+cYTzBkH2fLuuswI964deQSvcEnKEbPy8XSQZp814y2/zOWZXPLNswo5PykghmIu7bNtsFHrHWk433tk1Ao+fyfvd7EExv8mprEPCGdd7sAWFpwI224yEm3paT65KrVZOaZWh134aKs5pdRcY8hcy1OOYK1ZgTGniGSrNGQqmRbfDRbRda6b0N3L+Gy99MGg98bFmHI2YByFaqRyau4gQ1iaH+12n4hi6zs8Pdq4rOW15qCyF0oXgTf4kE9F1Vvp3d6VmZ4/kb4bxpKnMWP9y5TrYdszzLw6PC9Ndi5zTxMueqR5/ucGXBrMNWWdywa05Bwqn4fqVnM0bMC6stm4Rtmsr5cMI0dgr09Hkt5gnDmrzt8ALkwx5VihIvXmw4ScD6bxDYApWLHXcYzytPJ6xex2U44lQ4xEm3uZqw2NWTqacxjlb5W93mGu7Wkv/eAbyR3gQqQXjL1I/RJVWQ/yDl4mslgBAba04uIJKEEFxKxkdZCmn3nh6OjKZ9ZMUXKcX2gMRbLKqzYla72jcS/QPZLj/J3y+y5uvvjfBDX2AeGgh5+5etuCHg7h7D0O225euPaeOq3P9mC7MMMJrdkitWRb3ysnd6A2U4Ex15LKlpCMwROZP6prAqZg5V472ZxuVVPc98XoBAVsnb1vYWl+tNsBe81B70MBXMzONP9IhNx5S9GyLmNh5uG+JSdyMjvEvNNZM4K/mytfxaUnrKMjbLuX9XRg/wNinMypdIs3FFl/sBV6bsCloL9XA5WNWu+YwXbRWcsCZK0P2eccVDe3gjz5yiw7U0w5NgqOGTeRyqkBDXdzNKstqJHpKg+LuY5jnKdFa821WePe0dtpVttueTFtMVPwb5WvsHqHzWz3rfcsg+F2gdMLxpj54K1kTyLLWtfFMkeOBysunoASU3DMyq7jetJWV0ce9WMzvWbvfA0Qdn5hMRQZirdvlpYHpfkLcI+Enb9T6Hfxu1TaqWMfELYyVedDAby9bdHaOp2Mb3Y8LMjde5x7+2jW9jF5z8fLSHR61vPq1LZkgWuoOB9QM5zQC3HDcc4Bv1Hn5izra1kB8LiKWqcMY8C3prM3DQZcT1caG+12KdnpftKzkdicdcQFLk/RVmsZGe9SIcMJbUoYkv1wDGfeGZa3FMD9uX3atCV7PhxtaNQU7wNs+js9U4adM0GCzz2TF5sVdNcIKitfxSXM7uhwPUTIULzTXk8/ZLtPRLEHzTW7fA88TKc/b+eCmZbz4qwIFnxuwCUgEtEU54CFLOv35gyipcskm6e8GE5ojfNByjnZa/plq7Nb68sHBRzLaxQN6Eh0cq1VPJzQC466dn7lWLCcv09/p29kU7J7t07agz6s5S6cDXffc0QiEU1JLzMXUB7meR1dwvK0gq5bZm3WPVnbT2YQNTOK21D8xYAlI3KxOgFdDwXtT+TZCRBS7/Bc6w99wV73bNbRpBdcfNGGRim+e3T1Zc/1NhKbtWcwW/oHwnnjAWGMxK4sAUqrHeVavsCddxYTWwg9v7AYSo4ZJPkxRxfnl+f7hZ2/kWjLtLvDvkto/G/i+lgqlUp5X8yf+STcD2L+6UTJTsd6VdEVjmm/lv5Ox7p9dWrxjvbNut16+m5Qj1u248QjrvVIXOfmVGmtW+I6toLPzyn9ZFm7d6FPm6zpaqaIFqe3ZbjOwz520Law46Ngyc5likcKWSfGne6mBKwxE5bmR7PdSLSZa5HZPOkFpcOff3nyB2/+5UpLZjpO1jrS73BCa9Yaijk+w0i0qd1YYr3Pfs8KRXs2Z7kHzDxPzvXcvefhSbOZNJ05f186z3UfVDZqfcxQuyd/x8TjT7PO9OAv06tczwUI2x7E/x5X+htOaE16rco6tSyXtqXTUUBaltyfmU6X/uNkzi3gXgMuklx1HiPRZs66s+4PVz4bXaEWbXa/N523B9dt/XVgzz0bUC938ZQdOe93X/3bLfPdapR03Y/2fb5C2pI5V9+xcpVj/Z3W0jPZ2i9Zfh9X/mPx1Qndv2HV8g5dF3e3t8LKw9zXMY98zpL+TfK5bp7tRqJNL7jWf/S2G53fM6LFy+uU3JKpj3jTpv2Z7te852zXKYK+o/+1rPUO73XKWh9x1MFypBf/eeNi8ueJ1kjFBx33bED9OC0gvee6/nnx5WfetG2xPzfX+eHSE5CmAuvPypa2QuqdzvRlWOXXcmlbYLwtvzwrv/PLEUPx3jNpucpPxz1SwD3gbtuaws5fvt8gx3fx1X2yfIcJaJQBYQDA5S2kggEAQJ78QUKE8wZSLzyuGwBcJrJ1aF5q+jvV3FPjG2SHwozDkhEAAAAA4PahoTFcoxMXCtcNADCRGIMnMs8YQ9EICAMAAAAYd9HWS2MKJdy4bgCAiSRS33HRZs1cTlgyAgAAAAAAAABKBCOEAQAAAAAAAKBEEBAGAAAAAAAAgBJBQBgAAAAAAAAASgQBYQAAAAAAAAAoEQSEAQAAAAAAAKBEEBAGAAAAAAAAgBJBQBgAAAAAAAAASgQBYQAAAAAAAAAoEf8/dCx6a9kTQeMAAAAASUVORK5CYII=;" vertex="1" parent="1">
          <mxGeometry x="-128" y="216" width="959.78" height="144.11" as="geometry" />
        </mxCell>
        <mxCell id="8eMQXXNVM8QZM0LBL5MA-52" value="" style="shape=image;verticalLabelPosition=bottom;labelBackgroundColor=default;verticalAlign=top;aspect=fixed;imageAspect=0;image=data:image/png,iVBORw0KGgoAAAANSUhEUgAABYQAAADUCAYAAAAsnScSAAAAAXNSR0IArs4c6QAAAARnQU1BAACxjwv8YQUAAAAJcEhZcwAAEnQAABJ0Ad5mH3gAAF2HSURBVHhe7d1/dFT1ve//V7+uRe/X9U1X10KuN5OocG6/S45nnVQISYdgUaH2CxVMzpygtQVjWtsYa0EUCBK9rV9FiVYQjiWX2sqJ2HOK0GlGUPhWwVMrMM2P2zZdt4V1XQVtsnO9wPf0knP7Layy5vvH3ntm/5rZM5MEAvN8rMXSzN4ze8/sz/78eH9+7I+lUqmUAAAAAAAAAACXvf/N+wIAAAAAAAAA4PJEQBgAAAAAAAAASgQBYQAAAAAAAAAoEQSEAQAAAAAAAKBEEBAGAAAAAAAAgBJBQBgAAAAAAAAASgQBYQAAAAAAAAAoEQSEAQAAAAAAAKBEEBAGAAAAAAAAgBJBQBgAAAAAAAAASgQBYQAAAAAAAAAoEQSEgTE1pFfvnqHqmXfr1T94twETGWkXuFBGjvXo2B+9r04cQ113q3rmDH2pa8i7CSXs0OMzVD1zhtrf9W7x+MMOfWnmDFXfvUOkIAC4WN5T+8wZqp65Toe8m4CJ4o9H1XtsxPsqLpCiAsK5Gwp2UMFRYbQrhs5/NXP1+aZ1eu03zotvZ1ruf7PnNal914BGzjt2de579/d13LXN8u46azsVUmQaMjn/Pf6e920XjH1+zvsq8Jyjc3VH0yptff2oTp9zfQQuU4HpwPvvIqZdSRr51U61Ny3SLVH7nD6jW+5s0WvHvHuiZJ0f0bHXN+r+O+dqtis/W6f9E6wT4vSuJisdL9LW33q3jtKvNmjx3S360m1PXLoNtKB6ne8fnUsTUu8G3WJdo9X7qUQAKD12LMP17+bPqfnxnRogLoULhHqUJA2oo/5u3X/3XD15gSvFge3rEoyzFBUQLt4klUUqVBGpUEXZWZ3+zT51NP2d2t/157xlV1v7RcqkPw5o/zNN+vtvvyf/npKOfVftPyLki9wmfdJOU2a6mmS+mkmTkQpVfNJ8dcIpm5w5xyvPaug3B/SDb9+tz89t0qvvl0huVcImeto9/sMmff4rG7T/N0M6e6V9PtLI+z369UfWTh/16NWnWtTYUkQH3Z+Oa3/nKjXP23DpBtBK3R/fU8eSufrSt3eo9/0RnZtUporIZJWdH9HQb/bp58e9b7iYhrQvPpD+/9f22v8/RiZP07RJ0qS/na6p3m2Xiism6SpH/jO5zHrdWVZFrtKkKzzvw0V36PWd6br0wZ+8qdOe7QBQMiaVpcussrOnNfDGBjXH1ulQYMBhFEZTB8Zlq9TqUad7d+jJB2K6/4fOu2Cypv3HSdKkKl1/rePlC2mM4yzB33PiusAB4flav3evXt+7V68f/IV2r5gu6bT2P/+K3IPIpuu+71n77X1XP31hoSZLOv3Gd5Xw9ZKUqaxMOvbC/61uO/AABKh5xE5Te/X63qc1T3Knyb179fojtd63TQjXf6Urc44Hf6Ejb23TyjmTpXMD2vTVb+vgWFdcMKFM6LT7pwPa+sKAzqlMCzre1ZGDmXT6Ly/fp7+2KzLHurUp3qPjZzzvz8fp9/TKSwc08Mdi3oyL7k/v6ckl39RrJ6RJn7pLz8V/of7ku3p979v6l95f6PWOu/RXF68/w+9Ytzmy/cYqVUkaeeNN9QbNQirWNXdpe/KXOvLyXarwbrtURO7SFkf+s/0r0yVvWbX3H3RnxPtGXFR/OqDu/ZIiVaqKSOr9iQ5QdwZQqm57Ol1m/cuhuFbeIOn0PnW8etS75+iMpg6My1ap1aOOvr5R3cnjOvMX56sVuvPlX6g/2aU7r3G+fuGMdZwl+HtOXBc4IOw2bel9WiBJfxjQ73IMUSibe48aIpJ0VL/zjSKq0Jzbpkvne/TC5gPBI4iBy8ykybVa+sJLeuB6SSP79MJYV1yAfJ02NHRekm7S/Hl297ap7MZvaOkc10soQce6Nqj7tKQbHtY//fNazZvqjP5OUsVta/XVqOOli+zYwX0akjTvzo2661ZJI2/q4H/x7gVces4d2qeD56WKBY9q7YIKSQPa926OCjgAlIorpmnpVxdKkoZ+dZTZE0CJKrU4y0UNCOuKj1v/c0b/9ifPNpdzGhmRpApVXOXdJv310qf1wPXSyP5n9MKhwod1A2l/HNBrT7Wocd5nrLVkPqNbmjbooHMEzR8H9NrjTZm1UqNz1fxyjozi/HG9utTc9/NPZVn2pBhXTNOypvmSpKF3Lu76sZgALlbajUzTtCskaZ++33Vc/hzYWlf+oX3mn8c26o6ZMzIPuAg570OPz1B1/UZrFsk+LXeuqZVtnXj7dce6yuf+cECbHojplhrru98c05NvUd0ffwPq/tGQpAp99fFlVlrJ7twfDmjrI036/M3WdaqZq8ZHdrjX9AtNxyMa2LVOzXaailqfkddD3I7qwBtDkuZr/tzJmnfbfEkjeu11bx57TkNvbdT9sbnpdcduiT2hg3aSynWOWR64NfKrHVptf150ke7v7NGA95kNjvce/+N72tRkrcccnavm53t89+jIb3aq3d5n5md0y52r9Oqv3Hu5j2t+ztjdGSM6/voGNS90/E4Lm9Tx1lBAXoHxdU4H9x+QVKEF86br+nkLVSFpIP5mwBTmcxp6a0PmHro5ptXx4zrr3U1mWn/1ETtv/YxuadqoXt+95nho6YnT2v/4Is12Pmvk/GkdfL5FjfZ9f/Pn1PzMAQ2lE8ko7jcAyJddRzkzoj9b/zvyfrc6mj7nqD9686dceVBIHdhZP3W8t7HTsVTVRz3a+ohne1Cd5tyQDj6TOYdbYqvUfSIw15Y+cteJKZcnqhxl5/kRDex6wvVcjtnzmtTxjqMG52gPnXt/Z6auZ5XpGXmUsTnaamnnrfq3q863Svt/Y9Zdl79h7nZs86L0eWV9qPn50+rtXOU+pq8O6/x9RnToeTv9W3URb6W4EJ44i/lrndPQW9/Vald+ENPqrgGz/m3V0YO/pymfevmFdnEDwh8NyZCkK6ZrWo4h4iOvv6LXRiRds1Dzb/BuNS/YVx+/TxU6re5vb9TAWE7tREkZSjyjjr1Duir6BTXEGrSgpkwjv9mp1Us3mOnq/IA6ljSp440BTfr0QnOfmZ/Q0eOnvB9lGdGhb39Nm34rTb79H/Tjx26Sewzl6EyaPl3TJOn933s3ocRctLR7xU164JEqTZJ07MWYbq5fpa2HnJXKf6dp8xrUELUmx5dN17xYgxpitboqj/O+akaDGm6bbh27QjWxBjXE5mvalekDhPuoW8tjq/RqckhXzW1QQ6xB8645pd8ZdnUf4+YPv9avRyRFFmr+9d6Nfr3fW6Uf9J3Tp2+zrtO0szr+zkY1r+o2g5Sh6XhEhx7/OzU/s09D/+d8NcQa1DDnKg29s1HNS6x7IZfebr1mSLp1vuZdKU2aO99comV/tw46Oq5Px7+pO9p2qNe4ykrP8xU5fVTGn/I5R7+Rd9fp77+yUQdPjKjshvlqWDRdZ370Ta161R+qk8xRy+1LHtGhq+brC7dO06RzIxr4YYtWxzMNgZF31+nvmzZo///4a+scP6urPjygTV/5O3X8ytzn3KEnPMet1dnXcxy3IOa1aPz2Tg386ydUs6BBDbdOl04N6LW2RVr0/BivzYzcPvqJdr5j3Ys3SLphvhZEJB3bqYTn4Z9DP2zSHW07NfBHqSK6UA1zpujYs1/ThqR7P3M5mCZteue4Rq6crnmxL6jmfLeWP9xl1u8D/O4HD6r9DUcZcf64Xm36nFb/8FfSLPO+XzBdGti1Snd807zvx/p+A4Agpz+yyr6/maYKuxy98wm99psRfaJmoRpi83W9Tpv5U70Vc8iZB+WuA4+8+4QWxVbp1eRxnb26VgtiDVow8yqdspdIO7FDX1rUoh+8c1z61Hw1xBaq5mqrXrTgm47lMof06lcWafWuAY2oQjULGjTnPxxVx9eeUa+9i+3EDn1p0Sq9+l+kmvoGNcQWarrMcnm5ow6BicVXdhrd2vDMmzKuuklfiDWoYUGtykYG9Nojd6XreGnvf1f3Ln1JI9Pna0HNZGnkuA4+9bX0fjnL2DzaapJVln/tc2p+Zp8GTknX32q11zSiU5qm+bEG1VjxvrIbrPr5jICRnsrUC+5/6YCOn/8rzYs1aEF0is6+f0CbvvI5LX/dm05H9OZjf6dVv5ii+Yvma9qkcxr5zQ7db7cdiuSMs5h1mh5tbfu+es/fqPn11vc7e1wHNzeZ9e8rc3/PfOrlF0WqCIP/+MXUzBk3pu7+x0HvplQqNZja8cUbUzNn3Jha9zPrpQ9fSd0948bUzBmPpt6zXjr733+R+u6Xzf1u6/i19erPU+tmmK/dvOD21OLbb08tXvDZ1MwZN6ZmLngw9ZPj1m6ufb+Y2vGh+cqvO+anZs64MbX4H35nvvCzR833fvGVVNCZopTZ6SeTJlOpVOrUf/11avCs44XU71PfX3JjauaMz6Y2/NKRlpe8lPq9Y68z/3rG+j87/Zvp8vfWvTLzy6+kfv8XxxsCvPeYmfad91XQay6OewulYuKl3VQqlTrzy1dS31xgpteZM25MRZc8kzrw3x07ZMmPQ887FVyGpFLZPzP9+mM/d//96NuOnc6mzvyr68AYD/a1816jLAYHfp0640xvf3nbSu9fT/3kVHg6PvuzR1M3z7gxdfcPnFtTqZ6nzbrEqn25r7l/v7OpfQ+baXrVTzPvtfPmdQfTL6VSZ8+kzvyv8HP0/ya/S333DusYCft+TKVSZ3+d2mi9ni4D0vfCZ1PrDmb2PfXaPWYa//pPUqdSqVTqf/08tW7ujamZX3zJff/2PJO6ecaNqZkPv5k66zhuy2unMvuc/X3q+1Y9LmvZ4xFULzz700fMc/rco6n3HF8rdfyV1N2zbkzNnHFPaqczj8C4stNIuo6cSqWO/sPt5mtbM6+l/tfbqVWzbkzNnHF7akOP48L969tmmnLU749uNd8/s/VHqVPpdHY29fvvWeVHOo1n2gYzFzyS+smHmXvJTDvu9JxKnUrtbDbP4bv/dZT3GwB42GVWup74l7OpUz0vWmXTfLP+mc4L56fW/cyRn/zl96kdVgzj3tdO5ZcHBdVX//Lr1IbPmeV5y2vuOospU0bf/Y+uT06995gZ87j56V+kUs7y9o5nUs5s+8xPzTpRpv5s5cVzH00dcGaR//1HqXtn3JiaefuLjhdxIQXVo3KVnalTv0v92vl3KpX6/Q/+zkwXdmzNTnczvpj6viOOZtd17f1ylrF5ttVO/fjrgWnQKTiu4W5/ppx1C08b9MzPHk3dNuPG1My5z6R6/uJ8742pmx99O5U+rJ2e7bZDFsHn4+Brfw6mfv1Lz5c7aP3Gdv072+fmUS+/WMZxhHCZPvEJ72v2dN8Zmr2wRT/4rTTpxoe17ZEq744a+WhIQ8aQhj4akW74hnYn/kENIY/jrnrw22qYLA29/IR+cMK7FQg3+Ybp0q93autT63T/nYv0+Ztj2vq+JI3ozBlJkyOquELS+y9p9eM7dOiE2U9X9kn/2Mkz7z6hls1HpckLtaUzfKp0UUbO6N8kqcx3s6HEXOy0W3bjMm3Z+67+6dt36foymVOTFt2tV0Py4tDzHgtXV5gP73rrGd3/fLeOnT4naZLKPjmRnmR2mTt/Nq+piBU3TJNxcIc2PbVKzYsW6ZY5q7RfyiwtFZKOe9/dpxFrtLo9Xa165gzdv8ucjjX00UnH0TzOv6fu+Ii1XISdNiZZy0ZIB/cfSH+HqyLmaJ/9z7Zo0+tHZSapMpVdGX6OPkav3vuDpLK7tOwOxz6TqtRQP825Z0bkLt1za2bfyTWfNUcx2NNcf3lA+0ckHfuuGu1pbTNnqLplpzmtzTilk47jPrBkcuazJ03TggXmw01Go/cXByRJNa2PaI7zq09dpvtuk6QBHTw0mrEbyN+Q9sUH0stF2OxlI4beOJB5uPMv39PB85Jq7tN9NY4L98n5+sLczJ/SkHoPDUkq051fv0uT0+XEJE1b8AVlmxBQ9ZVH1XCNfX8N6Z23jkoa0f5HMlNMq2d+zhotM6ShU2N8vwGA7Y1vmnlOzWf0+Zbv69j5Sap65CW13ejMCx/Uw3Md+YljreGBt3+u08XmQb95U/tOS7rxG1q/JKCsd5TRa5uc28s056tf1DRJI/sPasBZ3jZ9Tc5su+y2L8j1KA/joN48Jmlkn1bbS/TMnKHqhRs0IEnGWMwOwnhwl52SJk/XdP1Kr3U+ofYHYrpj4Vw1vmgubDAy4mlA3XqPljniaDXRmyTHfjnL2Lzaaqf18/+nx6wPPLbWlQYL56hbrHK3Qcvmfk13fUrmsz1+43xPhe5cOj8zk/XqWt30KeWxLG0IR5zFnqlaNXVIB7s26slHmnTHorma/Yi1HIxjmZlAedTLL5ZRBYT/zVzY1+Oczp6Xud6vo31hmqSySIUqPlWrBbFlWvkPe/Wzl4OCDdO1MvFL9Sff1n/+ynTpt99V41d26HjYVM8rb9JD6xaqTEe19bEdGrrKCgIAeRnRoce/oDtaNmjHwSGVVc3TPWvWmlMqbVfO1396+WHNu0Y6/sZGLY99RrPrV+m1972hjpPqftWcpjDtzq+5G8NjaKj3PXPtv1mf9m5CSZkgafeKMl1/x1r908G39fitZdL5o9rUmQmi+eVx3mPh+m9o+/N36forT6v3h0/oS7d9Rrcs3ahD3vXXMPYmX2WWw+//XL3etca8zh/Xq01z9aW2jUr8lxFFogv1wJPL5OoyDkvH1nJ5VU3f0XMd/n8rb57i/DSXcwe7tf+8JB1Q+02ZytrsdWZDS+90600rfnn917v03JLpKjvVo1e/fbc+P2euvvT8exo5n8c5etl1m0iFvNWmSelnLXiUfUL/h/PvKz4uV/fGeeuHuHGZ7zd4ruM7em7FTZqS47hjwjqFyVf5P/36682g5JmRnNVnjJVj3XrtmCQN6QfWuvDVM2eoeun3zTqEsVPd9nRFO+38+6vC00XW+n4203RTjWdn6zMWrAlIpx3f0T3Xj/H9BgC2SWWqiFRoWnShGr78sLYkfq7tX7aCr7nywk/9tdnpdWZEfy42DzpzxgwEVWQpg3OV0VOnm8cfsT4jR3nrkv7MhWoLyG+f67jH8wZMDP6yc+TddVpU36KOrgMy/vdP69YvPqq2BVkiX1eWueuInthbzjI2r7ban/VvZ2TWB/6D8/UiZa1bTNN0M+F7Bg2V6ROu9uokfdwXXyycM84yXdZyK7fdrdUvduvX/1+Fam7/htY3+Qe2BsqjXn6xFBUQnnK1mdiGDvX6H0TxUY/ee1+SKuTPk+Zr/d69ev21bVr/2MNaOqfCnTi9Jk1WzYMv6vEaSb/dqPYu5+LXwcpufVRrbzX3f3LviLvBBOTy21fU8cZpKbJM297q0nOPPaylt9+kv/YExMr+dpmeS/xCR+Lb1BabpnN/OKCOr35bh1w9UFN0z6MP6/orpOOdX1P7u0GdJ6M0ckBbXz4qqUwL6s0RbChREy3tXjFZDfVWwfahoaxjMvM870Kd+5O/Ej751rX6p5/9Qj999Tv66pzJGvntDi1v3eHdDWPtyvlaaI0G/f6LWR5MaDn31ne16beS5nxLe+LbtP6xb+jO22rl7R/IKx1HbtS82+b7/tVMzVbrOKf33jYDv5M+WaGKiPtf2SRJ6lHCfsLGFZM179F/1r8celv/1HGf5nxyRMd++E21WGvv5nWOXvZIBIfgjvdCVOjTAb/DvOi0TP1rXI6bcfqUfxTwsWPmA78qrs4eoMfYOXZwn1lfL5vsS9uTyyRpRPv29bjf9KcRT2feOY0Ept8RnfEml4A0Zfp4lkbaGX3iPwak09vm6/qrx+l+A4Dbntbre/dq99an9fgjyzTHOQLT9j9O+dchff935qyKyFWaMto8KOjznYwh//YTR63jV8i5Cquv/uvLxy0jn9C0ef78dt5to58dhPHgLTuPasez+3RaFVr60rva/vy3tLJpoeZcX2QDKlcZW1BbbUhDvsRarKDPOq6jx2QGi7MsPzxmPHGWSTqn/f+wUcfOS3Mef8PMM1rv0rwZWYLwWWWvl18sRQWEJ82oMUfsHNuo1S87nip/bkjdG18ypxzctlDzCnnoT1aT1fCYGZw49uK6PJaCKNOCNd9SzRVS7492ZqbAAWFODZkNpis/oTI70z1xUG++79jnD8d13Erwk6bW6s7HntcDUyWNHNdxb6Y1bZm2Pb9Qk3Va+x/5eujU+UKcO9Gt9jtXaf+INPn2p7U2Pb0ZJelipt0/dGtTV485vShtRIfesoILnyjTv3Nuci4dkM95e5gzUCzX/pW12P+v9Rs7IHH+uF571RrRaTl94rjVyz1Jk2+Yrweef9R8UNix37n2w3iYpHmt39D1kk6/8U39/bpuHXc2kM6f0/G3NugHSemk/TCXsrL0tK+Rd990PxAlJB1Pn1ErSRr43vM65AxSnR/RofgBfye27U8HtO8tSapV2669en2v+99Pv212ug3se1undVrH37c+fNJkXX/bN/SdNeb2Y+8fDz1Hn8g0c6aUsVOvvOM46ZEDemVX1jPO7W9qVSNJv3pJGz2dOiOHunXQyHXc9/RKosjjOtTMNX+T3k7PtTixQ99/S9IVtZozg7Jr/B3VgTes6Zeb3/an7c77zIcn7T+o3vOSplkj3955RTucef+JnXrlXcffqtC0T0nSkF579YCjs2dEh/75J9nvNZcKVc0okzSi1zZ7ZgKeO67XXh+Qxvp+A4B8zJqveVdI6n3RXY6eP65Xf2BOE6+ZU6tJheRBzjqw8/OdZbDtmhrddI2kkZ3a4BoUN6JDP/iRjkuaPPezul7S1E+ZgdyDXa+48tHju17Rwcyf0jWf1qfLzM/c9Kp7oN2593eq2zUNHxPXKQ0ZkjQpMzL2/HFrCaZChZSxebXVKlQzt8Isy7/z/fT9kM2587l2cH6Wu14w8u5L2vm+pMk36aZs61KNgeA4y0mdsp6WW1aWbqVk2rsBXN8zn3r5RVJUQFhX36X/tMLMeI69GNPs6FzdsehzumXOIj351mlpUpVWts7PPfq3ENcs07eaKiQd1dZHvx++dMTVDXr8IXq4UKC/qdWcK8wncba0rNOTT61SY1OXTjk7No6/pMa5i3T/uif05FNPqL3la9p6QtI1N6nGO4xNUtncp7VtxXRz6vzX1rkbxQU49nKT7li0SHcsWqTP3zxDs2NPaP9H0uQFT+ufv31TZs0clKaLmnZH1Lu5RZ+Pfka3pNPoXC1/47R0xWTdec8XzKludpDBOsf2lu/qUD7nLUfgSvvUfvcqPfnIOr32B0lTb9K8aySdP6D2RXdr9VPrdH+sSW+aE3vS/vyzdbpl3t1a/ZT53VcvXWdWkG/9rGs/jJOp92nb8w2afIV0ev8TarxphmbPW2TWG6KfUWPbTv3+nFQxs8ZMK/vXqfGRJ/Tkuhb9/TOeilZIOp5cv1Yrb5B0ep+W32bvt0pfmjdXy3dlr22d3t9tpomahfqsb3aTNGnufLMT4Vfd2veHP+vQ43N1y9JVevIp6/MfNzsh5s35dOg5+lxxk+57cLqkEe1/5HO644F1enJdi+647Rkdv6bQkQeWyQ1qWzFd0mntf8j6zKee0Oqlc3XLN3fKOG8e94GHgo77bR23ZoKNxqTbVqrtxknua/HI3bplyUZzncaH1qrhau+7MOZ+1a3XDEllX9DCG70bJd0w35z6ObJT3YckXXOXvhGbbNa5l8zVlx6xrtsX35Q+5X7rnK+bAzZG9q/S5+tb1P7UOt1f/zk9cXxK3ku2VbU+rQWTzZl9jXY+va5Fd8yNqaP3jKQxvt8AIB9XztdDj1RpkqscXaUvzYtpk/UcpLb6yfnlQUF14Cvn64GHrM9/ZK5uibWo/SlzPdhbnnlP0nTdt8Zcn/3Y5piVB5p57PI3TktXN+hbreZ09Yol31DDZGt9UisfXb10rr70ljzruVfpgScXarKcn/mE2h9YpJvv3KDef3XtjAnrr1UzR5KOa2urmW5W392kVz4qJiIQUsbm2Va7fqlVp/vtd9U4d66aHzE/q3lhi179g7mP3XFxvPNrun/dOt3/4nvuD7Fc37RWd17trhe0P7BIn39on05fMVkNj39DVYGzjYqTX5ylQlWzzAbC/kdj5jm1/J2eSHo+LNv3zKdefpEUFxCWNK2pS693LFPNp8o06dyIhozTGrlysqpuX6vt+7u0NOQBcIW6vvVp3WlldO0/Ch93UPHFp/XAOPYc4DI0uUHrty5T1Scn6XTvPr3ZKzW8uFH3OBsU0z6rBdf/WUff6lZ3vFv7j8pM869+Q9dnyZimNX1PW26fbDaKW/NYCzvIyGnzIYvGkEauqFDVrffpufgv9NOnFzoe5IKSdTHT7uSbdM/X5qsq8nGdtdLoaU220uibaptjdQ1es0zrH5uviknS6d59OvjfzmpSPuctM3C1dusy62F1B9Tdd9pa/2q6Hvjed3TnDWXSyFEd3Puezs79jrZ93T3tZsqn56vm6iG9Fze/+3unKlTz5e/op8+aDwXB+Cu79Vvau3+b2m6v0uQy6dwfhzRknJaumqaaL39L982Q9LcPa9tj8zWt7JyOv9OtAx9O09p/fNTsUbeFpeMrpmnpy3v13JIqTf74kHr3d6s70aNTUxeqra0hS5DqtA7sNQPPNf/XZ/1r9cm59MVRvbb3/1XVvFpdZfxc3fFudcd/rlPX1mrp82/ruQVl4ecYYFrT97R9hfndh5L79Gbyz5rzzE6tv62Yyr3JrKfdpaqrP66h5D51x7vVe3qaFjz6qOqte6ziy2N/3IwK3fnS29r+6EJVXXnSvBbv/F66YaHaXn47s04jxlXvvjc1Iqns9i+41+NOm675t1sPlHnjgM5pkuY8ulPPLalS2RUjOvZOtw4cr9B9L31P3/AEhHXNMm17+WHNm1qmc3/o0f697+ls9Gn981NfyH/JtrKbtH5Xl1beOk1lZ4/qYLxb3Qd/p0kzl+m5r9dKmjLm9xsA5KPii1366ctrteBvP66TyX3qjh/Q8SuqtODRLv30Jes5SPnkQUF1YEnTvtyln778sOZ9qkxnT/Rof7xbB49K06eZ8+EnzVmrvfHvaGl0mnTsgLrj+9T7R7MO+3riW5nnfFx5kx5/9Tu682/LNGnkqA4mDuj41V/Tts5vmDPpHMrmPq0f28f87QF1x7t18OgkffrL39EDUc/OmKAmq+HpbVr6t2Wa9FGP9u/tlW5/Ud9ZGlzLzS2kjM23rVZ2kx5P2PXvEQ28Y9a/h/79NE2zgscVS5/W47dWaNL50+rdf0BHz2YZPnrlTWpL7NVzX67VNJn1gv29Z1QRXabn4m/qcedDHsdCnnGWqode0uO3TlPZ+ePmPTb1Uf3zOnNmolO275lPvfxi+FgqlUp5XwQAAMDFdejxGVr+hlTz2Nv6z7HAUDUAAAAAFKzoEcIAAAAYH+fe/76+u1+SqjRvDsFgAAAAAGOHEcIAAAAX0dAPW9T8z3/Wp6N/pU9IOvPfDui935hPB79+RVz/1OSd9AkAAAAAxSMgDAAAcBGdPrRBq555U0cNMwisK8o0+YZaNSxdqftuqxi7h/QCAAAAAAFhAAAAAAAAACgdrCEMAAAAAAAAACWCgDAAAAAAAAAAlAgCwgAAAAAAAABQIggIAwAAAAAAAECJICAMAAAAAAAAACWCgDAAAAAAAAAAlAgCwgAAAAAAAABQIggIAwAAAAAAAECJICAMAAAAAAAAACWCgDAAAAAAAAAAlAgCwgAAAAAAAABQIggIAwAAAAAAAECJICAMAAAAAAAAACWCgDAAAAAAAAAAlAgCwgAAAAAAAABQIggIAwAAAAAAAECJ+Njpkx+lvC8CAAAAAAAAAC4/H0ulUgSEAQAAAAAAAKAEsGQEAAAAAAAAAJQIAsIAAAAAAAAAUCIICAMAAAAAAABAiSAgDAAAAAAAAAAlgoAwAAAAAAAAAJQIAsIAAAAAAAAAUCIICAMAAAAAAABAiSAgDAAAAAAAAAAlgoAwAAAAAAAAAJQIAsIAAAAAAAAAUCIICAMAAAAAAABAiSAgDAAAAAAAAAAlgoAwAAAAAAAAAJQIAsIAAAAAAAAAUCIICAMAAAAAAABAiSAgDAAAAAAAAAAlgoAwAAAAAAAAAJQIAsIAAAAAAAAAUCI+lkqlUt4X82co3t6mD2I7tLLavSXZuUzbktYflY1av75eEecO/Z1q3nLY+iOixRs6FCvPd7t53D2D9t91aulqVdT+06m/U83xiO/4rvMbzedLMhJtao/L9Rnma4Zrv6rl3t+pT5uaNmvA/jO6QttbZ3m+u5v/M5Av9zV3mxLr0LP1rhTq4UkT9rVyCEvzo91uMxJtajeW+I6P0uBPx7nzJ2BCGE5ozVpDsXFLq1Z5GpA352U4oTVrd+uk68UC7i3r/cpVloz7bwCEyV5vd7HqoTnrRtY+o6qX9neqeYvyv8+K5Cs3i80nLiDfOfvaKgHyyYdG4wJdL2C85XV/+eoFAfsoe6whuz5tatql64I+S/nfx0HxB1zCfOnIG49yyBEnSMszHY1W7pia/N/DW/564l656h2jSfNZ4yee+zxXncYb3/PvG/JdJ6pUkYa616TuvWdp6t57lqY29gVsW9edGrL+PrJ1aererb2ZHYzu1Op71qR+bFh/921N3XvP1tSRPLcPda9xHdN7PFNvaqN1fr5tfVtTq7sdrwQcf6Nje/Dn2+zjOM7Xeo/rGD7m+7y/XVZ9W3OcAwp1ZOvSkOvj5k7DQ6kfr3O/35tGvGl+tNtTKfu+sNK0dxtKgJXXePIBMy925z/AhGN0p1Y7y9mJJuD8zHtrDM854BjAhZKr3u7Tt9XaN1t6NetBeX1WLt76d4GGuteE1Ies83TtM5T68Va7HDW3j+o75KXw4/jqqaP8rbzCf7sAY3wOwMUSen/1bfXXrfu2eu7hHLGGLI5stfb3frbDUPea1Op1uWIPKStPWZNa7WmP4lJUSDrKvyzJLx2NUlhMzRfT8MZQelMbXeeXKz4WHHMLlTN+4jmeNwbp4qw7BO+b+7tOXMUtGdHfqfb4VLV0dWhxpXdjn3bGpcUPZnotog2NmpLcpfiw+Xeye7cUW5GJ7FfXa3HlYcUTZsQ9bHukvsMVjY/UL1HV4GElrc83o/ObNRzr0PbldZkdbdWt7p4H6/OP9Ft/l9drpWN7pLZOU1yfn5Hs3KzhaJ2meF7/0HCPDvZKdprnl60Hws1QPH5YVbGQniCMj+GE4sk6taR7eCKKxep0Mp6Q2SEWluZHu93cZ9Pa3SpfvkPrY6SCUpTstEY/enqEI/UdWh+T9ryYUO5cB0AhIvVLVKUTMgLKfuCSkrPenkVlnaqcdWOn4V4lByOaku9nXSzWeS5ucI7QiSjWegnWp6trVKUs1wPA6Hjur2TPYSm6xD0KsbrV0W4PiTUEMBJt2jbYqPVdK1Tl3ZhmKNkjRR/0xjY8hnuVVJ0eitXpZE8v9f9LVoHpqD+hPWrUXaHxozzT0WiFxdRCYyiztNLVrp2lu2IRDfT0pV+xZYu55ZY7fmIkdmkguiJzX5fXKxY1tKfbf3xf3aG8RtFKQ8ke6+4L/a4TV3EB4epWbc82XWh4SMOaqogzA7V+sA8MSTJkDErlla6QhqK1EZ00jDy25yOi2PodWYebF8fznWRWsLcNNuqhhkKP06cjyTrF8j2/vG9+jAvD0MnKiK51vlZdkwkUhKX50W6XzAyzyzstAaWjT0eS3kZthtkptls7rQLYSLSpuT0ho79TzU3LrH+d/gLJtX2ZNqUbmobi7cu0JmEo2ZnZvsbqlANGz0xjwenTTn99jn3azA4yZ5ptd3aCZNJs2nBCaxzpeyzSr/N+cJ9znza57iHv8dvkWUUKuHBy1duzimh2bUQDcX9nozlwY4n/8zxlivOes8ulZKLNty3Ner9zW/A9Z97v7XFDSm72vSetvELlctalHIYTWtNkTu0c2OLNYzqVtL9Lp90w9ORZrvwnx/ZsxylKRNfZTYfA8/TmQ+bf6XPq7Av97dy/tydPAy5rmfvr2khEGhzy5X0ZhccaIvUdvkEdPlagN1o+S7OzBqYko+ewVFujSHWNq/6PS00h6aiAAYJh6cguP7z1VEfZlFeZHSYshpKvomNuueMnHxqGpkTcnxmtrUvf+8nOoLLeLR2zHKvvehEUFxDOJejHcDH0waCjQuMTtj1Af68GvAG1QlgjCLId06z41nsqvn3atOWEa1Sn18m4eQP5bqLhIQ1XRnRtWLDGkuw5rCm1NVmPg/FlDJ6QKiuy//5haX6024GgTgOXWZodlYYHHfnM4G6199Roe9cObe/aofWxE9rmzGfSawGa27dvaNTwFndl4GS8TUdqre3L63QyvnkUDVnAYbhXH9R2pNNnS/SwtqUDL6aT8V3Sg/Z2Q3vWLjPXV+vaoe1dK1Q1uFsvZKugDie0Zu1hRTdY6bdrhcrjbQUFN8xR+ZkRQsnOZdqmFe57KltF0VqTrHx55viKe9coBia2a30z8JTuoIzW+mtFyR53mSJvmTG4W3HrHvI1gIcTWmOtSWxvy37PmY3o9bGIuUZf0OdJmdFGWwIas+X1etYaMV21fIe2dznXJDysbXb52TrLCqK2KenMsyp3q90VLM6yPedx8ufNj0ze83RyjDzrMo+7OKJ0AML/25mBYufvbdYLCArj8ue9v+yBFu052ufjIdm92wz02oGpZG/A8c2ZpWYebNb/g0ZU4jIz3KvkYJ1mZwluOuWXjg5r24vSQ3Z+v3yq9qz1dFjmKrODeGJqoTEUH3PErTtIGx5zK07QIFS3az3BYhfPgM3Cv+vEMfYB4RxcwYogOXvismxPVyALHflgM4eSu5aokNUrYgVrj9T6bwJzyQf3e5yirXYj0K4Ut2Uqo4ahk0HBmqCGpTX8PO/RxLiAsow6cQhL86PdjhJRVKeBc9qKPf3dnsZj9TI7801rmkx66ovMxfDTvarV9VrsGrUOjIJnaSZnj7xtiqOMjTY0aooijgqhGejJNnPIt/RUjmloGYe1zTEy7kitI8jimwoWtFxVRrJ7t0467x9FFHuwscCpbsDFNkt3xeQaXWROsfQGJk3RVmeZ4p3pJEnZ6rN2XdyxlFqB91w2kfqOdD08/xGvnhk5VsPvIWee1dCoKXYjO2x7kZwDS7Z5fgtT9plDtkxjN6JYfY59+xPaM+g5Rnm9HgrNN4FLU+77yxxZ2BK16gVBbfQx5+lsy7ZMTH+vBirrFLXrR1kDfricBA9QDJJnOnLVqTPtPFc7MGuZHSQ4phbMWzcwJTvbfGVpWMxtXAwa+jBoVL9zRHVPTfiIfynrd51ILmhAOFcEXlJ4VN27vb9TzdYInGxDwXMaTmhNk9l77g34Ruozvfyze9wjeI1Em7Zphe89WVkVKvcaP0GVXP+UD6PnsE5Ga/K4+TFqnunF4YV/9lHltrA0P9rtKCFW4ZQ3XwA5ouvS6z0a+iA9fTXzb1tSrgCbdxqN6KTAWHLOknE8YTi7XKPkncxef2djr7nJmiId1LGcVpce3dgSlXuqvGHopCdg3Ny0WQOBFT3z+EH3D3CpidTWOQKbZmOxqjZbYNG5bELA09F95ZIknUiPZHXVqwu650KU1+vZLnOmy8AW5zIQ2bjzGmPwhDnrxnkua3frpDUVNGx7saakR/fu0PauGh3xBbRz5YlmQGBgSz71WXt0k//6RCqnhuSbwKUp/P6yB3h1aLF2q31Uy73kwRPozTb61zdzOGvAD5eP7DNzfPJMR/7yI6KI97kAAWVCoBwxtWDeGIo1Q2WwUesdQdaCY25jJdv3tusSXTu0vbZXzQF5hp/3u048Yx8QjkQ0JWfgIqLrfCMGnMK2m4xEW3q6c1HB4P5ONVvTScMSWbTV7CE0H2rXp52OdbcylT5zOqtvSpolUjnV/YIvoTmDNbawijfGlPMm79qR7vUJrQyHpfnRbgdC1yAqoKLgYE5f9fzzjUACxl6yc5l7yZJ8HqZRIHdjz52vh4m2mg1A95IUmYCx81+2OggdergslNcrZteBcz3TwlorN7NsQgEPsJOyPBipsHsuVHWrtm/wPrQ3T5WN1nI1zn+O5R/Cto9aPrMc3OzBLS2VZrA6WxslzTvwBigZue4vc5mVlqC1WMdQsuewr2NpW1Ke0b99OpL0dnhv1oCCAn64bPiCvNnll47GUI6YWmgMRbLWurfqDq46enExt/yZAfCiBzpVt5qdzNbgkfy+68Q09gHh8gqVewMXrjVPgn58Z+AzbLuZ8Np76rS+4AdkWIYTWrNFaimqomZOIXFV+DZYU1kDbgSbMXgi80d1TcCUt4C1kwtYKwbjKChg68yYw9L8aLcDyvJQAIuR2JVHRcGZx5gdUEUXgkChDMOxfq71kMQNRZbhocx6RLblJPLjeTpwJKIp3nw6K/P4vsaZ6zcALh3RWvNJ9nHvyDQHc0ZbMSN5piq23hqB5xy5W9A9V4DyCuUsKgOYDb3sHfdh2y+2aKu9fF32p51HKqcGBgwu5XURgbGUcz3RUbPrRf5OpcWV9qA0u/0Z0PlUbEcXLgm+UeFZ5ZmOAoWvqesTFlMLi6FYa93L8eyAjOJiboW4NuJfei7/39oj9LtOXGMfELYDFy9mpid51zyJ1noeTuQZcZB7ewFPWMzCez5eRqLTnaH2d2pbQev49mmTs1I7nNALccNxzgG/UcDDIoyew0WsG4oxV16jaKXzgUfeNBhwPV1pbLTbASnaukJVyc2+qa5Gok3tcfkX2/c8cMudx9jBLvcDf3x5HzBGkj2HNSWdp5kzgTLrlPVpU15LRuTPXL9zs3sqV39nHlO7HKrrtdjO+601tp35tGQo3hk8Fdtc08/ZOBv77whcMNX1Wqzd2pOjLuwNKBqJzf4lI7KKKLbeU8ble8/lGpEznNAaX5np70AN7Rx15gVpjrp+2HaL8zhGos1XnudktyXynjXoOX5Qh5Tztwv6DsMJvRBX6DrFwCXPc38lO73LQ5ijFfO//woTlC+ZzNl/5gwKs/0ZGKyy1mx3r/+Ky4M5KjyfQG1+6cjmzu+NxObsM4CyCI1XhMVQcs06yos5urjYtqu5JJajreB5dpeRaMssuTSc0CZXQN2s16e/S9h3ncDGISBsLbFgTU9qbjKfWOuK4le3Wk8ytIZ/b5FanEPEw7bLv/Zlc1M+a4JleNcWbG7KrLEVqVTm2PbxCx2N7Brebg6jd05x8/1Gg41a75mq/aFhBGf6uMAi5uiVQfuamtMacl5PT5of7XYg/YALOfKWpmXWbImAntnKRsUc+/rymOpWrY+587p2o8b/OUDRMuuJuvM08wFr9kOempt6NXusl4wor9ez9nqh9v0SjxRY6TQ7TmRVFu1lJDLT8Nr0QW2Wip63HtPUq9kbeKgcLlVmYzLTqROgujXzAKamZXpBSwpaMkKapZUbzI4cuz4eds/Zz9/IuhxCeYXKnfVxu8xMtynsztE2NedsVDoC1unP2qXr0oHSPLZ7jvOh4X2Sup+rrVLwM1Miui5db/W3Zfy/nbeua7dfAuoXwGUg1/11bcQTC2gyRzHmf/8VwgzkZmvzR2rrNGXwsJIDvUoOZlseLijgh8vC8JCGlc+s4TzTUbqcq1OLtQ5uc9Mytcen+uJt+cgVU/OXK/4Yind5C3u/7OWxw/CQhn1rIRegvF7PbmjUsN1WWHtY0WyzF8srHO2WoDwhj+86QX0slUqlvC8CAC5dRqLN0+gFAAATgzVN9kGCrQCAC6y/09dJeEnq71RzTw3PvxmlcRkhDAAAAADwMvSBgqb1AgCAfBiDJ8ZtGZdSQkAYAAAAAC6IWVrJDB4AAIoWqb80lmSY6FgyAgAAAAAAAABKBCOEAQAAAAAAAKBEEBAGAAAAAAAAgBJBQBgAAAAAAAAASgQBYQAAAAAAAAAoEQSEAQAAAAAAAKBEEBAGAAAAAAAAgBJBQBgAAAAAAAAASgQBYQAAAAAAAAAoEQSEAQAAAAAAAKBEEBAGAAAAAAAAgBJBQBgAAAAAAAAASgQBYQAAAAAAAAAoEQSEAQAAAAAAAKBEEBAGAAAAAAAAgBJBQBgAAAAAAAAASgQBYQAAAAAAAAAoEQSEAQAAAAAAAKBEEBAGAAAAAAAAgBJBQBgAAAAAAAAASgQBYQAAAAAAAAAoEQSEAQAAAAAAAKBEEBAGAAAAAAAAgBJBQBgAAAAAAAAASgQBYQAAAAAAAAAoEQSEAQAAAAAAAKBEEBAGAAAAAAAAgBLxsZEz/zPlfREAAAAAAAAAcPn5WCqVIiAMAAAAAAAAACWAJSMAAAAAAAAAoEQQEAYAAAAAAACAEkFAGAAAAAAAAABKBAFhAAAAAAAAACgRBIQBAAAAAAAAoEQQEAYAAAAAAACAEkFAGAAAAAAAAABKBAFhAAAAAAAAACgRBIQBAAAAAAAAoEQQEAYAAAAAAACAEkFAGAAAAAAAAABKBAFhAAAAAAAAACgRBIQBAAAAAAAAoEQQEAYAAAAAAACAEkFAGAAAAAAAAABKBAFhAAAAAAAAACgRBIQBAAAAAAAAoEQQEAYAAAAAAACAEvGxVCqV8r6YP0Px9jZ9ENuhldXuLcnOZdqWtP6obNT69fWKOHfo71TzlsPWHxEt3tChWHm+283j7hm0/65TS1erovafTv2dao5HfMd3nd9oPl+SkWhTe1yuzzBfM1z7VS33/k592tS0WQP2n9EV2t46K7019DdEQdzX3G1KrEPP1uf6dT1pwnOt5P38gOs1uu2FpUlcfoLSrz9PGWOu/NPKrwLS/lgK+p7h92eehhNas3a3NFafh7wEXdOwtBtUro4pVx1DrjzVPN+xzWONRJvae+p8+T5wQVh530n771z5uHVv5LxHs9StZd8/sj+/iHKjv1PNW1TQ/ReUx4xZuZFDsnOZ4pE8j5PjNxs3wwmtWWsoVsBvCZQCM8/wtv8tOe5VI9GmdmOJPz/LGbfwyxmH8ObXtoB81J/3hR8bE1S2dOdJDznLZqcL1ObJmZYlfwzDm4499fFcZfdo2gZZ7135zyGf3zjwXAr4LhNKqkhD3WtS996zNHXvPUtTG/sCtq3rTg1Zfx/ZujR179bezA5Gd2r1PWtSPzasv/u2pu69Z2vqSJ7bh7rXuI7pPZ6pN7XROj/ftr6tqdXdjlcCjr/RsT348232cRzna73HdQwf833e387mPuZQ6sfrPL8hRuXI1qUh18fNnYbN6+F8vzeNeNP8WGwPT/O4nPnSrNGdWp0jDxkTfVsveDrzfU8rryzkfsXE4rumFyLt5mDWXxxlfiqVGure6irDxxp5Ni6eodSP1znTu78Ok2HVN8Puzxxlg7f+UjBvnTwPvjzmApUb/uPmkOM3GzdGd2p1gb8lUAqObM0SI0hluVetesu99wTkbyFxC5884hD++9bOm92v+/Ig72fhEpAjZuWNF/Vt9cWcshnqXpNavW6c655hadlXJ/DWP3pTG13nlys+FhxzC5Xr3k0Fn3O4oHMp5LtMLMUtGdHfqfb4VLV0dWhxpXdjn3bGpcUPZno3og2NmpLcpfiw+Xeye7cUW5GJplfXa3HlYcUT5ojasO2R+g5X1D5Sv0RVg4eVtD7f7InYrOFYh7Yvr8vsaKtudUfrrc8/0m/9XV6vlY7tkdo6TXF9fkayc7OGo3Wa4nn9Q8M9Otgr2WmeX3Dvg6Fkj6GqmP0bRhR7sFFTkr3KMsAV42k4oXiyTi3pHqWIYrE6nYwnrOsRluZHuz2fNI+SU16vh2IRDfT0ebdcZmbprlhEJ0PyVFxCLmraNcvXKbF614i5SH1rwaMNgEtDRLH1zhGiVh2mp1feXNVIbNaeyjpVeV6/9FBuAMhtSqxRVYO79YIVX8iuT5vW7lb58h1aH/OP9guLW/iExSECRRRbv0Mt0cPa1pmj7lRdoyqFfRYmjpCYVX+vBiobdZcdA6huVUvUrMfmZijZI0UfHOd4QVhaDo2hzNJK14hos+wOah9ki7nllvvelfq0acsJLd5Q2Cya4HPJ/7tMNMUFhKtbtT3b9KPhIQ1rqiLOhlV5jaKVhj4wJMmQMSiVVzovSkTRWrviFrY9H2amObZDtD3fSWZgfNtgox5qKPQ4fTqSrFNsTM8P48YwdLIyomudr1XXqEonZAznkeZHux3IZXDIatQbircvU3OT9a894Wjs92lT0zJt6nfvs8lbYezvzLy/qdPTAWW+d026glvkZ/Z3es6tCMMJrUl/puOchhNa09SW7kgxOc/bPmfHZtf5ZbYlO53fNXNM53t9+6Awdtrt78ykjaZlau7sy7zm3O56s3ldndcrcx29acApokilctYnjESbI42OcTp37he0HbhYhhN6IT5VLa013i2j4C03vPl3m+L9Ca3x3d/e/QK2F8y8l133qWu7pwz1bffkM7mCMsXwlGvu/CHzOzrPwVf+eH/boAxmLI4DXBZqtHJ5nU7GN+eoM8gM9HRlm0I+FnGL/JkDhsIGiEV0HSGGS8R4xKwkDfcqqTpFy2dpdtTQnm5PeWXXq71lhuM+sOvCyURb8eVAWAwlX0XH3HLdu1bAPbok64CQZKe3jBzNuUxcxQWEcwm68C6GPhjMlVGFbQ/Q36sBb0CtEMO9SuY4ptnz5x5NlO5RcIzq9DoZN28g3000PKThyoiu9TYg0zuYvScDcTsBGoq/GHQOuBCMwRNSZUXW6xya5ke7Pcho0zwuCx8ahpU2zfWZkrUd2t61Q9u7dqilcrfaPQ3WgS2bpQfN7etjEQ1sceQ7/Z1q3nJCizeY27d31eiIa43VYOPxmS7DCb0QlxY3WL3LwwmtWXtY0fRnrlB5vM0M0FkdKa6e8+FeJQezdMD122tVWp+1oVHDW8wKUbTWM4LOMHRS0vCg/UpQIwD5yqRd22Ft66kxr4N3fa+gES/WdZ1dLbOTVSvSaX99TNrzYvZgq9mg2uyv5OUwJul8cLfa7e/YtSLPkUnA2Ev2HPbcf2Y9s3x5lsEeY8Va07B8eSb/VjxgrUwd1rYXpYe6dmh7V4cWV4aMivMKKjeaNkvp4+7Q+tgJbXPWvYd79YGzDPWMxEt2LtO2wUatt8uL2l7fusVF6+9Us6tcs8pwTx51Mt6mI7XWPt5AVj6/7VgcB7icWCMufQGzvBURt/AKiUO4lFeoPEcwLdm5OWeAC5eY6not1m7ttOu//Z3alsegwmT3bqm2RhGZ7RkFdiI4y9kd2r58qvas9QyoGNytuFW/zito7UnLoTEUH2sWX8T5jvCYW7GMwROaEolk7ey91nUeKvBcgr7LxDT2AeEcMg3pLNIj3bII2j6c0Joth1VVdCXWHErumuohq1fEShhHav03gbnkg/s9TtHWTGVr+4ZGKd6WCQobhk66GoZWxdRZIatu1fraw2q3emz2VK7wnQMutvARvGFpvqjto07zuCz0d5oPxGiYJfUntEeNesiRRwSNIpjiyLMi9UscPbSG4vHDru3SLK0Mmr7kMR6f6exMa35Reqgrs2C/b2qea0qONSrDEcg1eg7rZLQm4F4xz891H5XXK2ZPxYpEXEsFJXsOqyrqCBK7ApIoiDPtpnn/dpql2VG5pl25r+ssrXQEkc1lngx9mH7Fo7xez3Z1aLF2m2VsHoGmsUnnzmlz1pT2gGn7wHgyEm3mQxMd94y5VMSK7KNoggxa94/nX64gabJ7t05GncexlkRz72bmB+kGlzlIIrhBmxFWbriPK0XqV+RcLi5aW5dpdwwnFE86z8kOJKV3H4WgPESKtq7wT/V1fofqei12zCTzf0fvbzs2xwEuN9HWFapKbvbP/BmtoLiFT3AcIjf3/ejM+7x5Oy51EcXWr5C2WGVbXssb9OlI0mwPSVkGVUiecjaT17uXowgPPmcUkpaDy5RkZ5uvPRsWcxuNDw3D3QHa1aHFg5vTMbtIfYe2O5aBKORcgr7LRHVBA8KhI6nCehC82/s71Wz1hhdUibVZIwaGA54AGKnPjBKY3eMewWsk2rRNBQRorfUS3Q0/d4Ztrglr9wCZU7ZecI54iuwqaDQTipBzGl2Q8N7csDRf8PbRpnlc0lwN3i1Si9XgNQZP+Bvna3frpGcUgS89pQtkQx8UOdrV/57Rf+aUmJX/bmjUlHS+KMkalev6HZqWqT1upCve7jXfrfXYa4Mqx+b5DdiVLEcw46RheJZtMZf5md1aoyo70GgYWQLNCJIt7WbknvHgHuFgrbvuDCA78++gp3P7mNP0tneZDcGg6eFO/nRcRDovdCYIMMaSncusZ4A4GpT9nWrvqdP6QoMIlY7Rso5/2YOkZv6d32iZ3PlBkLByw39cc/kYV8e7c+aec5S/YehkEeeUn2x5SETXeQKx/u9gn3+27+g0FscBLkfWwALnzJ+x4I1beOWIQ+Tmbn+m876uHeYMpaBlrXBp6u9Uc1OvZqev7xJ9sDbk+vb3aqCyTlHHIAXvoAqTt0wzy0SXfOutBadlbwzFjH1tG2zUekcAtuCYWzG8HamuNY4z8j+X4O8ykY19QDgSyT0yJ6Di4Ra23WQk2tJTfYsKjDmmTYVd2GirOXXMXBy+TzvjhpTc7Am8GNqzNvv6KpHKqe4XfDdYRNfZN2HAFOdI/Qr3lAGMvfJ6Pets2Fg3caRyau5e3rA0P9rtllGneVzy3JU+Tw9xYOPcG3TLxVs4j4VRfmZ5vZ5dXuerpLt/B/f96l6fO3wUb5VjCnH6X+ssyRptPNDTZ60xVaOoIrrOGlGW7Dkc2GhGsJxpNx/V9VpcaXVweCq7RqLNPQ16Q9CIw2xmaaU1JT3rA2BCjTKdA+POaqBohef+M0eNujsUN2tAVmdZHqPnC+UPSI6xLOVG2HGTnXZnlZWPeEf5++rtY2ls8pCw7zhWxwEuN/aMgcLrAfnFLXwKiEO4hC4ZeOk8yArhkj2HPQ9BNmegZZYV9Uv2eMt0a+ZOyCybouVIy6ExFMla399a9tAVQC0u5lYoX1suEgloQ+R7Ltm+y8Q29gHhoLVtXI3ygB551yiusO2O0QzFNCplT7kPGqGUD3NxalfwYEOjpiiixQE3gs0YPJH5o7rGPz3LuQaRtVYlJoiggK0zIBGW5ke7XWOQ5nFZMwvc8E6F7MwKrfepta58q2Bj9JmupzWHPxDMGcg1eg7nWHvd7ITLNerJrsgkB0+ky6dobUTDg30yBh3TsXABRBStlZI9hllBttZGS9cPlhdTntsCRkXkbYzSOTCOkp1WA8U3CtgeKe/8t0JVdmeZb//RMO8zX6BiPOq8AeWG77iudeDNKbZZp+J6lhAyme8fveA8xNUuCJXlO7p+27E4DnC5MpdYUXyz4gXd13nELbyKjkPYy75kq9fi8lJMGWOXZd5yPZ+BD0U8GyUsLYfFUGQo3m6u7++PoRUXcyuE73kxsspNXwdwPueS67tMbGMfEJb1NEPHA128D2WL1noeUGCtf3mXFfzKvd1a9zFWfNTdez5eRqLTvaB2ngt4Z/Rpk3NUxXBCL8QNxzkH/EbOReCttV6cN62R2Kw9ISPdME7KaxR1PdDEmwYDrqcrjY12u/d4gIfV+HU/dMeTD+Vkrb3rnCJj5VvFG6vPtKfvmGWC/UAw13Sp/k7X35H6JapK7tILPcoRtHV/rs2V/1fXqGpwt7bFlW4sR2rrpPhm7ZFzOhYuhEhtndSzWXHn2mi+QIj5cKzsASZD8XbPtFBrfdDsaSWXsUrnwDgZTiheUB12/JhLv+xy5Ll92hT0AMZRCy83jMRmR9vCGyz1nJc188T54CmzXp7ZxZwyW8yU8+CyqNCHQ4X/tmNzHOCyZT1HYk+8sDwpd9zCLywOEcwceRj6TCE75pAtGI1LSED90srXM4Mi3IzELs9yETb/M1Ykd7vRXSbmJzQth8VQQu6VcOZ9UfRDT612XuYBz+bva5+fkWjLYwlRy6i/y8UzDgFha4mFysxQdd96G9Wt1pMMHesJOodVh223p7I5hsI3NxU2tc27BmVzU2bN2EilMse2j1/oyEzXkHJzGL1zmr/vNxpsdKzfNksru1ao3HGOvjXfcAFFFFtvLjJuXg9zpE3O6+lJ86PdrjFI87icmQ8dMNdCtdPHLl2X9SFdfpH6Duup69b7X5Qe8k6ZLdCYfab1oIM9LyZkpKcDO+6DeMRTAJudLCfDgrbVrVofc+f37UaNo2FsrrslZ+WqvELlUtbKGMZReY2iMnTSE7ywHwhjXsPNUizXkhERRSoPZ9Jkk11GZxndkIcxS+fAuPGkeetfznUIx4O3ft/Uq9kFLfFSAG+5saFRw45yo72nzrG+nz060K5392q26x721gPN53y41ksOHFXk4V3r327I+n4Xa3mPQkZo+z4j4Lf17VPEcYDLWLTVnCFREO99FRC38MoVhzB58+xdum5D8KwN12fxnJnLiq9+mXOdXrNTM1v7xP2MFZnPs6rtTaed9vjU0HQbJHda9pad/hiKv1w098sryDs8pOGcS6iE8cbczN+36PtnNN/lIvpYKpVKeV8EAGA8GIk2tRtLAiu1QG6G4u1t+iA28Rs7pHMgT/2dao5HLpmHr2RjJNr0QkBnPgAAE0p/Z3EDHiea/k4199RQ1x6lcRkhDACAD1PZMAqXzNJJpHMgT7mnv15KPjRyLVEEAADGkpF+xgtGgxHCAIBxYSTa1O5aSzWixaOYmo8S1d+p5i2HzeltE3A0A+kcyFP6Xs6oYnozAAAXzuUyQhhjgoAwAAAAAAAAAJQIlowAAAAAAAAAgBJBQBgAAAAAAAAASgQBYQAAAAAAAAAoEQSEAQAAAAAAAKBEEBAGAAAAAAAAgBJBQBgAAAAAAAAASgQBYQAAAAAAAAAoEQSEAQAAAAAAAKBEEBAGAAAAAAAAgBJBQBgAAAAAAAAASgQBYQAAAAAAAAAoEQSEAQAAAAAAAKBEEBAGAAAAAAAAgBJBQBgAAAAAAAAASgQBYQAAAAAAAAAoEQSEAQAAAAAAAKBEEBAGAAAAAAAAgBJBQBgAAAAAAAAASgQBYQAAAAAAAAAoEQSEAQAAAAAAAKBEEBAGAAAAAAAAgBJBQBgAAAAAAAAASgQBYQAAAAAAAAAoEQSEAQAAAAAAAKBEEBAGAAAAAAAAgBJBQBgAAAAAAAAASsTHRs78z5T3RQAAAAAAAADA5edjqVSKgDAAAAAAAAAAlACWjAAAAAAAAACAEkFAGAAAAAAAAABKBAFhAAAAAAAAACgRBIQBAAAAAAAAoEQQEAYAAAAAAACAEkFAGAAAAAAAAABKBAFhAAAAAAAAACgRBIQBAAAAAAAAoEQQEAYAAAAAAACAEkFAGAAAAAAAAABKBAFhAAAAAAAAACgRBIQBAAAAAAAAoEQQEAYAAAAAAACAEkFAGAAAAAAAAABKBAFhAAAAAAAAACgRBIQBAAAAAAAAoEQQEAYAAAAAAACAEkFAGAAAAAAAAABKxMdSqVTK+2L+DMXb2/RBbIdWVru3JDuXaVvS+qOyUevX1yvi3KG/U81bDlt/RLR4Q4di5fluN4+7Z9D+u04tXa2K2n869XeqOR7xHd91fqP5fElGok3tcbk+w3zNcO1Xtdz7O/VpU9NmDdh/Rldoe+ss6w/PObi2oRjua+42JdahZ+tdKdQj/HqEpfnRbfekFd92lAxX3mjy5y0Xmpk+daHPI0v+jokl2blM8UhYHju2/GWwt5wHSkdg/ceqxxiJNrX31I1pPuq9/woto9zvz10Hdwqqj1tbFG9vU7LWzocuUpmV5m1n5FMPneCsuknO72HtU2h6KM7FvsaYyMw8MXe9wNwnS/4TWP/039ejy7+CPs/RBh1OaM3a3Trp2pj7O2ECC0xT3vK7gOtrpQ/lypPHQPj5hcRQPO3aXGWI/x7Jn5FoU7uxJHf8JvD8nXJ/F2/dR0XUfy6KVJGGutek7r1naeree5amNvYFbFvXnRqy/j6ydWnq3q29mR2M7tTqe9akfmxYf/dtTd17z9bUkTy3D3WvcR3TezxTb2qjdX6+bX1bU6u7Ha8EHH+jY3vw59vs4zjO13qP6xg+5vu8v53N/ZsNpX68zvMbYlSObF0acn3cgq6H8/3eNOJN86Pdnurb6korvu0oCUe2LnXnVSl/fnVx5M7P/HpTGz15ZlH6tubImzFRFJrfjo5VXnrThScPLRhpDZewXPegt/6Rm3l/5b6XhlI/3ur4PG+dPkxAnd9X7gUaSv143ZrUak/9LLPN+XqhZVa+8vl9zGO7z7E3tfFSr9P1bbXahdmulZU3j8vvHmS8rnFq7OowuGjM+nSOtpTRnVodmJ5zxBesPKi4dBEUTwjJT4zu1Grf+eHSkyNNhcWschjqXpNava6Q8r0IeZxf7hhKb2qj6/xy5dtB90ge0vdywP2ex/k75f4u+cT/Jqbilozo71R7fKpaujq0uNK7sU8749LiBzO9G9GGRk1J7lJ82Pw72b1biq3IRN+r67W48rDiCTOiHrY9Ut/hirRH6peoavCwktbnm9H7zRqOdWj78rrMjrbqVnfPg/X5R/qtv8vrtdKxPVJbpymuz89Idm7WcLROUzyvf2i4ewe8kp3m+QX2GAwnFE/WqSXd4xBR7MFGTUn2yjvAAxdA0PWI1elkPGFdj7A0P9rtZpp1ppVobZ1EeigpRqJN2wYbtd470sCTXwGlLNnZpj2VK7TdO9rRk4cCGC8RxVod9195jaKVhpI9uevFJkPx+GFVLc+Uc5H6Fe46ejbDvUqqTg/F6nSyp1f5HO2i6O/VgOoUc5Xbs7TycpgFWFmnqmzXarhXycGIpvjajcDFMSVal7VtbfQc1snKiKd9HxJfkKEPvKN585QtnoDLXUiaCotZZWUo2SNFH/TGyMZY2PmFxlBmaaWrvj5Ld8UiGujpS79iK+4e6dOmtbtVvnyH1scC2sph5+8U+l3C438TVXEB4epWbfcGJWzDQxrWVEWcQ62tyuAHhiQZMgal8krnRYkoWhvRScPIY3s+Ioqt35F1uHlxPN9JZmB822CjHmoo9Dh9OpL0VgYdDEMnKyO61vlaeYXKdULGeN3QyC7oelTXqMq+HmFpfrTbs/GeEy5jfdoZN1QVy2NK73BCa5qWqdn+155wNIwNxduXaU2iT/F2e582s+OhvzPkPYaSnY7P7fQX1i6e81hjdeiZx9msARnas3aZmps6M5Vx5zk0LdMmb4Hs2u54Hy5prnQVcF3DtqcNJxRPRrS4ISywYqbp4M/s06amZdrUb/63ualTr3YuM6ezDe5WuyftZz83771m3WfAROctQ+z0PpzQmiZzquTAlsLTtLten42hDwYjus61a0SRSml4MFeFyAzgqLZGkeoaVQ3u1k5v+RHInRekyylbtnJMdnnUqaRdLm3cmt/vE4loSmh93nteZj5il4lGos1TTlvn43wt23WUAvM5O+/KnqflI6LZtRENxD3nlh7ss8TXdnQfz/2bpb9n1vqJKddneH/L3PUKz/agbbnqMDnSi/1dkok23zZcJJEaRR0DzjKsgToxb4BuPOILo4kn4NI3TmnK6iCNls/S7KihPd2eNptdfrnyrOD8d1R5VlgMJV9F3yOztLKr+CUbkp2OMmesvssEVFxAOJegH8slqLLnFLY9QH+vBrwBtUJYvdbZjmlWYuo9lZg+bdpywjWq0+tk3LyBfDfR8JCGKyO6NltwIxLRlEFDH2beYQkJEGJcGIMnpMqKrNc5NM2PdruPNYImn+AgLg/DQxpWnWaHFWj9nWpee1jRDTu0vcv811K5W+2eBtTJ+C7pQWt71GrUxCNa37VD27tWqGpwt17wFPwn4206Umt/bocWD27OHhQeTmiN6zxWqDzeZjamqlvNYyiixRt2ZDoX+zvVvEVqsc57+4ZGDW9xVE76O9W85YT1nh3a3lWjI561lHHpSXYu0zatSKfX9bET2uZIr2HbXQxDJyvrFA2rCwz36oPajsw9Ej2sbZ60PLClV7O7zPS5tHWHOXKjstG8R6zRAfmcW+Zey7UmGTBxGD2GK++uSm428+7yej1rzQysWl5Amu5PaI8adVdY+SVJiui6LJ3huQeFmAGcaG1E0izNjipwhJHXwJbN6bLQLqfS9fVc5VjaYW3rqTG3P/xAfr9Peb1iVrnrC05KVgDTmulg5S0PaZd/HdEQWa+jgzOfi+aZp4W51jdrU9ZAGHNwj1ufjriOJ+150XO8wd1qt3/jgPpJsnOZNXvK+q6eUXbOa7w+FtHAFk8ndLZ6x3BCa5x1jg2Nuk456jD5pJfB3Ypb33fMA0AogjXCzzujoL9XA5V1ihZ1ieyOAn+ALVh4PAFIC4lZ2ZLdu80O0pyzig9r24vSQ+m8c6r2rPWk2ULzLM/5hcZQfMzZRFMizndcwHvEc/7XOs4j3++SNf43gY19QDiHsN59DQ7lrnQEbR9OaM0W9/SywphDyV1LVMjqFbEu5pFa/01gLvngfo9TtNWuEJiVCDkrmYahk64KjqfSVW72WDobqMlOxwPFMEEEN1qcwtJ8IdszIyDMym2xvV24BOXVaWB2FEzx5EvR1hW+xplzn2hDo6Yo4ihozek6vsZ3dIUjzZmV6OAKRsCyPzmmAJn804TtRrM5zTjou83SyqDpVbh0+KZfeZaACtvukW9lzbvMSrS2zle/mOLrBPbI99yiS7LWE4ALydlIafaOhHSI1Le68tnZ0fC6io9z1FFPjX8Jl6zMoKE3aOd7IJ6XHcCxy7WsDWA3b5lyVyySDg7lV47lMyPBL2p1MgWOJO5PaM+gN29ZEbBEX275XEdXPpdvnhZqlu6KyTUizUjs0kBgXuheKsNcos87IMZ5Tp76iX3OzvRVXe86jvMaR+qXqEr2dOCweofcs0PL6xXLUe/OL73kmB2Ki6O6XovlnFEwmkE35mhEVweHN8DmERZPkOwZB9ny7sPa5tgWNIIel4vgmJWfpwOuusaR7zk52372cgne5Z0KybPyPT9ljaEkO9u0R416yHHMfO6RseE//0h9Rx71l8x3yRn/m8AuaEA4dLpYWEPOu72/U83WuiBFBceGE1rTZK7b4g34Ruozo4dm97hH8BqJNm3TCt97siqv10OOSqYpqNJlF0gRxdabvfl2Bh+PrNDiyvAeIYyCd3pdaKEafj3C0nwh2zOZzArpxXzOD5cVXyPJy1y7zJ+mso+4ygifYeHurZU17TWIueyPN/jQHjd8QbcM89y9ld5tSXtUWLbvhkuaYeiktzFjTcX9wMhje5CsaczDOUMnYKR5aFrL89x89w1wkUyJZeq120OmUDqn4IcGY4OU1+tZ+1i1vWr2BTGyi9R3mKP27fsqHlFLLJLzXkr2HNYUazSUlKsB7Oa9zyOVU63/y7ccCy87s6pudQSNMiOJzI6tsA7g/IRdR9f3zzNPy0ek1rk2qxlgqKrNEjh31r3X7tZJ7/ag38K6BvY6r77tDt5rnBFS77AH5+Q1yivP9BJyrrgYrE4oO3A/3KvkYB4z8vJgduR4A2wZ+cYTzBkH2fLuuswI964deQSvcEnKEbPy8XSQZp814y2/zOWZXPLNswo5PykghmIu7bNtsFHrHWk433tk1Ao+fyfvd7EExv8mprEPCGdd7sAWFpwI224yEm3paT65KrVZOaZWh134aKs5pdRcY8hcy1OOYK1ZgTGniGSrNGQqmRbfDRbRda6b0N3L+Gy99MGg98bFmHI2YByFaqRyau4gQ1iaH+12n4hi6zs8Pdq4rOW15qCyF0oXgTf4kE9F1Vvp3d6VmZ4/kb4bxpKnMWP9y5TrYdszzLw6PC9Ndi5zTxMueqR5/ucGXBrMNWWdywa05Bwqn4fqVnM0bMC6stm4Rtmsr5cMI0dgr09Hkt5gnDmrzt8ALkwx5VihIvXmw4ScD6bxDYApWLHXcYzytPJ6xex2U44lQ4xEm3uZqw2NWTqacxjlb5W93mGu7Wkv/eAbyR3gQqQXjL1I/RJVWQ/yDl4mslgBAba04uIJKEEFxKxkdZCmn3nh6OjKZ9ZMUXKcX2gMRbLKqzYla72jcS/QPZLj/J3y+y5uvvjfBDX2AeGgh5+5etuCHg7h7D0O225euPaeOq3P9mC7MMMJrdkitWRb3ysnd6A2U4Ex15LKlpCMwROZP6prAqZg5V472ZxuVVPc98XoBAVsnb1vYWl+tNsBe81B70MBXMzONP9IhNx5S9GyLmNh5uG+JSdyMjvEvNNZM4K/mytfxaUnrKMjbLuX9XRg/wNinMypdIs3FFl/sBV6bsCloL9XA5WNWu+YwXbRWcsCZK0P2eccVDe3gjz5yiw7U0w5NgqOGTeRyqkBDXdzNKstqJHpKg+LuY5jnKdFa821WePe0dtpVttueTFtMVPwb5WvsHqHzWz3rfcsg+F2gdMLxpj54K1kTyLLWtfFMkeOBysunoASU3DMyq7jetJWV0ce9WMzvWbvfA0Qdn5hMRQZirdvlpYHpfkLcI+Enb9T6Hfxu1TaqWMfELYyVedDAby9bdHaOp2Mb3Y8LMjde5x7+2jW9jF5z8fLSHR61vPq1LZkgWuoOB9QM5zQC3HDcc4Bv1Hn5izra1kB8LiKWqcMY8C3prM3DQZcT1caG+12KdnpftKzkdicdcQFLk/RVmsZGe9SIcMJbUoYkv1wDGfeGZa3FMD9uX3atCV7PhxtaNQU7wNs+js9U4adM0GCzz2TF5sVdNcIKitfxSXM7uhwPUTIULzTXk8/ZLtPRLEHzTW7fA88TKc/b+eCmZbz4qwIFnxuwCUgEtEU54CFLOv35gyipcskm6e8GE5ojfNByjnZa/plq7Nb68sHBRzLaxQN6Eh0cq1VPJzQC466dn7lWLCcv09/p29kU7J7t07agz6s5S6cDXffc0QiEU1JLzMXUB7meR1dwvK0gq5bZm3WPVnbT2YQNTOK21D8xYAlI3KxOgFdDwXtT+TZCRBS7/Bc6w99wV73bNbRpBdcfNGGRim+e3T1Zc/1NhKbtWcwW/oHwnnjAWGMxK4sAUqrHeVavsCddxYTWwg9v7AYSo4ZJPkxRxfnl+f7hZ2/kWjLtLvDvkto/G/i+lgqlUp5X8yf+STcD2L+6UTJTsd6VdEVjmm/lv5Ox7p9dWrxjvbNut16+m5Qj1u248QjrvVIXOfmVGmtW+I6toLPzyn9ZFm7d6FPm6zpaqaIFqe3ZbjOwz520Law46Ngyc5likcKWSfGne6mBKwxE5bmR7PdSLSZa5HZPOkFpcOff3nyB2/+5UpLZjpO1jrS73BCa9Yaijk+w0i0qd1YYr3Pfs8KRXs2Z7kHzDxPzvXcvefhSbOZNJ05f186z3UfVDZqfcxQuyd/x8TjT7PO9OAv06tczwUI2x7E/x5X+htOaE16rco6tSyXtqXTUUBaltyfmU6X/uNkzi3gXgMuklx1HiPRZs66s+4PVz4bXaEWbXa/N523B9dt/XVgzz0bUC938ZQdOe93X/3bLfPdapR03Y/2fb5C2pI5V9+xcpVj/Z3W0jPZ2i9Zfh9X/mPx1Qndv2HV8g5dF3e3t8LKw9zXMY98zpL+TfK5bp7tRqJNL7jWf/S2G53fM6LFy+uU3JKpj3jTpv2Z7te852zXKYK+o/+1rPUO73XKWh9x1MFypBf/eeNi8ueJ1kjFBx33bED9OC0gvee6/nnx5WfetG2xPzfX+eHSE5CmAuvPypa2QuqdzvRlWOXXcmlbYLwtvzwrv/PLEUPx3jNpucpPxz1SwD3gbtuaws5fvt8gx3fx1X2yfIcJaJQBYQDA5S2kggEAQJ78QUKE8wZSLzyuGwBcJrJ1aF5q+jvV3FPjG2SHwozDkhEAAAAA4PahoTFcoxMXCtcNADCRGIMnMs8YQ9EICAMAAAAYd9HWS2MKJdy4bgCAiSRS33HRZs1cTlgyAgAAAAAAAABKBCOEAQAAAAAAAKBEEBAGAAAAAAAAgBJBQBgAAAAAAAAASgQBYQAAAAAAAAAoEQSEAQAAAAAAAKBEEBAGAAAAAAAAgBJBQBgAAAAAAAAASgQBYQAAAAAAAAAoEf8/dCx6a9kTQeMAAAAASUVORK5CYII=;" vertex="1" parent="1">
          <mxGeometry x="-102" y="683" width="959.78" height="144.11" as="geometry" />
        </mxCell>
      </root>
    </mxGraphModel>
  </diagram>
</mxfile>
